<svg width="179" height="176" viewBox="0 0 179 176" fill="none" xmlns="http://www.w3.org/2000/svg">
<path d="M51.0312 40.625C50.0521 41.8542 48.8438 42.9271 47.4062 43.8438C45.9688 44.7604 44.4271 45.5208 42.7812 46.125C41.1354 46.7292 39.4479 47.1771 37.7188 47.4688C35.9896 47.7812 34.3438 47.9375 32.7812 47.9375C29.7604 47.9375 26.9792 47.3958 24.4375 46.3125C21.8958 45.2292 19.6979 43.7396 17.8438 41.8438C16.0104 39.9271 14.5729 37.6771 13.5312 35.0938C12.4896 32.5104 11.9688 29.7292 11.9688 26.75C11.9688 24.4792 12.2292 22.2604 12.75 20.0938C13.2708 17.9062 14.0104 15.8542 14.9688 13.9375C15.9479 12 17.1354 10.2292 18.5312 8.625C19.9271 7 21.5104 5.60417 23.2812 4.4375C25.0521 3.27083 26.9896 2.36458 29.0938 1.71875C31.1979 1.07292 33.4479 0.75 35.8438 0.75C36.7396 0.75 37.6979 0.791667 38.7188 0.875C39.7396 0.9375 40.75 1.0625 41.75 1.25C42.7708 1.41667 43.7604 1.65625 44.7188 1.96875C45.6771 2.28125 46.5521 2.66667 47.3438 3.125L46.4688 15.0625C45.3021 14.625 44.0938 14.3333 42.8438 14.1875C41.6146 14.0208 40.4062 13.9375 39.2188 13.9375C37.5521 13.9375 35.9896 14.1979 34.5312 14.7188C33.0938 15.2188 31.8333 15.9479 30.75 16.9062C29.6875 17.8646 28.8438 19.0312 28.2188 20.4062C27.5938 21.7812 27.2812 23.3333 27.2812 25.0625C27.2812 26.1458 27.4271 27.1979 27.7188 28.2188C28.0104 29.2188 28.4479 30.1146 29.0312 30.9062C29.6354 31.6771 30.375 32.3021 31.25 32.7812C32.1458 33.2604 33.1771 33.5 34.3438 33.5C35.1354 33.5 35.9479 33.3958 36.7812 33.1875C37.6354 32.9792 38.3646 32.625 38.9688 32.125L39.0938 29.6875L31.5938 29.5625L31.9688 20.1875C35.0729 20.0833 38.1771 20 41.2812 19.9375C44.3854 19.8542 47.5104 19.75 50.6562 19.625L51.0312 40.625ZM90.0625 16.875C90.0625 18.5 89.9167 19.9792 89.625 21.3125C89.3542 22.625 88.9167 23.8333 88.3125 24.9375C87.7083 26.0417 86.9271 27.0625 85.9688 28C85.0104 28.9375 83.8542 29.8333 82.5 30.6875L89.9375 43.9375L75.875 46.6875L71.0625 33.375L67.1875 33.5L66.625 46.5H53.1875C53.2917 41.75 53.3854 37.0208 53.4688 32.3125C53.5729 27.6042 53.6875 22.875 53.8125 18.125C53.8542 15.7292 53.8958 13.3542 53.9375 11C53.9792 8.64583 54.0625 6.27083 54.1875 3.875C55.6458 3.33333 57.0833 2.88542 58.5 2.53125C59.9167 2.17708 61.3333 1.90625 62.75 1.71875C64.1875 1.51042 65.6354 1.375 67.0938 1.3125C68.5729 1.22917 70.0833 1.1875 71.625 1.1875C74 1.1875 76.2917 1.52083 78.5 2.1875C80.7292 2.83333 82.6979 3.8125 84.4062 5.125C86.1146 6.4375 87.4792 8.07292 88.5 10.0312C89.5417 11.9896 90.0625 14.2708 90.0625 16.875ZM76.0625 17.875C76.0625 17 75.9375 16.1979 75.6875 15.4688C75.4583 14.7396 75.1042 14.1146 74.625 13.5938C74.1667 13.0521 73.5833 12.6354 72.875 12.3438C72.1875 12.0312 71.375 11.875 70.4375 11.875C70.0208 11.875 69.6146 11.9062 69.2188 11.9688C68.8229 12.0104 68.4375 12.0833 68.0625 12.1875L67.5625 23.8125H68.3125C69.2083 23.8125 70.1146 23.6979 71.0312 23.4688C71.9688 23.2396 72.8021 22.8854 73.5312 22.4062C74.2812 21.9271 74.8854 21.3125 75.3438 20.5625C75.8229 19.8125 76.0625 18.9167 76.0625 17.875ZM108.562 3L106.375 45.5625L93.1875 46.25L91.9375 3.875L108.562 3ZM138.531 30.4375L137.219 44.3125L110.906 46.375L111.906 1.75H128.156L125.844 30.4375H138.531ZM167.406 30.4375L166.094 44.3125L139.781 46.375L140.781 1.75H157.031L154.719 30.4375H167.406ZM103.281 107.938C102.552 107.375 101.823 106.833 101.094 106.312C100.365 105.792 99.6354 105.25 98.9062 104.688C97.8854 105.5 96.7292 106.281 95.4375 107.031C94.1667 107.781 92.8021 108.427 91.3438 108.969C89.8854 109.51 88.375 109.917 86.8125 110.188C85.25 110.458 83.6771 110.521 82.0938 110.375C80.2812 110.25 78.5833 109.896 77 109.312C75.4375 108.708 74.0938 107.938 72.9688 107C71.8438 106.062 70.9896 104.99 70.4062 103.781C69.8438 102.573 69.6562 101.292 69.8438 99.9375C70.0104 98.7917 70.3854 97.6875 70.9688 96.625C71.5729 95.5417 72.3021 94.5104 73.1562 93.5312C74.0104 92.5521 74.9688 91.625 76.0312 90.75C77.0938 89.8542 78.1771 89.0208 79.2812 88.25C78.4896 87.4792 77.7396 86.6667 77.0312 85.8125C76.3438 84.9375 75.75 84.0417 75.25 83.125C74.75 82.1875 74.375 81.2396 74.125 80.2812C73.8958 79.3021 73.8646 78.3125 74.0312 77.3125C74.2396 75.9792 74.7917 74.7188 75.6875 73.5312C76.5833 72.3438 77.7188 71.3229 79.0938 70.4688C80.4688 69.6146 82.0104 68.9688 83.7188 68.5312C85.4479 68.0729 87.2396 67.9167 89.0938 68.0625C90.8021 68.1875 92.3854 68.5938 93.8438 69.2812C95.3229 69.9688 96.5833 70.8229 97.625 71.8438C98.6667 72.8646 99.4479 74 99.9688 75.25C100.49 76.4792 100.656 77.7083 100.469 78.9375C100.323 79.9375 100 80.875 99.5 81.75C99 82.625 98.3854 83.4583 97.6562 84.25C96.9479 85.0208 96.1458 85.7708 95.25 86.5C94.375 87.2083 93.4896 87.9167 92.5938 88.625C93.4688 89.2917 94.3021 89.9375 95.0938 90.5625C95.9062 91.1667 96.7396 91.7708 97.5938 92.375C97.9688 91.8333 98.3333 91.2708 98.6875 90.6875C99.0417 90.1042 99.3646 89.5 99.6562 88.875L108.969 91.125C108.552 92.2917 108 93.4688 107.312 94.6562C106.646 95.8229 105.906 96.9583 105.094 98.0625C106.01 98.7292 106.906 99.3646 107.781 99.9688C108.656 100.573 109.552 101.208 110.469 101.875L103.281 107.938ZM88.7812 78.3125C88.8438 77.5833 88.7083 76.9896 88.375 76.5312C88.0625 76.0729 87.5729 75.8125 86.9062 75.75C86.2188 75.6458 85.625 75.7917 85.125 76.1875C84.625 76.5625 84.3438 77.125 84.2812 77.875C84.2396 78.3542 84.2708 78.8438 84.375 79.3438C84.4792 79.8229 84.625 80.3021 84.8125 80.7812C85.0208 81.2396 85.25 81.6875 85.5 82.125C85.75 82.5417 85.9896 82.9167 86.2188 83.25C86.4896 82.9375 86.7604 82.5833 87.0312 82.1875C87.3229 81.7917 87.5833 81.375 87.8125 80.9375C88.0625 80.5 88.2708 80.0625 88.4375 79.625C88.625 79.1667 88.7396 78.7292 88.7812 78.3125ZM89.7812 98.8125C89.1562 98.0625 88.5104 97.2917 87.8438 96.5C87.1771 95.7083 86.5312 94.9375 85.9062 94.1875C85.6354 94.4792 85.3333 94.8333 85 95.25C84.6667 95.6667 84.3438 96.1146 84.0312 96.5938C83.7396 97.0521 83.4792 97.5312 83.25 98.0312C83.0208 98.5104 82.8854 98.9792 82.8438 99.4375C82.8021 100.042 82.9688 100.594 83.3438 101.094C83.7396 101.594 84.2396 101.875 84.8438 101.938C85.2812 102 85.7292 101.938 86.1875 101.75C86.6667 101.542 87.125 101.271 87.5625 100.938C88 100.604 88.4062 100.25 88.7812 99.875C89.1771 99.4792 89.5104 99.125 89.7812 98.8125ZM32.6875 131.062L30.9375 144.25C30.3333 144.083 29.7292 143.969 29.125 143.906C28.5208 143.844 27.9167 143.812 27.3125 143.812C25.7708 143.812 24.3021 144.021 22.9062 144.438C21.5104 144.833 20.2708 145.448 19.1875 146.281C18.125 147.115 17.2708 148.156 16.625 149.406C16 150.656 15.6875 152.125 15.6875 153.812C15.6875 154.896 15.8542 155.833 16.1875 156.625C16.5417 157.417 17.0312 158.073 17.6562 158.594C18.2812 159.115 19.0208 159.5 19.875 159.75C20.7292 160 21.6667 160.125 22.6875 160.125C23.4583 160.125 24.2604 160.042 25.0938 159.875C25.9271 159.708 26.75 159.49 27.5625 159.219C28.375 158.948 29.1667 158.635 29.9375 158.281C30.7083 157.927 31.4167 157.562 32.0625 157.188L30.8125 171.875C30 172.292 29.1146 172.667 28.1562 173C27.2188 173.312 26.25 173.594 25.25 173.844C24.25 174.073 23.25 174.25 22.25 174.375C21.25 174.5 20.2917 174.562 19.375 174.562C16.7292 174.562 14.2604 174.073 11.9688 173.094C9.67708 172.115 7.6875 170.771 6 169.062C4.3125 167.354 2.97917 165.344 2 163.031C1.04167 160.698 0.5625 158.188 0.5625 155.5C0.5625 151.938 1.07292 148.583 2.09375 145.438C3.11458 142.271 4.61458 139.5 6.59375 137.125C8.57292 134.75 11.0208 132.875 13.9375 131.5C16.875 130.125 20.25 129.438 24.0625 129.438C25.5 129.438 26.9688 129.552 28.4688 129.781C29.9896 130.01 31.3958 130.438 32.6875 131.062ZM71.2812 144.875C71.2812 146.5 71.1354 147.979 70.8438 149.312C70.5729 150.625 70.1354 151.833 69.5312 152.938C68.9271 154.042 68.1458 155.062 67.1875 156C66.2292 156.938 65.0729 157.833 63.7188 158.688L71.1562 171.938L57.0938 174.688L52.2812 161.375L48.4062 161.5L47.8438 174.5H34.4062C34.5104 169.75 34.6042 165.021 34.6875 160.312C34.7917 155.604 34.9062 150.875 35.0312 146.125C35.0729 143.729 35.1146 141.354 35.1562 139C35.1979 136.646 35.2812 134.271 35.4062 131.875C36.8646 131.333 38.3021 130.885 39.7188 130.531C41.1354 130.177 42.5521 129.906 43.9688 129.719C45.4062 129.51 46.8542 129.375 48.3125 129.312C49.7917 129.229 51.3021 129.188 52.8438 129.188C55.2188 129.188 57.5104 129.521 59.7188 130.188C61.9479 130.833 63.9167 131.812 65.625 133.125C67.3333 134.438 68.6979 136.073 69.7188 138.031C70.7604 139.99 71.2812 142.271 71.2812 144.875ZM57.2812 145.875C57.2812 145 57.1562 144.198 56.9062 143.469C56.6771 142.74 56.3229 142.115 55.8438 141.594C55.3854 141.052 54.8021 140.635 54.0938 140.344C53.4062 140.031 52.5938 139.875 51.6562 139.875C51.2396 139.875 50.8333 139.906 50.4375 139.969C50.0417 140.01 49.6562 140.083 49.2812 140.188L48.7812 151.812H49.5312C50.4271 151.812 51.3333 151.698 52.25 151.469C53.1875 151.24 54.0208 150.885 54.75 150.406C55.5 149.927 56.1042 149.312 56.5625 148.562C57.0417 147.812 57.2812 146.917 57.2812 145.875ZM110.719 131C109.781 138.333 108.979 145.635 108.312 152.906C107.646 160.156 107.01 167.458 106.406 174.812L93.5938 175.75L94.1562 170.938C93.7396 171.417 93.25 171.833 92.6875 172.188C92.1458 172.542 91.5625 172.833 90.9375 173.062C90.3125 173.271 89.6667 173.427 89 173.531C88.3333 173.615 87.6979 173.646 87.0938 173.625C85.6771 173.604 84.3438 173.333 83.0938 172.812C81.8438 172.271 80.6979 171.562 79.6562 170.688C78.6146 169.792 77.6771 168.76 76.8438 167.594C76.0104 166.406 75.3021 165.167 74.7188 163.875C74.1562 162.562 73.7188 161.229 73.4062 159.875C73.1146 158.521 72.9688 157.208 72.9688 155.938C72.9688 154.062 73 152.125 73.0625 150.125C73.1458 148.104 73.2812 146.083 73.4688 144.062C73.6562 142.042 73.8958 140.042 74.1875 138.062C74.5 136.083 74.8854 134.188 75.3438 132.375C77.8854 132.5 80.4375 132.615 83 132.719C85.5625 132.823 88.1146 132.854 90.6562 132.812C90.1771 134.625 89.6979 136.448 89.2188 138.281C88.7604 140.094 88.3438 141.927 87.9688 143.781C87.5938 145.615 87.2917 147.458 87.0625 149.312C86.8333 151.167 86.7188 153.042 86.7188 154.938C86.7188 155.375 86.7396 156 86.7812 156.812C86.8229 157.625 86.9271 158.427 87.0938 159.219C87.2812 160.01 87.5521 160.708 87.9062 161.312C88.2812 161.896 88.8021 162.188 89.4688 162.188C90.2604 162.188 90.9688 161.854 91.5938 161.188C92.2188 160.5 92.7708 159.583 93.25 158.438C93.7292 157.292 94.1354 155.969 94.4688 154.469C94.8229 152.969 95.1146 151.406 95.3438 149.781C95.5938 148.135 95.7917 146.479 95.9375 144.812C96.0833 143.146 96.1875 141.583 96.25 140.125C96.3333 138.646 96.3854 137.323 96.4062 136.156C96.4479 134.99 96.4688 134.083 96.4688 133.438C96.4688 133.021 96.4583 132.615 96.4375 132.219C96.4167 131.823 96.3854 131.417 96.3438 131C97.6979 131.042 99.0417 131.073 100.375 131.094C101.708 131.115 103.052 131.125 104.406 131.125C105.448 131.125 106.49 131.125 107.531 131.125C108.594 131.104 109.656 131.062 110.719 131ZM144.312 159C144.312 161.854 143.812 164.323 142.812 166.406C141.833 168.469 140.479 170.177 138.75 171.531C137.042 172.865 135.031 173.854 132.719 174.5C130.427 175.125 127.958 175.438 125.312 175.438C124.292 175.438 123.167 175.302 121.938 175.031C120.729 174.76 119.5 174.427 118.25 174.031C117 173.615 115.792 173.177 114.625 172.719C113.479 172.24 112.458 171.792 111.562 171.375L112.938 159.125C114.708 160.188 116.667 161 118.812 161.562C120.979 162.104 123.104 162.375 125.188 162.375C125.583 162.375 126.062 162.365 126.625 162.344C127.188 162.302 127.719 162.208 128.219 162.062C128.74 161.896 129.177 161.656 129.531 161.344C129.885 161.031 130.062 160.583 130.062 160C130.062 159.604 129.938 159.271 129.688 159C129.438 158.708 129.115 158.479 128.719 158.312C128.323 158.125 127.875 157.99 127.375 157.906C126.875 157.802 126.385 157.729 125.906 157.688C125.427 157.646 124.979 157.625 124.562 157.625C124.146 157.625 123.812 157.625 123.562 157.625C121.771 157.625 120.135 157.344 118.656 156.781C117.198 156.219 115.938 155.427 114.875 154.406C113.833 153.365 113.021 152.115 112.438 150.656C111.854 149.177 111.562 147.542 111.562 145.75C111.562 143.292 112.052 141.094 113.031 139.156C114.031 137.198 115.354 135.542 117 134.188C118.667 132.812 120.573 131.76 122.719 131.031C124.865 130.302 127.083 129.938 129.375 129.938C130.396 129.938 131.448 129.979 132.531 130.062C133.615 130.125 134.688 130.25 135.75 130.438C136.833 130.625 137.885 130.865 138.906 131.156C139.927 131.448 140.896 131.812 141.812 132.25L140.625 144.938C139.208 144.458 137.719 144.062 136.156 143.75C134.615 143.417 133.104 143.25 131.625 143.25C131.354 143.25 131 143.26 130.562 143.281C130.146 143.281 129.698 143.312 129.219 143.375C128.76 143.417 128.292 143.49 127.812 143.594C127.333 143.698 126.906 143.844 126.531 144.031C126.156 144.198 125.854 144.427 125.625 144.719C125.396 145.01 125.292 145.354 125.312 145.75C125.333 146.208 125.5 146.562 125.812 146.812C126.146 147.062 126.562 147.25 127.062 147.375C127.583 147.479 128.146 147.531 128.75 147.531C129.375 147.531 129.99 147.521 130.594 147.5C131.198 147.458 131.76 147.427 132.281 147.406C132.802 147.365 133.229 147.354 133.562 147.375C135.229 147.479 136.729 147.833 138.062 148.438C139.396 149.042 140.521 149.844 141.438 150.844C142.375 151.844 143.083 153.042 143.562 154.438C144.062 155.812 144.312 157.333 144.312 159ZM178.688 130.938L178.375 144.188L169.062 144.562L167.938 173.562L154.75 174.25L153.562 145.25L144.25 145.75L144.625 131L178.688 130.938Z" fill="#FFE082"/>
</svg>
