<svg width="83" height="91" viewBox="0 0 83 91" fill="none" xmlns="http://www.w3.org/2000/svg">
<path d="M84.8667 75.5866C83.8856 82.0248 79.2901 87.0646 73.4704 88.126C34.7366 95.1934 17.9073 87.371 11.4293 84.769C4.67045 82.0475 7.56111 68.4175 7.54902 68.3457H85.1674C85.3174 71.1283 85.1816 73.5263 84.8667 75.5866Z" fill="#EA9344"/>
<path d="M84.1861 68.3457C78.5135 73.2483 72.6319 77.4912 66.4269 81.3252C57.3483 86.8691 54.9297 86.1432 30.7565 86.2548C21.7959 86.2939 18.3009 86.0025 8.52986 82.1819C7.24804 79.9965 6.91888 76.9857 6.94803 74.3282C6.97647 71.0736 7.54877 68.3457 7.54877 68.3457H84.1861Z" fill="#FFB961"/>
<path d="M77.6293 70.4373C76.6269 72.5985 73.3993 74.4469 71.4868 75.374C69.5119 76.3409 67.3855 76.8989 65.274 77.4023C55.2157 79.8036 44.926 81.1032 34.5865 81.2783C26.0553 81.4148 23.5294 80.5773 16.6049 78.3777C13.2763 77.3312 9.86876 76.3729 6.94824 74.3282C6.97668 71.0736 7.54898 68.3457 7.54898 68.3457H77.2575C77.7942 68.9116 78.0232 69.5962 77.6293 70.4373Z" fill="#FFD475"/>
<path d="M11.2829 57.7122C17.1225 54.4135 23.9631 52.6589 30.8002 52.7073C33.2678 52.725 35.7952 52.9653 38.1583 52.3056C39.0882 52.0468 39.994 51.648 40.9644 51.6238C43.4513 51.562 45.4852 53.9358 47.9636 53.736C49.4878 53.6137 50.7106 52.5409 52.146 52.0489C56.3433 50.6129 60.7405 54.3737 65.1859 53.9052C67.0173 53.7125 69.121 52.8694 70.5187 53.9848C71.3376 54.6382 71.5303 55.7266 72.0635 56.5975C73.2337 58.5092 75.8627 59.1412 78.2259 59.2991C80.589 59.4569 83.1008 59.3559 85.1504 60.4579C86.2715 61.06 86.4813 61.648 86.6874 62.8914C87.2818 66.4638 85.3054 68.6571 86.0426 72.2068C83.543 73.9429 82.0344 73.2319 79.7139 75.1714C78.5337 76.1567 78.3084 77.8687 77.1119 78.8377C75.176 80.4031 72.2455 79.1562 69.7061 78.8078C66.9725 78.4331 64.0726 79.2983 62.0863 81.0807C61.4976 81.6089 60.9708 82.2217 60.2471 82.5765C57.9856 83.6848 52.6465 82.3291 49.3698 81.9707C46.4713 81.6544 43.2913 81.862 41.027 83.5703C40.1333 84.245 39.1629 85.1977 38.0531 84.9112C36.9498 84.6268 36.6419 83.3592 36.2417 82.3639C35.0047 79.2927 30.8777 77.5345 27.5619 78.667C26.4308 79.0545 25.4277 79.7149 24.3001 80.1117C23.1726 80.5084 21.7948 80.5937 20.8556 79.892C20.3409 79.5081 20.0288 78.9407 19.5831 78.4886C17.8704 76.7539 14.8298 77.1634 12.451 77.9767C10.68 78.5824 8.38443 79.2258 7.16162 77.8914C6.23172 76.8762 6.59216 75.3576 6.83815 74.0445C7.08413 72.7307 6.9455 71.0416 5.61747 70.5332C5.17669 70.3655 4.68331 70.3697 4.22546 70.2474C2.5896 69.8074 1.94763 67.8231 2.48439 66.3231C3.02114 64.823 4.3641 63.714 5.65231 62.6788L14.4729 55.5915L11.2829 57.7122Z" fill="#88BB5D"/>
<path d="M88.9282 72.654C88.7952 73.0862 88.5599 72.986 87.3321 72.986C84.9093 74.0559 81.8473 72.3938 79.7109 74.1711C78.5308 75.1564 78.3104 76.8734 77.111 77.8409C75.1766 79.4064 72.2447 78.1609 69.7045 77.8104C66.9745 77.4357 64.0696 78.3002 62.089 80.0832C61.4961 80.6093 60.9685 81.2264 60.2455 81.5762C58.0103 82.6952 52.5575 81.3252 49.3732 80.9719C46.4747 80.6577 43.289 80.8631 41.0283 82.5743C40.136 83.2455 39.1656 84.2002 38.0516 83.9166C36.9503 83.6322 36.6439 82.3625 36.2401 81.365C35.0031 78.2938 30.879 76.535 27.5632 77.6717C26.4292 78.0585 25.4268 78.7168 24.3 79.1164C23.1724 79.5095 21.7918 79.5941 20.8534 78.8924C20.3387 78.5121 20.0266 77.9433 19.5829 77.4904C17.8696 75.7551 14.8275 76.166 12.4501 76.9821C10.6778 77.5864 8.38501 78.2277 7.16078 76.8918C6.22875 75.8759 6.59346 74.3588 6.84086 73.0464C7.08258 71.7347 6.94537 70.042 5.61663 69.5344C5.18012 69.3709 4.68531 69.3709 4.22249 69.25C2.58734 68.8092 1.94893 66.8257 2.48284 65.3264C3.02315 63.827 4.3661 62.7151 5.64863 61.6814L14.4763 54.5955L30.8008 51.712C33.2698 51.7305 35.7972 51.9658 38.1554 51.3067C39.0867 51.0473 39.9924 50.6484 40.9636 50.6242C43.4518 50.5638 45.4837 52.939 47.9663 52.74C49.4905 52.6191 50.7091 51.5428 52.1487 51.0529C56.3432 49.6147 60.741 53.3749 65.1837 52.9085C67.0143 52.7158 69.118 51.8755 70.5185 52.9874C71.3397 53.6407 71.5281 54.7292 72.0627 55.5994C73.235 57.5096 75.8605 58.1445 78.2251 58.3016C80.5896 58.4587 83.0978 58.3564 85.1496 59.4626C86.1335 59.9766 86.4456 60.5361 86.6418 61.6146C87.2148 61.2698 87.7039 62.5758 87.7814 63.0173C88.0303 64.4846 87.0634 65.2538 86.9283 65.6285C86.8302 65.9491 86.9873 66.2819 87.202 66.5421C87.2084 66.5421 87.2084 66.5477 87.2084 66.5477C87.4295 66.8079 87.716 67.0134 87.9378 67.2672C88.5826 68.0045 88.5962 69.1597 87.9641 69.909C87.834 70.0605 87.684 70.2055 87.5859 70.3747C87.4352 70.6477 87.4871 70.8695 87.6122 70.9854C87.7402 71.1048 87.9208 71.1311 88.0743 71.1788C88.7 71.3778 89.091 72.061 88.9282 72.654Z" fill="#78E75A"/>
<path d="M9.30432 71.4376C10.0273 72.327 9.71026 73.6956 9.66903 74.8871C9.62495 76.149 9.94274 77.3889 10.2577 78.6031C10.685 80.2497 11.152 81.3075 12.9073 81.5407C17.2597 82.1201 20.7632 76.2897 22.5888 77.8161C22.8689 78.05 23.0211 78.4183 23.1789 78.7631C23.6126 79.7157 24.2766 80.6869 25.2364 80.839C27.0137 81.1205 28.1839 78.5164 29.9712 78.3365C31.5672 78.1773 33.0062 80.0257 34.5546 79.5736C35.525 79.2899 36.1527 78.173 37.126 77.8972C38.2834 77.5701 39.4429 78.5434 40.6359 78.4638C42.1097 78.365 43.1284 76.7405 44.5489 76.2954C45.6387 75.9542 46.8047 76.353 47.9351 76.2506C49.8453 76.0779 51.3845 74.5302 52.7623 73.0664C55.092 73.5548 57.1573 74.452 59.1522 75.8603C60.734 76.9765 60.2001 77.5758 60.6729 78.264C61.2836 79.1541 62.6137 78.3898 63.5735 78.7546C64.529 79.1178 64.7998 80.4338 65.4311 81.3025C66.4833 82.7514 68.8223 82.6818 69.802 81.1724C70.3281 80.3613 70.9124 79.0709 71.7378 79.4818C71.9781 79.602 72.1395 79.853 72.3535 80.0222C73.2777 80.7544 74.4884 79.7129 75.2228 78.7546L80.1873 72.2765C80.8556 71.4056 80.7518 70.7786 79.6449 70.5596C62.6166 67.1955 63.1846 66.9886 51.9561 67.1443C39.2354 67.3199 26.5125 67.0426 13.7903 67.0355C12.6023 67.0355 11.3419 67.0583 10.3359 67.7536C9.32991 68.4481 8.51305 70.4629 9.30432 71.4376Z" fill="#E0C18C"/>
<path d="M9.30432 71.026C10.0273 71.9161 9.71026 73.2839 9.66903 74.4754C9.62495 75.7373 9.94274 76.9772 10.2577 78.1922C10.685 79.8387 11.152 80.8959 12.9073 81.1298C17.2597 81.7085 20.7632 75.8781 22.5888 77.4045C22.8689 77.6391 23.0211 78.0066 23.1789 78.3522C23.6126 79.3048 24.2766 80.2759 25.2364 80.4281C27.0137 80.7096 28.1839 78.1055 29.9712 77.9256C31.5672 77.7656 33.0062 79.6141 34.5546 79.1626C35.525 78.8782 36.1527 77.7614 37.126 77.4862C38.2834 77.1585 39.4429 78.1318 40.6359 78.0521C42.1097 77.954 43.1284 76.3288 44.5489 75.8838C45.6387 75.5425 46.8047 75.9421 47.9351 75.8397C49.8453 75.6662 51.3845 74.1193 52.7623 72.6547C55.092 73.1431 57.1573 74.0411 59.1522 75.4487C60.734 76.5649 60.2001 77.1642 60.6729 77.8524C61.2836 78.7425 62.6137 77.9782 63.5735 78.3429C64.529 78.7069 64.7998 80.0229 65.4311 80.8909C66.4833 82.3398 68.8223 82.2701 69.802 80.7608C70.3281 79.9503 70.9124 78.6593 71.7378 79.0709C71.9781 79.1903 72.1395 79.4413 72.3535 79.6112C73.2777 80.3435 74.4884 79.3013 75.2228 78.3436L80.1873 71.8649C80.8556 70.994 80.7518 70.3669 79.6449 70.1487C62.6166 66.7845 63.1846 66.577 51.9561 66.7326C39.2354 66.909 26.5125 66.6317 13.7903 66.6246C12.6023 66.6239 11.3419 66.6466 10.3359 67.3419C9.32991 68.0372 8.51305 70.052 9.30432 71.026Z" fill="#FFDE9B"/>
<path d="M6.84007 71.2194C6.6012 71.7845 7.07255 72.4471 7.61499 72.6341C8.1553 72.8204 8.73969 72.7031 9.30701 72.7208C9.87434 72.7379 10.5156 72.9626 10.7324 73.5384C11.0573 74.4008 10.2326 75.4608 10.6571 76.2698C11.0666 77.0511 12.1166 76.7831 12.9335 76.6985C14.8246 76.5037 16.5095 77.8666 18.1475 78.9245C19.7848 79.9823 21.973 80.7445 23.4838 79.4797C24.1001 78.9636 24.622 78.1133 25.3962 78.1481C25.709 78.1623 25.9962 78.3266 26.2827 78.4631C27.0646 78.8301 27.9242 79.0014 28.7871 78.9621C29.65 78.9229 30.4904 78.6742 31.2358 78.2377C31.8408 77.8822 32.3925 77.4045 33.043 77.1642C34.6781 76.5613 36.5308 77.5886 38.1724 77.0064C39.6276 76.4909 40.8121 74.7612 42.3086 75.1075C43.3423 75.3463 43.9693 76.5016 44.8978 77.0547C47.7522 78.7538 50.9443 74.4036 53.9039 75.5994C54.3333 75.7722 54.7428 76.0622 55.2007 76.0544C55.8362 76.043 56.3268 75.4743 56.833 75.052C58.1503 73.95 60.0329 73.7311 61.5322 74.5046C62.2474 74.8743 62.8695 75.4437 63.6003 75.7772C64.118 76.0104 64.6834 76.1186 65.2507 76.0929C65.8179 76.0672 66.3712 75.9084 66.8657 75.6293C68.8854 74.4854 70.4509 79.12 74.1499 80.1494C75.4644 80.5148 76.9823 80.271 77.9505 79.2287C79.1805 77.9036 79.371 75.5447 80.8917 74.6539C81.951 74.0332 83.3401 74.3588 84.3411 73.6308C85.3819 72.8737 85.5241 71.0018 84.6113 70.0662C83.8335 69.27 82.6548 69.2437 81.5919 69.265L30.0343 70.2759C19.3205 70.4857 8.32592 69.7171 7.22753 70.3783C7.05691 70.4807 6.80026 71.0103 6.84007 71.2194Z" fill="#111D33" fill-opacity="0.12549"/>
<path d="M2.10666 69.6709C2.84603 69.3218 3.60459 68.9521 4.4115 68.972C5.21841 69.0019 6.08291 69.5308 6.20803 70.3598C6.25567 70.6598 6.19808 70.969 6.26491 71.269C6.52511 72.4272 8.09059 72.4272 9.21458 72.2274C10.3478 72.0376 11.9709 72.3767 11.8941 73.5661C11.8365 74.4142 10.7893 75.1138 11.0971 75.9122C13.2001 75.3434 15.2746 76.6913 17.1479 77.8203C19.0212 78.9578 21.432 79.9368 23.2662 78.7289C24.1883 78.1196 25.0435 76.9707 26.09 77.2807C26.4739 77.3909 26.7725 77.6802 27.1372 77.8495C28.3572 78.4395 29.7016 77.4798 30.9507 76.9608C33.5726 75.8823 36.6367 76.712 39.2686 75.6527C40.5078 75.1536 41.7462 74.2251 43.0529 74.5543C44.6383 74.9439 45.7232 77.1207 47.3078 76.7411C47.9512 76.5918 48.4219 76.0522 48.9409 75.6228C50.2468 74.5642 52.091 74.255 53.6472 74.8337C54.0503 74.9737 54.4442 75.1834 54.8672 75.1635C55.4815 75.1337 55.9713 74.6545 56.481 74.2749C58.4688 72.8068 61.4362 72.9966 63.2427 74.7043C63.665 75.1138 64.1172 75.6228 64.693 75.583C65.1253 75.5432 65.4708 75.1934 65.8554 74.9936C66.9694 74.3844 68.3522 75.0135 69.2842 75.8922C70.2063 76.7717 70.9173 77.9099 71.9645 78.6293C73.7219 79.8372 76.3054 79.5073 77.7273 77.8999C78.9373 76.5214 79.4079 74.3744 81.031 73.586C82.0875 73.0762 83.3273 73.3158 84.4982 73.3656C85.6706 73.4061 87.0441 73.0862 87.524 71.9778C88.178 70.4493 86.6787 68.8021 86.7562 67.1343C86.8912 64.2656 91.3943 62.9675 90.972 60.1436C90.6265 57.6973 86.9289 57.248 86.2272 54.8706C85.9784 54.0218 86.1704 53.0535 85.7665 52.2743C84.4314 49.7377 80.3208 52.3646 78.2456 50.9264C77.3334 50.2972 77.0156 49.7178 75.8639 50.197C74.4705 50.7963 73.7887 52.494 72.2524 52.934C70.7054 53.3627 69.0631 52.3646 67.4884 52.6838C65.8746 53.0037 64.7506 54.6012 63.1944 55.1308C61.6289 55.6498 59.9191 55.0313 58.3053 55.3207C56.759 55.5901 55.4331 56.6785 53.8968 56.9985C51.3801 57.5274 48.6814 55.9392 46.2898 56.8883C44.6376 57.5374 43.3984 59.3246 41.631 59.3851C40.4118 59.4348 39.3354 58.6258 38.193 58.1765C35.5895 57.1378 32.3818 58.1068 30.7196 60.433C30.4708 60.7828 30.2397 61.1724 29.875 61.3821C29.0006 61.9011 27.9249 61.1724 27.3199 60.3441C26.7149 59.5145 26.2151 58.4857 25.2739 58.1367C24.3518 57.7869 23.3238 58.2063 22.3633 58.0265C21.2208 57.8274 20.3755 56.8485 19.4627 56.1091C18.5506 55.3605 17.1962 54.8308 16.2741 55.5602C15.2177 56.3991 15.2554 58.4857 13.9593 58.7658C12.4507 59.0858 11.673 56.4482 10.1367 56.4589C8.71479 56.4688 8.11903 58.7253 6.69787 58.8952C5.79498 58.9948 5.06485 58.1964 4.35392 57.5971C3.65294 56.9978 2.49127 56.5989 1.92395 57.3376C1.94314 58.7054 3.48942 59.9041 2.98039 61.1724C2.80764 61.6217 2.41378 61.9217 2.07751 62.2508C0.0797827 64.2159 0.23761 67.8615 2.10594 69.6709H2.10666Z" fill="#A14A14"/>
<path d="M0.771484 67.1343C0.963437 68.0933 1.40493 68.992 2.10662 69.6709C2.84599 69.3218 3.60456 68.9521 4.41147 68.9721C5.21838 69.0019 6.08287 69.5308 6.208 70.3598C6.25563 70.6598 6.19804 70.9691 6.26487 71.2691C6.52507 72.4272 8.09055 72.4272 9.21454 72.2274C10.3478 72.0376 11.9708 72.3767 11.894 73.5661C11.8365 74.4143 10.7893 75.1138 11.0971 75.9122C13.2 75.3434 15.2745 76.6914 17.1479 77.8203C19.0212 78.9578 21.4319 79.9368 23.2662 78.7289C24.1882 78.1196 25.0435 76.9708 26.09 77.2807C26.4739 77.3909 26.7725 77.6803 27.1372 77.8495C28.3572 78.4396 29.7015 77.4798 30.9506 76.9608C33.5726 75.8823 36.6367 76.712 39.2686 75.6527C40.5077 75.1536 41.7462 74.2251 43.0529 74.5543C44.6383 74.9439 45.7231 77.1208 47.3078 76.7411C47.9512 76.5918 48.4218 76.0522 48.9408 75.6228C50.2468 74.5643 52.091 74.255 53.6472 74.8337C54.0503 74.9738 54.4442 75.1835 54.8672 75.1636C55.4814 75.1337 55.9713 74.6545 56.481 74.2749C58.4688 72.8068 61.4362 72.9966 63.2427 74.7043C63.665 75.1138 64.1171 75.6228 64.693 75.583C65.1252 75.5432 65.4708 75.1934 65.8554 74.9937C66.9694 74.3844 68.3522 75.0136 69.2842 75.8923C70.2063 76.7717 70.9172 77.9099 71.9644 78.6294C73.7219 79.8373 76.3054 79.5074 77.7273 77.9C78.9373 76.5215 79.4079 74.3744 81.031 73.586C82.0874 73.0763 83.3273 73.3159 84.4982 73.3656C85.6705 73.4061 87.0441 73.0862 87.5239 71.9779C88.178 70.4494 86.6786 68.8021 86.7561 67.1343C86.823 65.706 87.9661 64.6773 89.051 63.6393C88.8783 63.5995 88.7055 63.5092 88.542 63.4396C87.2744 62.9 85.6798 63.34 84.8252 64.4576C83.97 65.5766 83.9223 67.2843 84.7193 68.4531C85.3826 69.4313 86.5926 70.61 85.8525 71.5286C85.7281 71.8485 85.2283 71.7781 85.0271 71.4987C84.8252 71.2186 84.806 70.8496 84.6909 70.5198C84.2778 69.3915 82.75 69.0815 81.7227 69.651C79.5458 70.8781 79.762 73.8092 78.4666 75.433C77.804 76.252 76.5649 76.7113 75.7388 76.0821C74.5864 75.2034 74.6532 72.7265 73.2221 72.7471C72.6846 72.7571 72.2524 73.1865 71.7625 73.436C70.6485 73.9948 69.2942 73.5256 68.2562 72.8168C67.2289 72.098 66.3353 71.1489 65.2205 70.5994C63.5406 69.7811 61.5429 69.9809 59.8231 70.6989C58.1133 71.4184 56.6246 72.617 55.1643 73.7957C54.0603 72.4073 52.2637 70.8795 50.8134 71.8577C50.0549 72.3767 49.7285 73.4559 48.9024 73.8555C46.8272 74.8742 45.2625 70.7593 42.9761 71.0089C42.1208 71.1084 41.4483 71.8179 40.6321 72.1378C38.51 72.9668 36.2236 70.8994 33.9956 71.3089C32.5545 71.579 31.4981 72.7869 30.4125 73.8057C29.3269 74.8245 27.8673 75.7529 26.4838 75.2631C25.8212 75.0335 25.2838 74.4946 24.6212 74.255C21.6914 73.1765 18.6849 78.1097 15.9954 76.4916C14.9006 75.8425 14.5643 74.4142 14.1705 73.1765C13.7766 71.9281 12.9697 70.5603 11.7113 70.5397C10.8369 70.5198 10.0115 71.2086 9.147 71.0295C7.86021 70.7593 7.62916 68.9521 6.71703 67.9632C5.3627 66.4952 2.57726 66.8044 0.819117 66.2655C0.799922 66.5357 0.780727 66.825 0.771484 67.1343Z" fill="#843512"/>
<path opacity="0.3" d="M85.4787 62.3931C85.859 62.2367 86.2287 62.0369 86.4207 61.7262C86.6268 61.4205 86.6467 61.0529 86.4761 60.7949C85.569 59.3766 83.1184 62.1279 82.5091 59.0851C82.4764 58.8874 82.4103 58.6528 82.4743 58.3791C82.5027 58.2448 82.6058 58.0734 82.7721 58.0101C82.9364 57.9504 83.0579 57.9803 83.1532 57.9874C83.562 58.0365 83.9708 58.0834 84.3796 58.1587C82.9549 58.3891 82.9079 58.2185 82.8866 58.4587C82.8731 58.6955 83.1589 59.6339 83.4923 59.8522C83.958 60.2076 84.8452 59.6531 85.7275 59.7526C86.9027 59.8664 87.448 61.1631 86.6624 61.9246C86.3297 62.2594 85.8875 62.3703 85.4787 62.3931ZM80.3735 60.8077C81.6503 60.9172 81.5593 64.2422 80.9706 64.8764C80.8391 65.0228 80.559 65.1302 80.3358 64.9361C80.1651 64.7349 80.2071 64.5813 80.2135 64.469C80.2436 64.2279 80.2891 63.989 80.35 63.7538C80.4275 63.9912 80.4765 64.2159 80.5256 64.4341C80.5348 64.5479 80.6024 64.6531 80.6052 64.6147C80.4822 64.4804 80.7453 65.0882 80.7758 61.9978C80.7659 61.567 80.746 61.1283 80.3735 60.8077ZM71.2052 63.8889C72.3157 63.7581 72.8262 64.9766 71.8252 65.5055C71.6418 65.5837 71.4633 65.6122 71.282 65.6598C71.1285 65.6811 70.9195 65.7544 70.7239 65.6371C70.6414 65.5844 70.5796 65.5047 70.5491 65.4117C70.4709 65.0249 70.4701 64.7235 70.5014 64.3616C70.7183 64.6304 70.8811 64.9681 71.0041 65.2062C71.0168 65.219 71.0168 65.1934 70.9849 65.1678C70.9536 65.1465 70.9401 65.1486 70.9564 65.143C70.9948 65.1351 71.0844 65.0925 71.1448 65.0697C71.2756 65.0164 71.4271 64.9901 71.5429 64.9311C71.7719 64.8088 71.8167 64.7633 71.7825 64.5202C71.7456 64.2998 71.491 64.1021 71.2052 63.8889ZM79.9042 56.7994C80.2817 56.9985 80.527 57.3767 80.5306 57.8296C80.5036 58.4907 79.8922 58.8277 79.5992 58.5846C80.0564 58.2504 79.8125 57.408 79.9049 56.8001L79.9042 56.7994ZM65.9969 64.5614C65.7957 65.1557 65.3251 66.0046 65.532 66.7255C65.5405 66.808 65.6102 66.8918 65.5199 66.803C65.4275 66.7824 65.5576 66.803 65.655 66.7909C65.8519 66.7909 66.0488 66.7788 66.2493 66.7909C66.6546 66.798 67.0712 66.9046 67.1359 66.4369C67.2894 66.616 67.175 66.9459 66.9468 67.0781C66.6233 67.2722 66.0389 67.334 65.6756 67.3966C65.5725 67.3973 65.4851 67.4634 65.2064 67.3433C64.7727 67.0987 64.7613 66.1503 65.1197 65.5077C65.34 65.111 65.6493 64.8109 65.9969 64.5614ZM72.3307 71.6004C72.6335 71.6103 72.8397 72.1883 72.1828 72.6241C71.8721 72.831 71.4662 72.9071 71.1086 72.7862L70.901 72.7158C71.0012 72.4897 71.0382 72.4179 71.1 72.3355C71.1754 72.4307 71.2188 72.5274 71.265 72.6227L71.0979 72.4627C71.1334 72.4457 72.1543 71.9459 72.1885 71.9253C72.247 71.8969 72.2934 71.8486 72.3195 71.789C72.3456 71.7295 72.3495 71.6626 72.3307 71.6004ZM67.192 70.7103C66.8152 71.0665 66.5557 72.2032 66.7328 72.6312C66.7569 72.7307 66.8366 72.8104 66.9446 72.9853C67.1991 73.3286 67.0498 73.8028 66.6339 73.9912C66.8813 73.2177 66.5031 73.4417 66.1896 72.8992C65.6948 72.0155 66.4903 70.6733 67.192 70.7103ZM53.953 68.596C53.8521 68.6713 53.8912 68.8007 53.8805 68.9209L53.8776 69.2813C53.8457 71.3736 54.2089 71.7966 54.0198 72.2367C53.835 72.6454 53.3388 72.7215 52.8966 72.8374C52.8496 72.8267 52.7679 72.9298 52.5482 72.8218C52.3847 72.6618 52.4473 72.5644 52.4416 72.5146C52.48 72.2637 52.5176 72.017 52.5837 71.7802C52.6598 72.0241 52.7067 72.2587 52.7544 72.489C52.7515 72.5537 52.812 72.5971 52.7487 72.5139C52.6413 72.4713 52.6819 72.494 52.743 72.4471L53.0643 72.2779C53.6132 71.9935 53.4639 72.1165 53.3722 71.4546C53.2414 70.4181 53.4148 69.5067 53.7084 68.881C53.7589 68.7858 53.808 68.6102 53.953 68.596ZM50.8135 68.0841C50.5313 67.9988 50.2974 68.185 50.1929 68.3784C50.0038 68.7168 50.0045 69.56 50.1182 69.7903C50.1886 70.0008 50.4026 70.2219 50.4381 70.6712C50.4595 71.1546 50.0031 71.3899 49.863 71.5271C49.595 71.7205 49.8673 72.5694 49.4386 73.0201C49.1691 73.2689 48.8805 73.2675 48.621 73.3827C48.803 73.1573 49.1023 73.0237 49.1926 72.8246C49.2907 72.6412 49.2473 72.4073 49.2139 72.1272C49.0817 71.1759 49.5587 71.0217 49.735 70.8233C49.9035 70.6385 49.7116 70.4572 49.5488 69.9922C49.3938 69.474 49.5594 68.5796 49.949 68.1822C50.178 67.9476 50.596 67.8545 50.8135 68.0841ZM49.0341 66.2719C49.0852 65.8304 48.6679 65.5652 48.3942 65.487C47.8667 65.4586 47.7906 67.4208 48.3985 67.3284C48.5122 67.3248 48.6779 67.1243 48.6054 66.9139C48.8002 67.0525 48.8051 67.4172 48.5371 67.6106C48.2556 67.7869 47.8937 67.6675 47.7011 67.4457C47.1679 66.7945 47.2809 65.7579 47.6733 65.2695C48.5001 64.3161 49.5609 65.7885 49.0341 66.2719ZM45.9202 67.4414C46.6595 67.9831 46.7093 68.6308 46.346 69.11C46.0012 69.5515 45.6329 69.6005 45.6358 70.1991C45.6173 70.443 45.9273 70.8205 45.8469 71.2243C45.6742 70.8916 45.3209 70.7835 45.1495 70.3107C45.0066 69.9226 45.0841 69.4569 45.5043 69.0524C46.1299 68.505 46.2109 68.5668 45.9202 67.4414ZM38.4276 66.7305C38.9495 66.5655 39.494 67.1215 39.2239 67.6618C39.0141 68.1737 38.4618 68.254 38.2634 68.4723C38.0878 68.6152 37.9008 69.0694 37.4487 69.1263C36.9759 69.1903 36.5529 68.6813 36.7321 68.2433C36.8216 68.0038 37.0612 67.8232 37.2816 67.8715C36.9908 68.0222 36.9375 68.4687 37.2418 68.5761C37.3584 68.5917 37.3591 68.5853 37.448 68.4886C37.5404 68.3919 37.6314 68.2057 37.8226 68.008C38.0331 67.8203 38.2577 67.7379 38.4212 67.6639C39.0653 67.4236 38.9487 66.9288 38.4276 66.7305ZM36.3119 73.2483C36.6012 73.3777 36.8003 73.6834 36.8629 74.009C37.0833 75.0043 36.0396 75.8503 35.2384 75.4309C35.0379 75.3385 34.9832 75.0128 35.1637 74.9474C35.1069 75.3441 35.8562 75.0598 36.1356 74.6417C36.346 74.3652 36.4704 73.8405 36.3119 73.2483ZM18.6651 62.2601C19.086 62.0724 19.6767 62.3916 19.8047 62.9988C20.055 63.9386 18.8521 64.6268 18.7326 65.3548C18.6502 65.8667 19.1144 65.7089 19.45 65.8766C19.2246 65.91 19.049 66.0288 18.7568 66.006C18.493 65.9747 18.2577 65.7544 18.2335 65.3335C18.2193 64.7526 18.5599 64.3815 18.7952 63.9827C19.1052 63.6237 19.3142 63.4068 19.312 63.0649C19.317 62.8759 19.2546 62.6912 19.1362 62.5438C19.0177 62.3965 18.8508 62.2959 18.6651 62.2601ZM16.7818 61.6715C17.1359 61.4717 17.5838 61.9338 17.5311 62.3532C17.5255 62.7791 17.2297 63.1495 16.9318 63.3599C16.1356 63.9166 15.3585 64.2742 14.8303 64.5344L14.7919 64.1931C14.7421 63.7538 14.723 63.2974 15.0621 63.0016C15.1708 62.9071 15.3237 62.8516 15.4517 62.8864C15.2107 62.986 15.146 63.2341 15.1502 63.4282C15.1559 63.6372 15.2284 63.8462 15.3052 64.0822L14.9149 63.9116C16.4413 62.8253 16.9347 62.8616 17.1259 62.2978C17.2382 61.9537 17.0221 61.6793 16.7818 61.6715ZM19.9618 73.5014C20.0763 73.1367 20.136 72.7798 20.1524 72.4293C20.1694 72.0881 20.1289 71.6843 19.9903 71.6288C19.8595 71.5392 19.4812 71.5385 19.2082 71.6409C18.6267 71.8186 18.3302 72.2999 18.0508 72.5722C17.9115 71.8663 17.6911 71.0181 17.6513 69.9659C17.9996 70.5851 18.2556 71.2442 18.4895 71.9096L17.9904 71.8037C18.7994 70.6122 21.1278 70.4799 20.5355 72.4947C20.432 72.8732 20.2347 73.2195 19.9618 73.5014ZM11.8316 60.8311C11.6439 60.234 11.0154 60.3072 10.4097 60.4273C10.146 60.5197 10.1801 60.7458 9.8822 60.9989C9.67319 61.1909 9.29924 61.1496 9.13928 61.0515C8.95728 60.9641 8.83215 60.8617 8.72907 60.8055C8.28118 60.5304 7.62072 60.5702 7.13586 61.2065C7.01074 61.3473 6.9169 61.7362 6.65101 61.6899C6.5138 61.6729 5.97846 61.3814 5.89315 61.3345C6.33535 61.3629 6.77329 61.4411 6.64532 61.3978C6.65243 61.3722 6.70291 61.1411 6.77044 61.0003C6.87809 60.7537 7.04535 60.5376 7.25717 60.3716C7.469 60.2055 7.71876 60.0947 7.98401 60.0491C8.7703 59.9282 9.23525 60.4024 9.41085 60.4892C9.55304 60.5489 9.50612 60.5489 9.76845 60.2332C9.87936 60.0768 10.1388 59.9418 10.3208 59.9375C10.5903 59.9133 11.0368 59.9425 11.3069 60.0498C11.6361 60.1749 11.8877 60.5119 11.8316 60.8311ZM4.78125 64.2237C5.78011 64.7669 6.45194 65.9321 7.53043 66.1162C7.76859 66.1631 8.00391 66.1511 8.20298 66.0579C8.53427 65.9527 9.10088 65.032 9.55873 65.8446C9.63977 65.9968 9.67603 66.1176 9.74926 66.2001C9.89215 66.385 10.1801 66.493 10.4694 66.3963C10.254 66.6224 9.83955 66.6452 9.54238 66.4361C9.37104 66.3174 9.17269 65.9961 9.10871 65.9918C9.09093 65.9918 9.12648 66.0089 9.13146 66.0067C9.04767 66.103 8.95917 66.1951 8.86628 66.2826C8.75679 66.3928 8.64518 66.5129 8.471 66.6018C8.14112 66.7795 7.75438 66.8023 7.41526 66.7454C6.08226 66.4923 5.48365 65.1828 4.78125 64.2237ZM27.9968 72.5367C27.9918 72.0077 28.8179 71.6935 28.803 71.3494L28.7909 71.0551L29.1371 71.1475C29.4215 71.225 29.553 71.4006 29.6689 71.4973C29.7827 71.6167 29.8573 71.6373 29.8267 71.6217C29.8083 71.6359 29.9661 71.5435 30.0919 71.4411C30.7559 70.9484 31.4313 70.5055 32.1949 70.1885C31.7129 70.8532 31.0887 71.4276 30.4595 71.9487C30.3287 72.0376 30.2391 72.1904 29.89 72.2502C29.3753 72.2999 29.1563 71.7376 28.9985 71.6729L29.3326 71.4724C29.1336 72.1599 28.3089 72.0788 27.9968 72.5367ZM34.8452 69.5109C35.6735 69.0929 36.5501 70.0854 37.1885 70.3036C38.1617 70.6904 38.8606 70.2681 39.066 70.2922C39.1869 70.3434 39.2409 70.3847 39.4663 70.6584C39.3601 70.63 39.255 70.5975 39.1514 70.561C39.0902 70.5347 39.0661 70.5489 39.049 70.5396C39.0632 70.5453 39.039 70.5667 38.9893 70.6086C38.4091 71.0707 37.6492 71.1575 36.9574 70.9001C36.0645 70.5461 35.682 69.6446 34.8452 69.5109ZM22.8425 77.3931C22.2844 77.1819 21.0275 76.6423 20.9081 76.9402C20.8363 77.0113 20.6799 77.3284 20.3621 77.3454C20.2846 77.3519 20.2065 77.3457 20.131 77.3269C19.5481 77.1741 18.5449 76.9942 18.5336 76.3714C18.8606 76.7326 19.1755 76.616 20.2988 76.7319C20.2917 76.729 20.2604 76.7433 20.2668 76.739C20.2789 76.7319 20.3265 76.6494 20.4133 76.535C21.0026 75.7814 22.3193 76.5989 22.8425 77.3931ZM62.1373 71.3523C62.3179 71.2932 62.4984 71.4624 62.6008 71.5783C62.8397 71.8591 62.8887 72.0092 63.5592 72.0198C64.4606 72.061 64.6945 72.0973 65.3628 72.1016C64.9192 72.5708 64.1805 72.6653 63.535 72.6589C63.2186 72.6412 62.7814 72.5758 62.5141 72.2146C62.2596 71.8577 62.3954 71.5506 62.1373 71.3523ZM78.461 72.0994C78.7625 71.6871 78.7596 71.1525 79.0838 70.6769C79.221 70.4408 79.3881 70.2411 79.5438 70.0356C80.6173 68.7495 81.2714 69.8764 81.4278 69.9439C81.4704 69.9354 81.3858 70.0079 81.4583 69.9467C81.71 69.5372 82.0015 69.0872 82.3399 68.6926C82.2358 69.2042 82.0863 69.7055 81.8934 70.1906C81.7406 70.5347 81.3225 70.6577 80.8327 70.219C80.6315 70.0306 80.628 70.0512 80.4616 70.0818C80.1915 70.1515 79.8132 70.6484 79.4855 70.9705C79.0525 71.4511 78.8712 71.9359 78.461 72.0994ZM83.3715 70.7849C84.3888 70.4195 85.6912 70.6854 85.763 70.7245C85.8519 70.7807 86.0496 70.5183 86.1967 70.2667C86.3275 70.6271 86.2628 71.0522 85.9123 71.2008C85.5313 71.343 84.2153 71.262 83.3715 70.7849ZM81.9695 53.7495C82.7608 53.4474 83.8762 53.6244 84.5317 54.1633C83.749 54.4697 82.6179 54.2856 81.9695 53.7495ZM84.9007 54.2173C85.1388 54.1036 85.232 54.1213 85.291 54.1704C85.3351 54.2322 85.3436 54.3268 85.2071 54.5543C84.9689 54.668 84.8758 54.6503 84.8175 54.6005C84.7748 54.5372 84.7656 54.4441 84.9007 54.2173ZM75.7716 60.197C75.2668 60.3022 72.3818 60.8354 71.1171 61.2833C70.5619 61.5136 70.4986 61.8606 70.1623 61.9686C70.0123 62.0219 69.8118 61.9807 69.7493 61.8442C69.868 61.9274 70.0002 61.8769 70.0848 61.8087C70.1666 61.7404 70.2234 61.6324 70.2803 61.5136C70.5981 60.7671 71.5785 60.4899 72.4686 60.2411C73.5485 59.9851 74.6902 59.9176 75.7716 60.197ZM24.0525 75.4913C23.7731 75.4081 23.4411 75.2823 23.2997 74.9083C23.1738 74.5294 23.4035 74.0993 23.7703 73.9379C24.7322 73.5768 25.8867 74.2415 26.4448 74.9482C26.6567 75.2396 26.8088 75.8226 26.2941 76.1404C26.1761 76.1932 26.0431 76.2024 25.9189 76.1664C25.7947 76.1303 25.6873 76.0513 25.6159 75.9435C25.3656 75.5773 25.6742 75.0761 26.1121 75.0676C26.282 75.0591 26.4299 75.1067 26.5721 75.1572C26.2685 75.1771 25.9699 75.2603 25.9095 75.4785C25.8725 75.578 25.9003 75.6591 25.9465 75.6854C25.9948 75.7245 26.0744 75.7181 26.0602 75.6996C26.056 75.6641 26.1541 75.5396 25.9628 75.3157C25.7367 75.0555 25.1481 74.6261 24.6554 74.4697C23.9395 74.2258 23.5862 74.5166 23.6047 74.8408C23.6018 75.0662 23.8307 75.2937 24.0525 75.4913Z" fill="white"/>
<path d="M87.3022 46.8492C87.3022 57.7983 68.8534 66.675 46.0872 66.675C23.6878 66.675 5.44594 58.0905 4.88075 47.3604C4.86653 47.0568 4.87222 48.0571 4.87222 39.3304L6.54504 39.6226L6.63249 41.112C11.747 32.9505 27.4792 27.0241 46.0872 27.0241C63.07 27.0241 77.6555 31.958 83.9643 39.0247L83.9487 38.805L87.2304 38.4694C87.3299 49.951 87.3022 45.9947 87.3022 46.8492Z" fill="#EF9D43"/>
<path d="M87.3051 39.6218C87.3051 50.5752 68.8507 59.4512 46.0887 59.4512C23.6872 59.4512 5.44886 50.8588 4.88225 40.1323C4.87158 39.9616 4.87158 39.7924 4.87158 39.6218C4.87158 28.6692 23.3267 19.7932 46.0887 19.7932C68.6239 19.7932 86.9447 28.4993 87.2944 39.3012C87.3051 39.4149 87.3051 39.5088 87.3051 39.6218Z" fill="#FFB04F"/>
<path opacity="0.3" d="M24.5767 55.3044C24.5767 55.3044 43.9866 66.2961 49.3513 73.2484C49.3513 73.2484 57.9301 65.5738 60.3679 64.7875L60.5919 64.5615L60.0338 63.7311C60.0338 63.7311 57.7958 60.3897 60.8826 59.1861C62.9536 58.3785 65.3103 59.1207 66.9341 60.5006C66.9341 60.5006 79.448 53.2249 85.4845 51.8571L24.5767 55.3044Z" fill="#111D33"/>
<path d="M86.84 45.4749C86.84 45.4841 86.84 45.4934 86.8307 45.5033C86.8115 45.5886 86.7931 45.674 86.7838 45.7685C85.4999 47.4506 85.0847 49.7583 85.6413 51.82C81.4063 52.7876 75.2311 54.9502 67.1144 59.7121C66.6217 59.1433 65.925 58.6976 65.1081 58.4224C61.7746 57.3063 57.858 59.5294 58.7652 62.5103C58.9692 63.1644 59.415 63.753 60.0278 64.208C56.9068 66.333 53.564 68.8085 49.9887 71.6728C49.7193 71.8918 49.3389 71.8818 49.0972 71.6351C46.1063 68.6471 27.4208 51.0045 1.16602 49.705C1.23498 49.6339 2.36038 48.3727 3.43247 47.3624C3.58888 47.2508 22.3206 27.9077 46.2918 27.9077H46.8123C58.923 27.9077 72.6213 32.4037 86.84 45.4749Z" fill="#DBA660"/>
<path d="M86.8481 45.684C85.8421 46.9601 85.3388 48.6841 85.4063 50.1046C80.8009 50.9648 74.0413 53.1076 65.1127 58.4225C61.5388 57.2239 57.8789 59.7093 58.7648 62.5061C55.9229 64.4734 53.1527 66.5424 50.4596 68.709C50.1681 68.9429 49.753 68.9315 49.4856 68.6685C46.4741 65.6982 28.7306 49.2486 3.4292 47.3604C3.50029 47.3085 21.3263 27.9099 46.6817 27.9099H46.8147C58.8806 27.9632 72.5668 32.4755 86.8332 45.4998L86.8474 45.684H86.8481Z" fill="#FFDE9B"/>
<path opacity="0.58" d="M77.4947 50.6179C79.885 50.6179 81.8228 49.8142 81.8228 48.8228C81.8228 47.8313 79.885 47.0276 77.4947 47.0276C75.1043 47.0276 73.1665 47.8313 73.1665 48.8228C73.1665 49.8142 75.1043 50.6179 77.4947 50.6179Z" fill="#DBA660"/>
<path d="M77.5725 50.6179C79.3484 50.6179 80.788 50.0207 80.788 49.2842C80.788 48.5476 79.3484 47.9504 77.5725 47.9504C75.7966 47.9504 74.3569 48.5476 74.3569 49.2842C74.3569 50.0207 75.7966 50.6179 77.5725 50.6179Z" fill="#FFD06C"/>
<path opacity="0.58" d="M53.1204 59.7708C53.3936 58.8194 51.7495 57.5124 49.4481 56.8517C47.1468 56.1909 45.0598 56.4265 44.7866 57.3779C44.5134 58.3293 46.1576 59.6362 48.4589 60.297C50.7602 60.9578 52.8473 60.7222 53.1204 59.7708Z" fill="#DBA660"/>
<path d="M52.0023 59.928C52.2052 59.2212 50.9838 58.2503 49.2743 57.7594C47.5647 57.2685 46.0143 57.4436 45.8113 58.1505C45.6084 58.8573 46.8297 59.8283 48.5393 60.3191C50.2489 60.81 51.7993 60.6349 52.0023 59.928Z" fill="#FFD06C"/>
<path d="M20.5148 46.8862C23.3987 46.8862 25.7366 45.9167 25.7366 44.7207C25.7366 43.5247 23.3987 42.5552 20.5148 42.5552C17.6309 42.5552 15.293 43.5247 15.293 44.7207C15.293 45.9167 17.6309 46.8862 20.5148 46.8862Z" fill="#EAC44E"/>
<path d="M20.6086 46.8854C23.0724 46.8854 25.0697 46.0572 25.0697 45.0356C25.0697 44.0139 23.0724 43.1857 20.6086 43.1857C18.1448 43.1857 16.1475 44.0139 16.1475 45.0356C16.1475 46.0572 18.1448 46.8854 20.6086 46.8854Z" fill="#FFD06C"/>
<path opacity="0.3" d="M20.1125 54.073C23.5328 56.4255 27.7778 56.6963 31.8145 56.7063C33.4127 56.7105 35.0109 56.6835 36.6083 56.6267C39.2146 56.5328 40.4744 56.3295 44.0205 52.88C45.0443 54.5123 46.518 55.7998 48.1958 56.53C50.3016 57.4464 55.6144 58.3564 57.9897 58.6663C60.4189 58.9834 62.8972 58.6663 65.2824 58.072C68.4418 57.2843 71.4107 56.0679 72.8198 53.1111C66.0178 53.2028 59.2147 53.1596 52.4145 52.9817C50.9749 52.944 49.4656 52.8793 48.2222 52.0802C47.3996 51.552 46.7342 50.7238 45.8405 50.3612C44.9974 50.0192 45.0606 50.1102 33.3466 49.9872C23.5677 50.433 24.0774 50.3875 23.7418 50.4707C22.1302 50.8652 21.6638 53.0066 20.1125 54.073Z" fill="#111D33"/>
<path d="M30.7424 55.9236C38.9159 55.9236 45.5419 52.7368 45.5419 48.8057C45.5419 44.8746 38.9159 41.6878 30.7424 41.6878C22.5688 41.6878 15.9429 44.8746 15.9429 48.8057C15.9429 52.7368 22.5688 55.9236 30.7424 55.9236Z" fill="#36712D"/>
<path d="M44.9959 46.8008H45.5362V48.9891H44.9959V46.8008ZM15.9429 47.0845H16.4832V48.7772H15.9429V47.0845Z" fill="#36712D"/>
<path d="M30.7424 54.1171C38.9159 54.1171 45.5419 50.9303 45.5419 46.9992C45.5419 43.0681 38.9159 39.8813 30.7424 39.8813C22.5688 39.8813 15.9429 43.0681 15.9429 46.9992C15.9429 50.9303 22.5688 54.1171 30.7424 54.1171Z" fill="#6AB550"/>
<path d="M44.3495 46.9992C44.3495 50.6143 38.2568 53.5441 30.7422 53.5441C23.2248 53.5441 17.1328 50.6143 17.1328 46.9992C17.1328 43.3841 23.2255 40.4543 30.7422 40.4543C38.2568 40.4543 44.3495 43.3841 44.3495 46.9992Z" fill="#DEF7CD"/>
<path d="M20.936 45.1849C21.3647 46.0594 26.6576 46.4547 28.9546 46.5855C29.5006 46.6175 29.962 46.3949 29.8966 46.1326C29.6236 45.0278 28.8003 42.4827 26.9832 42.2765C24.9023 42.0405 20.4447 44.1846 20.936 45.1849ZM40.5478 45.1849C40.1191 46.0594 34.8262 46.4547 32.5292 46.5855C31.9839 46.6175 31.5225 46.3949 31.5872 46.1326C31.8602 45.0278 32.6834 42.4827 34.5006 42.2765C36.5822 42.0405 41.0398 44.1846 40.5478 45.1849ZM40.5478 48.8135C40.1191 47.9398 34.8262 47.5438 32.5292 47.413C31.9839 47.3817 31.5225 47.6035 31.5872 47.8659C31.8602 48.9707 32.6834 51.5158 34.5006 51.722C36.5822 51.958 41.0398 49.8138 40.5478 48.8135ZM20.936 48.8135C21.3654 47.9398 26.6576 47.5438 28.9553 47.413C29.5006 47.3817 29.962 47.6035 29.8966 47.8659C29.6236 48.9707 28.8003 51.5158 26.9839 51.722C24.9023 51.958 20.4447 49.8138 20.936 48.8135Z" fill="#CDE4A7"/>
<path d="M36.0596 50.9464C35.7546 51.3175 33.4931 49.0795 33.7988 48.7077C34.1038 48.3366 36.3653 50.5739 36.0596 50.9464ZM38.2095 49.0383C38.0943 49.5217 34.9413 48.6145 35.0572 48.1304C35.1724 47.647 38.3246 48.5541 38.2095 49.0383ZM27.1111 45.5973C26.9959 46.0808 24.0512 45.2348 24.1664 44.7506C24.2816 44.2672 27.227 45.1132 27.1111 45.5973ZM28.1291 44.9383C27.8234 45.3101 25.9722 43.4766 26.2772 43.1055C26.5821 42.7337 28.4341 44.5672 28.1291 44.9383ZM23.5514 49.8445C23.3652 49.3873 26.1449 48.0245 26.3312 48.4809C26.5167 48.938 23.7363 50.3009 23.5514 49.8445ZM26.6255 50.913C26.2309 50.6627 27.3862 48.4667 27.7801 48.7162C28.1746 48.9665 27.0201 51.1632 26.6255 50.913Z" fill="#DDF6CB"/>
<path d="M34.9093 44.3739C35.4735 43.9694 35.8349 43.5078 35.7166 43.3428C35.5984 43.1778 35.0451 43.372 34.481 43.7765C33.9168 44.181 33.5554 44.6426 33.6736 44.8076C33.7919 44.9726 34.3452 44.7784 34.9093 44.3739Z" fill="#DDF6CB"/>
<path d="M35.6121 45.5623C36.2435 45.4651 36.7296 45.2193 36.6979 45.0132C36.6662 44.8071 36.1286 44.7189 35.4972 44.816C34.8658 44.9132 34.3797 45.1591 34.4114 45.3651C34.4431 45.5712 34.9807 45.6595 35.6121 45.5623Z" fill="#DDF6CB"/>
<path d="M59.1945 57.5965C67.3681 57.5965 73.9941 54.4097 73.9941 50.4786C73.9941 46.5475 67.3681 43.3607 59.1945 43.3607C51.021 43.3607 44.395 46.5475 44.395 50.4786C44.395 54.4097 51.021 57.5965 59.1945 57.5965Z" fill="#36712D"/>
<path d="M73.449 48.473H73.9893V50.6612H73.449V48.473ZM44.396 48.7573H44.9363V50.4501H44.396V48.7573Z" fill="#36712D"/>
<path d="M59.1945 55.7899C67.3681 55.7899 73.9941 52.6032 73.9941 48.6721C73.9941 44.741 67.3681 41.5542 59.1945 41.5542C51.021 41.5542 44.395 44.741 44.395 48.6721C44.395 52.6032 51.021 55.7899 59.1945 55.7899Z" fill="#6AB550"/>
<path d="M72.8019 48.672C72.8019 52.2864 66.7099 55.2162 59.1946 55.2162C51.6779 55.2162 45.5859 52.2864 45.5859 48.672C45.5859 45.0562 51.6779 42.1265 59.1946 42.1265C66.7099 42.1265 72.8019 45.0562 72.8019 48.672Z" fill="#DEF7CD"/>
<path d="M49.3887 46.857C49.8174 47.7314 55.1103 48.1267 57.4073 48.2575C57.9526 48.2895 58.414 48.0677 58.3493 47.8047C58.0763 46.7006 57.2531 44.1547 55.4359 43.9486C53.3543 43.7125 48.8967 45.856 49.3887 46.857ZM69.0005 46.857C68.5711 47.7314 63.2789 48.1267 60.9812 48.2575C60.4359 48.2895 59.9745 48.0677 60.0399 47.8047C60.3129 46.7006 61.1355 44.1547 62.9526 43.9486C65.0342 43.7125 69.4918 45.856 69.0005 46.857ZM69.0005 50.4856C68.5718 49.6119 63.2789 49.2159 60.9819 49.0851C60.4359 49.0538 59.9745 49.2756 60.0399 49.5379C60.3129 50.6427 61.1362 53.1879 62.9526 53.3947C65.0342 53.6308 69.4918 51.4866 69.0005 50.4856ZM49.3887 50.4863C49.8174 49.6119 55.1103 49.2159 57.4073 49.0851C57.9526 49.0538 58.414 49.2756 58.3493 49.5379C58.0763 50.6427 57.2531 53.1879 55.4359 53.3947C53.3543 53.6308 48.8967 51.4866 49.3887 50.4863Z" fill="#CDE4A7"/>
<path d="M64.5124 52.6184C64.2067 52.9903 61.9459 50.7515 62.2516 50.3797C62.5559 50.0086 64.8174 52.2466 64.5124 52.6192V52.6184ZM66.6616 50.7096C66.5464 51.193 63.3941 50.2873 63.5093 49.8031C63.6244 49.3197 66.7774 50.2254 66.6616 50.7096ZM55.5639 47.2694C55.4487 47.7528 52.5033 46.9068 52.6192 46.4227C52.7344 45.9392 55.679 46.7852 55.5639 47.2694ZM56.5812 46.6111C56.2762 46.9822 54.4242 45.1494 54.7299 44.7768C55.0342 44.4057 56.8862 46.2392 56.5812 46.6111ZM52.0035 51.5165C51.818 51.0594 54.5984 49.6965 54.7833 50.1536C54.9695 50.6101 52.1891 51.9736 52.0035 51.5165ZM55.0783 52.5857C54.6837 52.3348 55.839 50.1387 56.2329 50.389C56.6274 50.6392 55.4722 52.8346 55.0783 52.5857Z" fill="#DDF6CB"/>
<path d="M63.362 46.0426C63.9261 45.6381 64.2876 45.1765 64.1693 45.0115C64.051 44.8465 63.4978 45.0407 62.9336 45.4452C62.3694 45.8497 62.008 46.3113 62.1263 46.4763C62.2446 46.6413 62.7978 46.4471 63.362 46.0426Z" fill="#DDF6CB"/>
<path d="M64.0662 47.2438C64.6976 47.1466 65.1837 46.9008 65.152 46.6947C65.1203 46.4887 64.5827 46.4004 63.9513 46.4976C63.3199 46.5947 62.8338 46.8406 62.8655 47.0466C62.8972 47.2527 63.4348 47.341 64.0662 47.2438Z" fill="#DDF6CB"/>
<path opacity="0.3" d="M5.64532 47.9C6.72238 47.9853 7.84281 47.5936 8.863 47.9804C10.1789 48.4787 10.8266 50.0471 11.6136 51.309C12.734 53.1062 14.4559 54.5195 16.416 54.8523C18.376 55.1843 20.5415 54.2927 21.583 52.4393C22.1824 51.3744 22.5748 49.9006 23.691 49.6454C24.3962 49.4847 25.0936 49.9191 25.8095 50.0058C28.28 50.3058 30.2529 46.5621 32.6274 47.3683C33.8943 47.7991 34.6422 49.4264 35.9468 49.6873C36.6591 49.8295 37.3771 49.5238 38.0987 49.4563C39.5704 49.3198 40.946 50.1708 42.299 50.8227C43.6519 51.4746 45.2955 51.9239 46.5461 51.0594C47.1895 50.6144 47.6644 49.8551 48.3945 49.6219C49.0343 49.4172 48.9014 49.4883 59.7005 51.2898C62.0309 51.6786 64.3642 52.0682 66.657 52.6676C69.2739 53.3515 72.2812 54.233 74.4524 52.4884C75.3098 51.7988 75.9844 50.7246 77.026 50.4935C77.7397 50.335 78.472 50.6194 79.2007 50.6016C79.9287 50.5838 80.7747 50.0207 80.6702 49.2295C80.5863 48.5967 79.9379 48.205 79.8199 47.5787C79.6422 46.6289 80.7548 46.0047 81.6371 46.0466C83.1947 46.1199 84.6017 46.8237 85.2898 44.1001L86.6897 43.975C87.4077 43.038 86.802 41.4853 85.8074 40.9322C84.8121 40.3798 83.6298 40.5234 82.5229 40.6691C56.6747 44.0688 30.4278 41.0459 4.5192 43.8406C4.2206 43.8818 3.6419 46.0907 3.7457 46.4767C3.96964 47.3121 4.90594 47.8417 5.64532 47.9Z" fill="#111D33"/>
<path d="M88.8933 43.4076C88.1539 43.0592 87.3953 42.6895 86.5884 42.7087C85.7815 42.7393 84.917 43.2682 84.7919 44.0972C84.7443 44.3965 84.8019 44.7064 84.735 45.0057C84.4748 46.1646 82.9093 46.1646 81.7854 45.9648C80.6521 45.775 79.0291 46.1141 79.1059 47.3028C79.1634 48.1516 80.2106 48.8505 79.9028 49.6496C77.7999 49.0808 75.7254 50.4288 73.852 51.557C71.9787 52.6959 69.568 53.6742 67.7337 52.4656C66.8117 51.857 65.9564 50.7082 64.9099 51.0181C64.526 51.1276 64.2274 51.417 63.8627 51.5869C62.6427 52.1769 61.2984 51.2172 60.0493 50.6982C57.4273 49.6197 54.3632 50.4487 51.7313 49.3901C50.4922 48.891 49.2537 47.9618 47.947 48.2917C46.3616 48.6813 45.2768 50.8582 43.6921 50.4785C43.0487 50.3292 42.5781 49.7896 42.0591 49.3602C40.7531 48.3016 38.9089 47.9917 37.3527 48.5711C36.9496 48.7111 36.5557 48.9209 36.1327 48.901C35.5185 48.8711 35.0286 48.3912 34.5189 48.0123C32.5311 46.5442 29.5637 46.7333 27.7572 48.441C27.3349 48.8505 26.8828 49.3602 26.3069 49.3204C25.8747 49.2806 25.5291 48.9308 25.1445 48.7303C24.0305 48.1218 22.6477 48.751 21.7157 49.6297C20.7936 50.5084 20.0827 51.6473 19.0355 52.3661C17.278 53.5746 14.6945 53.2448 13.2726 51.6373C12.0626 50.2588 11.592 48.1118 9.96893 47.3227C8.91248 46.8137 7.67261 47.0532 6.50099 47.103C5.32937 47.1428 3.95585 46.8236 3.47597 45.7153C2.82191 44.1868 4.32127 42.5395 4.24378 40.8717C4.1087 37.9974 -0.394359 36.7042 0.0279359 33.8811C0.37345 31.434 4.07102 30.9847 4.77271 28.6081C5.02154 27.7592 4.82959 26.7909 5.2334 26.0117C6.56853 23.4751 10.6792 26.1013 12.7544 24.6631C13.6665 24.0339 13.9843 23.4545 15.136 23.9344C16.5294 24.5337 17.2112 26.2307 18.7475 26.6708C20.2945 27.1002 21.9368 26.102 23.5115 26.4212C25.1253 26.7411 26.2493 28.3386 27.8056 28.8675C29.371 29.3865 31.0808 28.768 32.6946 29.0574C34.2409 29.3275 35.5668 30.4152 37.1031 30.7352C39.6199 31.2648 42.3186 29.6766 44.7101 30.6257C46.3624 31.2748 47.6015 33.0621 49.3689 33.1218C50.5882 33.1715 51.6645 32.3632 52.807 31.9132C55.4104 30.8752 58.6182 31.8435 60.2803 34.1704C60.5291 34.5202 60.7602 34.9098 61.1249 35.1195C61.9994 35.6385 63.075 34.9098 63.68 34.0808C64.285 33.2519 64.7848 32.2232 65.7261 31.8734C66.6481 31.5243 67.6762 31.9438 68.6366 31.7639C69.7791 31.5641 70.6244 30.5852 71.5372 29.8465C72.4494 29.0972 73.8037 28.5682 74.7258 29.297C75.7822 30.1359 75.7446 32.2232 77.0406 32.5033C78.5492 32.8225 79.327 30.1856 80.8633 30.1956C82.2851 30.2055 82.8809 32.4635 84.3021 32.6327C85.2049 32.7322 85.9351 31.9338 86.646 31.3345C87.347 30.7352 88.5087 30.3356 89.076 31.075C89.0568 32.4428 87.5105 33.6415 88.0195 34.9098C88.1923 35.3591 88.5862 35.6584 88.9224 35.9883C90.9202 37.9533 90.7623 41.5982 88.894 43.4083L88.8933 43.4076Z" fill="#A14A14"/>
<path d="M90.2283 40.8717C90.0363 41.83 89.5948 42.7293 88.8931 43.4083C88.1538 43.0585 87.3952 42.6888 86.5883 42.7087C85.7814 42.7393 84.9169 43.2682 84.7918 44.0972C84.7441 44.3965 84.8017 44.7064 84.7349 45.0057C84.4747 46.1646 82.9092 46.1646 81.7852 45.9648C80.652 45.775 79.0289 46.1141 79.1057 47.3028C79.1633 48.1516 80.2105 48.8505 79.9027 49.6496C77.7997 49.0808 75.7252 50.4287 73.8519 51.557C71.9786 52.6959 69.5678 53.6742 67.7336 52.4656C66.8115 51.857 65.9563 50.7081 64.9098 51.0181C64.5259 51.1276 64.2273 51.4169 63.8626 51.5869C62.6426 52.1769 61.2982 51.2172 60.0491 50.6982C57.4272 49.6197 54.3631 50.4486 51.7312 49.3901C50.492 48.891 49.2536 47.9618 47.9469 48.2917C46.3615 48.6813 45.2766 50.8581 43.6919 50.4785C43.0485 50.3292 42.5779 49.7896 42.0589 49.3602C40.7529 48.3016 38.9088 47.9917 37.3525 48.5711C36.9494 48.7111 36.5556 48.9209 36.1326 48.9009C35.5183 48.8711 35.0285 48.3912 34.5188 48.0123C32.531 46.5442 29.5635 46.7333 27.7571 48.441C27.3348 48.8505 26.8826 49.3602 26.3068 49.3204C25.8745 49.2806 25.529 48.9308 25.1444 48.7303C24.0303 48.1218 22.6476 48.7509 21.7155 49.6297C20.7935 50.5084 20.0825 51.6473 19.0353 52.366C17.2779 53.5746 14.6944 53.2448 13.2725 51.6373C12.0625 50.2588 11.5918 48.1118 9.96878 47.3227C8.91233 46.8136 7.67246 47.0532 6.50084 47.103C5.32922 47.1428 3.9557 46.8236 3.47582 45.7152C2.82176 44.1867 4.32112 42.5395 4.24363 40.8717C4.1768 39.4434 3.03362 38.4147 1.94873 37.376C2.12149 37.3362 2.29424 37.2466 2.45776 37.1769C3.72535 36.6366 5.31998 37.0774 6.17452 38.195C7.02978 39.314 7.07741 41.0217 6.28045 42.1897C5.61715 43.1687 4.40714 44.3467 5.14722 45.2659C5.27164 45.5852 5.77142 45.5148 5.97262 45.2354C6.17452 44.956 6.19372 44.5863 6.30889 44.2571C6.72194 43.1282 8.24974 42.8189 9.27704 43.3884C11.4539 44.6147 11.2378 47.5466 12.5331 49.1704C13.1957 49.9894 14.4349 50.4486 15.261 49.8195C16.4134 48.9408 16.3466 46.4639 17.7777 46.4838C18.3151 46.4937 18.7474 46.9231 19.2372 47.1734C20.3513 47.7322 21.7056 47.263 22.7436 46.5542C23.7709 45.8347 24.6645 44.8863 25.7792 44.3368C27.4592 43.5178 29.4569 43.7182 31.1767 44.4363C32.8865 45.1557 34.3751 46.3544 35.8354 47.5324C36.9395 46.1447 38.736 44.6161 40.1863 45.5951C40.9449 46.1141 41.2712 47.1933 42.0973 47.5928C44.1718 48.6109 45.7373 44.4967 48.0237 44.7462C48.8782 44.8458 49.5508 45.5553 50.3676 45.8745C52.4898 46.7034 54.7761 44.6368 57.0042 45.0463C58.4453 45.3157 59.5017 46.5243 60.5873 47.5423C61.6729 48.5611 63.1324 49.4903 64.5159 49.0005C65.1785 48.7708 65.716 48.232 66.3786 47.9917C69.3083 46.9132 72.3149 51.8471 75.0043 50.229C76.0992 49.5799 76.4354 48.1516 76.8293 46.9132C77.2232 45.6648 78.0301 44.2969 79.2884 44.277C80.1629 44.2571 80.9883 44.946 81.8528 44.7662C83.1396 44.496 83.3706 42.6888 84.2827 41.7006C85.6371 40.2325 88.4225 40.5418 90.1799 40.0029C90.1998 40.2731 90.219 40.5617 90.2283 40.8717Z" fill="#843512"/>
<path opacity="0.3" d="M5.52133 36.1305C3.44113 36.0167 3.57123 33.6543 5.2725 33.4901C6.16543 33.3884 7.03561 33.9493 7.50768 33.5896C7.84395 33.3692 8.12619 32.4272 8.11339 32.1962C8.09206 31.9552 8.04443 32.1258 6.62043 31.8962C7.02922 31.8201 7.438 31.7732 7.84608 31.7248C7.94206 31.7177 8.06363 31.6878 8.22785 31.7476C8.39421 31.8101 8.49659 31.9822 8.52573 32.1165C8.58972 32.3903 8.5236 32.6249 8.49019 32.8225C7.8802 35.8703 5.43459 33.1083 4.52389 34.533C4.35326 34.7904 4.37388 35.1586 4.57934 35.4636C4.77129 35.7736 5.14098 35.9741 5.52133 36.1305ZM10.6265 34.5451C10.254 34.865 10.2341 35.3037 10.2234 35.7352C10.227 36.0836 10.2128 37.8182 10.4118 38.2924C10.419 38.3244 10.4282 38.3159 10.3948 38.3521C10.3976 38.3905 10.4652 38.2846 10.4744 38.1716C10.5235 37.9526 10.5725 37.7287 10.65 37.4905C10.714 37.718 10.7502 37.9597 10.7865 38.2057C10.7936 38.3187 10.8356 38.4716 10.6642 38.6735C10.441 38.8669 10.1616 38.7602 10.0294 38.6138C9.39592 37.9313 9.3881 34.651 10.6265 34.5451ZM13.9381 35.5233C14.0561 36.4404 14.162 37.3575 14.5836 38.1097C15.1587 39.1455 15.8818 39.7889 16.6631 41.6829C16.8493 42.1549 17.0676 42.8545 16.7399 43.2867C16.3382 43.7311 14.7066 43.3074 14.2552 42.0639C14.7393 42.6853 15.3671 42.9697 15.9152 42.9953C16.3524 43.0009 16.4349 42.932 16.3631 42.9597C16.3275 43.0308 16.4128 42.8602 16.3297 42.5076C16.2761 42.306 16.2015 42.1106 16.1071 41.9246C14.6078 38.6664 13.498 38.6614 13.9381 35.5233ZM19.7947 37.6263C19.5082 37.8396 19.2544 38.0372 19.2175 38.2576C19.1833 38.5007 19.2281 38.5462 19.4571 38.6685C19.5736 38.7275 19.7244 38.7538 19.8552 38.8064C19.9156 38.8292 20.0052 38.8718 20.0436 38.8804C20.0599 38.8861 20.0464 38.8832 20.0151 38.9045C19.9831 38.9301 19.9831 38.9557 19.9959 38.9436C20.1189 38.7055 20.2817 38.3678 20.4986 38.0991C20.5299 38.4609 20.5299 38.7616 20.4502 39.1491C20.3919 39.3247 20.249 39.4385 20.008 39.4399C19.8673 39.4377 19.3789 39.3304 19.1748 39.2422C18.1866 38.7211 18.6587 37.4926 19.7947 37.6263ZM11.0951 30.5368C11.1868 31.1411 10.945 31.9886 11.4008 32.3213C11.2159 32.4756 10.9074 32.3775 10.7481 32.2104C10.286 31.7788 10.4083 30.9001 11.0951 30.5368ZM25.0023 38.2988C26.4505 39.3368 26.2749 40.8084 25.7936 41.0807C25.5149 41.2016 25.4275 41.1347 25.3244 41.1333C24.9305 41.0665 24.3774 41.0096 24.0532 40.8148C23.8257 40.6826 23.7106 40.3527 23.8634 40.1743C23.9288 40.6421 24.3447 40.5354 24.7507 40.529C24.9512 40.5162 25.1481 40.5283 25.345 40.5283C25.4424 40.5397 25.5725 40.5198 25.4801 40.5397C25.3265 40.6918 25.672 40.3641 25.4218 39.4385C25.3216 39.0766 25.1417 38.7076 25.0023 38.2988ZM18.6693 45.3378C18.5954 45.6364 18.8784 45.6826 19.1329 45.8233L19.9021 46.2001L19.7357 46.3601C19.7812 46.2641 19.8246 46.1682 19.9 46.0729C19.9561 46.1475 19.9888 46.2065 20.099 46.4532C20.0222 46.4625 19.4571 46.7874 18.8172 46.3608C18.1731 45.9343 18.3601 45.3477 18.6693 45.3378ZM23.808 44.4477C24.5552 44.4072 25.2775 45.8027 24.8104 46.636C24.4912 47.1883 24.1179 46.953 24.3661 47.7287C23.948 47.5388 23.8016 47.0639 24.0554 46.7227C24.1741 46.5307 24.3248 46.3957 24.3241 46.0359C24.3426 45.6357 24.1485 44.7705 23.808 44.4477ZM37.047 42.3341C37.3221 42.3604 37.5674 43.4147 37.6101 43.692C37.6897 44.1884 37.6957 44.6939 37.6278 45.192C37.5361 45.8532 37.3861 45.7316 37.9357 46.0153L38.257 46.1845C38.3181 46.2314 38.3587 46.208 38.2513 46.2513C38.1873 46.3345 38.2492 46.2911 38.2456 46.2264C38.2933 45.9961 38.3402 45.7615 38.4163 45.5176C38.4824 45.7544 38.52 46.0011 38.5584 46.252C38.5527 46.3018 38.6153 46.3992 38.4518 46.5592C38.2321 46.6672 38.1504 46.5634 38.1034 46.5741C37.5148 46.4127 37.1501 46.3494 36.9802 45.9734C36.7918 45.5354 37.1181 45.497 37.1195 42.6576C37.1088 42.5381 37.1479 42.4094 37.047 42.3341ZM41.9659 40.0093C41.4313 39.5181 42.5063 38.0614 43.326 39.0069C43.5065 39.2301 43.589 39.496 43.6302 39.7363C43.7753 41.1596 42.9591 41.6587 42.4629 41.3473C42.1942 41.1554 42.1998 40.7899 42.3946 40.6506C42.3221 40.8617 42.4871 41.0622 42.6008 41.0651C43.1944 41.1575 43.1461 39.196 42.6065 39.2237C42.3321 39.302 41.9148 39.5678 41.9659 40.0093ZM45.0798 41.1781C44.7883 42.3042 44.8715 42.2431 45.4957 42.7898C45.9131 43.1908 45.9898 43.6692 45.8512 44.0481C45.6792 44.5202 45.3258 44.6283 45.1531 44.9617C45.072 44.5579 45.3827 44.1797 45.3642 43.9365C45.3663 43.3443 44.9945 43.2839 44.654 42.8467C44.295 42.3739 44.3341 41.7248 45.0798 41.1781ZM52.5724 40.4679C52.0449 40.6684 51.9354 41.161 52.5788 41.4013C52.7423 41.4753 52.9669 41.5577 53.1774 41.7454C53.3693 41.9431 53.4603 42.1293 53.5513 42.2253C53.6402 42.3227 53.6416 42.3291 53.7582 42.3135C54.0625 42.2068 54.0092 41.7589 53.7184 41.6089C53.9388 41.5599 54.1784 41.7405 54.2679 41.98C54.4926 42.5303 53.7774 43.2199 53.1276 42.6583C52.9328 42.4706 52.8368 42.2907 52.7366 42.209C52.5375 41.9921 51.983 41.9033 51.7761 41.3985C51.5074 40.861 52.0484 40.3015 52.5724 40.4679ZM54.6881 46.9857C54.2459 48.6351 55.9123 49.2237 55.8363 48.6849C56.0168 48.7503 55.9621 49.0759 55.7616 49.1683C55.3194 49.3993 54.7073 49.2515 54.3419 48.7481C53.8904 48.0955 54.1492 47.2274 54.6881 46.9857ZM72.3349 35.9975C71.8799 36.0999 71.6809 36.4739 71.688 36.8023C71.6865 37.1443 71.8941 37.3611 72.2048 37.7194C72.4401 38.119 72.7807 38.4901 72.7664 39.0702C72.7586 39.2088 72.7316 39.3645 72.6349 39.5003C72.3264 39.9496 71.8145 39.6532 71.55 39.614C71.8842 39.4463 72.3498 39.6027 72.2674 39.0922C72.2148 38.7723 71.9155 38.4545 71.7072 38.1218C71.4633 37.7962 71.0289 37.3604 71.1953 36.7355C71.3225 36.1319 71.9126 35.8091 72.3349 35.9975ZM76.8031 36.7845C76.8031 36.3985 77.2674 36.0907 77.6456 36.3438C78.2797 36.7632 78.0658 37.6775 77.8766 38.3905C77.5681 39.3489 77.0697 39.3915 77.01 39.4925C76.9212 39.656 77.2851 40.6264 76.1861 40.7764C75.0173 40.8902 74.5957 40.6861 74.3725 41.0793C74.371 40.4039 76.1519 40.4508 76.3652 40.138C76.4662 40.0015 76.3097 39.6937 76.4157 39.2998C76.506 38.9714 76.8124 38.8761 76.8863 38.815C77.246 38.596 77.4181 37.878 77.5745 37.322C77.6349 37.0526 77.6179 36.7724 77.4558 36.5919C77.3257 36.4013 76.9396 36.476 76.8031 36.7845ZM79.1684 34.5686C79.1115 34.2501 79.3639 33.9116 79.6931 33.7865C79.8566 33.7225 80.0258 33.6977 80.1858 33.682C80.5839 33.6514 80.9927 33.6337 81.2315 33.9707C81.3489 34.1114 81.432 34.2337 81.479 34.2522C81.6929 34.292 82.0584 33.6394 83.016 33.7858C83.5776 33.8804 84.0184 34.2579 84.2296 34.7378C84.2971 34.8785 84.3476 35.1096 84.3547 35.1345C84.2281 35.1771 84.6803 35.0989 85.1068 35.0712C85.0251 35.1167 84.4862 35.4103 84.349 35.4267C84.0831 35.4722 83.99 35.0854 83.8641 34.9432C83.3935 34.3261 82.7366 34.2565 82.2716 34.543C82.1678 34.5984 82.0427 34.7008 81.8607 34.7882C81.7008 34.887 81.3275 34.9283 81.1178 34.7363C80.8185 34.4811 80.8569 34.2572 80.5896 34.164C79.9839 34.0439 79.3561 33.9721 79.1684 34.5686ZM80.5633 38.1993C80.3045 37.723 80.2476 36.8371 80.8071 36.766C81.206 36.7113 81.4114 37.059 81.5813 37.0654C82.0299 37.1905 82.6733 36.4561 83.3153 36.5407C82.7821 36.9246 82.3953 37.8438 81.4448 37.6903C81.1796 37.6327 81.0062 37.4414 80.9095 37.3739C80.8604 37.3291 80.842 37.3298 80.8754 37.3213C80.9017 37.3135 80.9045 37.2758 80.8697 37.3078C80.7709 37.408 80.6322 37.9668 80.5633 38.1993ZM76.3581 46.0956C76.0382 45.6264 75.2234 45.7267 75.0222 45.0314L75.3564 45.2318C75.227 45.2852 74.964 45.8568 74.4649 45.8091C74.1158 45.7494 74.0255 45.5966 73.8961 45.5077C73.2606 44.9816 72.6428 44.4129 72.16 43.7467C72.9257 44.0652 73.5975 44.5074 74.263 45.0001C74.3881 45.1032 74.5473 45.1949 74.5282 45.1807C74.4976 45.1963 74.5715 45.1757 74.686 45.0563C74.8019 44.9589 74.9327 44.7833 75.2178 44.7072L75.564 44.6141L75.5512 44.9077C75.5362 45.2724 76.3631 45.5468 76.3581 46.0956ZM56.1548 43.2483C55.3251 43.3799 54.9355 44.2835 54.0433 44.6368C53.3572 44.8927 52.5958 44.811 52.0107 44.3453C51.961 44.3041 51.9375 44.2828 51.951 44.2771C51.9339 44.2856 51.9098 44.2721 51.8486 44.2984C51.745 44.3348 51.6399 44.367 51.5337 44.3951C51.7484 44.1363 51.8152 44.0794 51.934 44.0297C52.0946 44.0105 52.8695 44.415 53.8115 44.041C54.4585 43.8192 55.3244 42.8289 56.1548 43.2483ZM62.2133 48.7311C61.892 49.2479 61.1597 49.2856 60.5519 49.1477C60.1523 49.041 59.6725 48.8363 59.622 48.8022C59.5808 48.7901 59.6156 48.7567 59.5751 48.7645C59.4883 48.7901 59.307 49.0631 59.1947 48.938C59.3198 48.8839 59.236 48.7339 59.3362 48.5612C59.4784 48.2249 60.3528 48.4481 60.7055 48.527C61.2152 48.6529 61.6233 48.7858 62.2133 48.7311ZM48.948 46.5812C48.3011 46.6651 47.7373 46.685 47.1828 46.7568C47.16 46.7597 47.2205 46.7568 47.2766 46.6928C47.325 46.6324 47.3214 46.5791 47.3193 46.5862C47.3093 46.5947 47.3463 46.6914 47.3235 46.8563C47.2983 46.9844 47.2346 47.1017 47.141 47.1926C47.0474 47.2836 46.9283 47.3438 46.7996 47.3654C46.3069 47.44 46.1491 47.1556 45.8206 47.1414C46.0844 46.9011 46.5429 47.0142 46.6453 46.8912C46.7292 46.8343 46.747 46.7753 46.7221 46.781C46.7214 46.7924 46.7072 46.7397 46.6937 46.5976C46.6854 46.4812 46.7232 46.3663 46.7988 46.2776C46.8745 46.1889 46.982 46.1335 47.0982 46.1234C47.7522 46.0565 48.4226 46.1746 48.948 46.5812ZM28.862 45.0897C28.6046 45.288 28.7411 45.5951 28.4852 45.9513C28.2186 46.3132 27.7814 46.3786 27.465 46.3964C26.823 46.402 26.083 46.3096 25.6379 45.839C26.3019 45.834 26.5373 45.7985 27.4408 45.7572C27.7252 45.753 27.9563 45.7224 28.1177 45.6165C28.3203 45.4864 28.5499 44.9873 28.862 45.0897ZM7.62853 44.5216C6.77826 45.0029 5.45308 45.0747 5.08766 44.9375C4.73574 44.7882 4.67318 44.361 4.80328 44.0041C4.95045 44.2557 5.14808 44.5181 5.23695 44.4612C5.31515 44.4185 5.88035 44.3546 5.95642 44.3439C6.50526 44.3083 7.05837 44.3176 7.62853 44.5216ZM5.56754 39.0602C5.65143 38.5114 6.38511 38.0017 6.9567 38.04C7.61858 38.104 7.97618 38.8007 8.26624 39.3979C8.28402 39.4242 8.38995 39.4384 8.47668 39.4569C8.65441 39.5003 8.83215 39.5422 9.00988 39.6126C8.8293 39.6851 8.37004 39.8259 8.15818 39.8032C7.79418 39.7491 7.48777 39.11 7.16003 38.815C6.9631 38.6244 6.81523 38.5853 6.48606 38.6564C6.16756 38.7389 5.85902 38.8192 5.56754 39.0602ZM9.0305 27.4869C8.38355 28.0223 7.25174 28.2071 6.46829 27.9007C7.12306 27.3625 8.23852 27.1834 9.0305 27.4869ZM6.0986 27.9547C6.23439 28.1801 6.22515 28.2747 6.18249 28.3386C6.1242 28.3884 6.03106 28.4055 5.79219 28.291C5.56896 27.9199 5.68768 27.7578 6.0986 27.9547ZM15.2284 33.9337C16.9354 33.4936 19.0198 33.9451 20.1132 34.5778C20.6941 34.9027 20.6848 35.352 20.9152 35.5461C20.9998 35.6143 21.132 35.6648 21.2507 35.5816C21.1882 35.7181 20.9877 35.7594 20.8377 35.7053C20.5 35.598 20.4609 35.2596 19.8829 35.0207C18.6203 34.5728 15.7616 34.0453 15.2284 33.9337ZM66.9475 49.228C67.1693 49.0311 67.3982 48.8036 67.3953 48.5782C67.4074 48.3649 67.229 48.1815 67.0449 48.1374C66.4363 47.9874 65.4239 48.6088 65.0372 49.0524C64.8452 49.2778 64.9448 49.4008 64.9398 49.4363C64.9263 49.4555 65.0052 49.4619 65.0535 49.4221C65.0997 49.3958 65.1275 49.3155 65.0905 49.2159C65.0301 48.997 64.7315 48.9138 64.4279 48.8946C64.7905 48.7652 65.1232 48.7424 65.3592 49.0538C65.709 49.4911 65.2234 50.1032 64.7052 49.8778C64.1912 49.5593 64.3426 48.9771 64.5552 48.6856C65.1132 47.9796 66.2628 47.3128 67.2297 47.6753C67.5965 47.8367 67.8262 48.2668 67.7003 48.645C67.5581 49.019 67.2269 49.1448 66.9475 49.228Z" fill="white"/>
<path opacity="0.1" d="M16.8818 22.172C16.1609 23.4254 15.273 25.5248 16.2349 26.6061C16.7354 27.1699 17.538 27.1983 18.2539 27.1862C19.7902 27.1613 19.6303 26.4668 19.8748 26.1411C20.1322 25.7999 20.6419 25.9421 21.0102 25.7594C21.5029 25.5155 21.596 24.7783 21.4759 24.2003C21.355 23.6223 21.0934 23.0621 21.1375 22.4706C21.1815 21.8791 21.7517 21.2848 22.2266 21.5677C22.8352 21.9303 22.6525 23.1801 22.7968 23.8555C22.9212 24.4377 23.475 25.0122 23.9613 24.7427C24.1177 24.656 24.235 24.4953 24.3964 24.4185C24.7455 24.2522 25.1514 24.555 25.3199 24.9304C25.4877 25.3058 25.5005 25.7395 25.5972 26.144C26.2192 28.7588 30.3526 29.1818 28.7807 25.5411C28.4487 24.7733 28.1274 23.7659 28.6677 23.1566C29.1184 22.6476 29.9175 22.787 30.45 23.1908C30.9825 23.5946 31.3607 24.1982 31.8647 24.6432C32.9304 25.5816 34.3957 25.6947 35.7607 25.7665C36.2228 25.7914 36.8626 25.635 36.8356 25.1266C36.8214 24.8423 36.6202 24.6759 36.9003 24.3759C37.5935 23.633 38.9478 23.9458 39.3104 24.9318C39.4397 25.2852 39.454 25.6783 39.5755 26.0352C39.8912 26.958 40.8417 27.4166 41.7282 27.5708C42.383 27.6853 43.1921 27.6057 43.5049 26.963C43.9421 26.0644 43.0086 24.7854 43.3087 23.2341C43.4466 22.5161 43.9137 21.8322 44.567 21.6807C44.9843 21.5848 45.5225 21.8322 45.536 22.3C45.5502 22.8047 44.9637 23.1609 45.0106 23.6628C45.0575 24.1583 45.6405 24.3091 46.0941 24.3332C48.4188 24.4562 49.9993 24.4676 51.0436 25.1316C51.2761 25.2795 51.4915 25.4629 51.7418 25.5696C52.7797 26.0103 53.9414 25.0314 55.0405 24.9859C55.6348 24.961 55.7123 25.2809 55.8794 25.8027C56.1687 26.6985 56.901 27.4038 57.747 27.6014C57.9646 27.6526 58.1935 27.6746 58.3869 27.7962C59.3032 28.377 60.4827 28.301 61.5406 28.3237C62.0489 28.3351 62.6411 28.2704 62.9176 27.8019C63.1203 27.4585 63.0776 27.0149 63.0932 26.6061C63.1089 26.1966 63.2482 25.7196 63.6051 25.6044C63.881 25.5162 64.1632 25.6812 64.4412 25.7565C66.3934 26.2883 67.4463 23.0315 68.6172 23.028C68.9208 23.0273 69.2357 23.328 69.1689 23.6536C69.0878 24.0446 68.4899 24.2415 68.657 25.4067C68.7985 26.3878 69.5656 27.2701 70.4699 27.3C71.3728 27.3305 72.233 26.3374 72.029 25.3705C71.8939 24.7321 71.3756 24.2166 71.3721 23.5619C71.3685 22.9078 71.9053 22.3789 72.4769 22.1926C73.4423 21.8784 74.6018 22.3021 75.0476 21.8009C75.3163 21.4987 75.2779 20.8489 76.5135 20.8106C77.5746 20.7819 78.6221 21.054 79.535 21.5954C79.7092 21.6985 79.9502 21.7995 80.0796 21.636C80.2417 21.4312 80.0085 21.1497 79.8485 20.9428C79.4597 20.4359 79.5016 19.6923 79.3011 19.0673C78.9769 18.0592 78.0236 17.4301 77.0652 17.2424C76.1069 17.054 75.1244 17.2239 74.1575 17.3455C71.6657 17.6583 69.1511 17.6512 66.6429 17.6419C37.0802 17.5424 50.3604 17.4798 38.7565 17.3142C34.8322 17.258 26.9764 17.1165 22.8409 18.4844C20.6462 19.2095 18.106 20.0442 16.8818 22.172Z" fill="black"/>
<path opacity="0.3" d="M3.53795 30.3264C2.92157 31.663 2.30804 33.2988 3.01328 34.5821C3.51165 35.4892 4.54535 35.8916 5.51079 35.8937C6.96252 35.8966 8.49245 35.1238 9.09106 35.3108C10.0366 35.6065 9.73801 37.2182 10.2868 38.1133C10.7447 38.8583 11.7727 38.9436 12.4957 38.5221C13.218 38.0998 13.6944 37.3099 14.0946 36.5258C14.3648 37.0824 14.9726 37.4151 15.5392 37.3163C14.8958 38.3294 14.2219 39.4712 14.3697 40.6954C14.4984 41.7625 15.3224 42.6817 16.2921 42.8389C17.2618 42.9967 18.2934 42.3789 18.6979 41.3985C19.3449 41.9886 20.3807 41.1852 20.4937 40.2695C20.6061 39.3546 20.1759 38.4808 19.888 37.6135C19.8191 37.4073 19.7579 37.1855 19.8048 36.9729C19.947 36.3295 20.9011 36.4355 21.2267 36.9928C21.5516 37.5502 21.4969 38.2654 21.6056 38.9166C21.7151 39.5679 22.1701 40.2831 22.7645 40.17C23.0175 40.1217 23.2365 39.9269 23.4925 39.9041C23.9524 39.8629 24.2923 40.384 24.4024 40.876C24.6662 42.0455 24.4017 42.9682 26.5921 43.2775C26.8324 43.3116 27.0848 43.3429 27.3116 43.2484C28.0126 42.9569 27.9287 41.8172 27.5633 41.0992C27.1978 40.3812 26.6604 39.6148 26.8808 38.8285C27.1367 37.9114 28.2934 37.6853 29.0932 38.0699C29.8937 38.4552 30.4745 39.2287 31.1741 39.8032C32.1324 40.5895 33.3424 40.999 34.5368 40.9421C35.348 40.9037 35.3473 40.5511 35.6245 40.0506C36.1577 39.0837 37.7005 39.1626 38.1505 40.1793C38.5955 41.1845 38.0076 42.6576 41.1606 42.9782C41.6255 43.0251 42.1154 43.0685 42.5405 42.8573C42.9664 42.6469 43.287 42.0867 43.1043 41.6146C42.9955 41.3324 42.7438 41.1547 42.5419 40.9421C41.5395 39.8871 42.0521 37.6881 43.3929 37.2921C44.0882 37.7159 43.5714 39.0524 44.1216 39.683C44.4757 40.089 45.0721 39.9909 45.5819 39.9347C46.8026 39.7996 48.0602 40.1025 49.1181 40.785C49.5461 41.0622 49.9556 41.4042 50.4404 41.5187C51.9618 41.8755 53.7143 39.9318 54.9015 41.0352C55.5463 41.6345 55.5399 42.8502 56.2594 43.3344C56.6845 43.6202 57.1047 43.5804 60.5058 43.8818C61.1122 43.9358 61.7706 43.9756 62.276 43.6045C62.7822 43.2348 62.9479 42.2786 62.4289 41.931L64.0328 41.8883C65.3871 41.8528 65.9708 39.4875 66.6874 39.2366C67.0201 39.1214 67.3464 39.5024 67.3941 39.8821C67.4417 40.2617 67.3158 40.6392 67.2746 41.0196C67.1644 42.022 67.7239 43.0834 68.5884 43.4268C69.4529 43.7709 70.5314 43.3159 70.9224 42.4023C71.4471 41.1753 70.7767 38.4723 71.1684 37.7258C71.4485 37.194 72.1239 37.15 72.6806 37.2083C73.2372 37.2666 73.8835 37.3291 74.2716 36.8876C74.6449 36.4625 74.6911 35.6549 75.2115 35.5113C75.7625 35.3591 76.1144 36.1013 76.4414 36.6118C76.9476 37.3988 77.8732 37.8325 78.7406 37.6874C79.6079 37.5431 80.3743 36.8272 80.6444 35.9101C80.7866 35.4281 80.798 34.9084 80.943 34.4271C81.0874 33.9458 81.4265 33.4744 81.8872 33.4396C82.1403 33.4204 82.3834 33.5356 82.6194 33.6379C84.0833 34.2702 85.7034 34.448 87.2696 34.1484C87.736 34.0581 87.8398 33.8939 87.928 33.3905C88.3161 31.1603 87.6152 30.5959 85.9629 30.5966L52.2689 30.6222C41.59 30.6293 30.8272 31.134 20.1475 31.0701C16.4457 31.1092 12.699 31.2833 8.99864 31.1994C7.83271 31.1724 7.8519 31.0253 7.11893 30.7516C6.08239 30.3641 4.3996 30.4302 3.53795 30.3264Z" fill="#111D33"/>
<path d="M88.5199 32.8268C88.1907 33.2277 87.7037 33.2512 87.2601 33.2512L83.8455 33.2754C83.4267 33.2754 82.9028 32.9825 83.0293 32.4969C82.8916 32.4798 82.7527 32.4745 82.6142 32.4812C79.8728 32.4102 80.2382 34.4484 79.8728 35.4451C79.4789 36.5457 78.2263 36.8841 77.5317 36.0743C77.2743 35.7757 77.0952 35.3584 76.8449 35.052C75.9641 33.9671 74.2536 34.816 74.1242 36.3957C70.6278 36.3957 70.7458 36.3452 70.5524 36.4753C70.5453 36.4753 70.5311 36.4824 70.524 36.4909C70.0569 36.8677 69.5571 39.0446 69.9083 40.925C70.0264 41.5506 70.0932 42.253 69.4498 42.253C67.5488 42.0632 67.4592 38.9053 69.1135 38.3145C67.9668 37.5531 66.2556 37.8716 65.2837 39.3602C65.005 39.7847 64.7541 40.3115 64.346 40.4608C63.6016 40.7437 62.7286 39.6041 62.1058 40.2091C61.5542 40.7359 61.8691 42.0021 61.4326 42.6782C61.1823 43.055 60.7743 43.1417 60.4017 43.1815C59.3638 43.2832 58.3045 43.1815 57.2878 42.8744C55.7337 42.4087 56.1859 41.2911 56.0856 40.7124C55.9349 39.7456 54.9759 39.5252 54.2315 39.5181C53.158 39.5017 51.9764 39.5408 51.1958 40.5077C50.3946 39.3133 49.0488 39.1477 47.8459 39.1875C46.6508 39.2266 45.3626 39.3602 44.324 38.5505C44.6993 37.9249 44.9752 37.1329 45.0761 36.2783C44.346 36.4831 43.5156 36.4433 42.7855 36.648C41.1823 37.0931 41.4262 39.8799 42.0404 41.4596C41.2748 42.9846 39.063 42.0959 39.063 40.2646C39.0773 39.2465 39.2905 38.5789 38.254 38.3777C37.4741 38.2206 36.6722 38.0628 35.9129 38.3301C35.1543 38.5974 34.4455 39.3993 34.3815 40.4373L29.5707 37.4891C28.9841 37.1272 28.3329 36.766 27.7172 37.0255C26.9651 37.3398 26.5783 38.5114 26.6437 39.5494C26.7148 40.5944 27.13 41.53 27.531 42.4265C27.5239 42.4336 27.5168 42.4336 27.5096 42.4336C27.044 42.7642 26.4646 42.7486 25.9989 42.45C25.037 41.8634 24.8429 40.2127 25.369 39.2031C25.3761 39.1953 25.3761 39.1875 25.3832 39.1797C25.3761 39.1718 25.3619 39.1719 25.3548 39.1719V39.1633C24.9059 38.9575 24.4142 38.8623 23.9209 38.8857C23.4276 38.909 22.9471 39.0503 22.5196 39.2977C21.5655 38.6898 22.3177 36.3864 21.4959 35.5155C20.8233 34.7925 19.7925 35.8461 19.6496 36.9779C19.5067 38.1815 19.8415 39.2408 19.8067 40.4217C19.1199 40.3747 18.4324 40.893 18.1104 41.695C17.4236 41.8051 16.7006 41.8997 16.0558 41.5535C15.4188 41.2001 14.9112 40.2404 15.1394 39.3681C15.4287 38.2455 16.7966 37.3846 16.2847 36.3885C15.4551 36.7895 14.4171 36.0743 14.1875 34.934C14.1164 34.5721 14.1164 34.1719 13.9443 33.8725C13.6009 33.2675 12.8921 33.4958 12.3483 33.7467C9.88631 34.8814 7.13712 35.2439 4.39505 34.5806C3.99409 34.4861 3.53624 34.297 3.39264 33.7943C3.17793 33.0315 3.85119 32.3156 3.87963 31.5066C3.92228 30.4053 2.87721 29.9027 2.06106 29.7292C2.92058 28.6913 3.17793 26.8677 2.66251 25.4764C2.40515 24.7925 1.98285 24.211 1.86128 23.4638C1.66222 22.2075 2.51534 21.0501 3.32154 21.0501C4.13769 21.0501 4.80313 21.8834 5.5688 22.2374C6.3423 22.5829 7.50183 21.8677 7.22244 20.8532C8.58245 21.1603 9.52018 23.3223 9.02679 25.0356C9.78535 26.3964 11.3743 25.9321 12.5488 25.2795C13.7218 24.6268 15.2325 23.9906 16.1347 25.1849C16.557 25.7437 16.7006 26.5613 16.9437 27.2765C17.3156 28.3856 17.9604 29.3204 18.7474 29.9262C19.5003 30.4935 20.3968 30.7793 22.1549 31.4511C27.671 33.5683 27.9362 30.5504 29.1775 29.1086C29.6638 28.542 30.4444 28.2434 30.9527 28.7702C31.2605 29.3204 31.1098 30.2169 30.6449 30.5233C31.3316 30.9798 32.0838 31.4433 32.8345 31.2471C33.5867 31.058 34.2166 29.8629 33.8014 29.0062C33.5227 28.4247 32.9426 28.291 32.4556 28.0393C31.9693 27.7877 31.4745 27.1037 31.7113 26.4824C31.8691 26.0658 32.2622 25.9478 32.6063 25.8696C33.9806 25.5546 35.7558 25.4921 36.3857 27.1428C36.5719 27.6149 36.6217 28.173 36.8435 28.6131C37.5886 30.0598 39.4064 29.1711 40.5091 30.1145C40.3655 30.8461 40.0939 31.5293 39.7214 32.0959C41.7191 32.7642 44.3886 33.055 45.2979 30.5944C45.4408 30.2013 45.534 29.7449 45.77 29.4385C46.0423 29.0773 46.4575 28.9977 46.8435 28.9273C47.4457 28.8334 48.104 28.7467 48.6123 29.179C49.1206 29.6119 49.2706 30.7906 48.7339 31.1682C48.9983 32.4336 50.5233 31.7817 51.0245 30.6492C51.5257 29.5174 51.9196 27.9526 52.8999 27.8197C53.9877 27.6704 54.4747 30.1856 53.4651 30.7515C56.2499 31.1134 58.8846 28.409 61.6622 28.8015C62.6497 28.9436 63.6514 29.4776 64.6112 29.1242C65.5631 28.7702 66.1859 26.8364 65.3342 26.1596C65.8709 25.3662 66.8158 25.1217 67.5317 25.5944C68.2547 26.058 68.6834 27.2061 68.5412 28.2512C69.6858 28.5029 70.9392 28.7311 71.948 27.9682C72.7073 27.3945 73.1936 26.3487 73.881 25.6257C74.5614 24.9098 75.6918 24.619 76.2292 25.539C76.3864 25.8141 76.4724 26.176 76.6658 26.412C77.2096 27.0803 78.1978 25.8376 77.7322 25.0826C77.4528 24.6276 76.9373 24.5956 76.5726 24.2579C75.7352 23.4872 76.5726 21.3253 77.5324 21.781C78.4054 22.1898 78.4765 23.7702 78.5128 25.0044C78.5412 26.2464 79.0353 27.8502 79.9581 27.654C80.7671 27.4805 80.9747 26.0971 81.1397 25.0278C81.3046 23.9586 82.0561 22.6853 82.7578 23.259C82.8217 23.8882 82.8928 24.5174 82.9582 25.1537C83.2583 24.383 83.559 23.6131 83.8526 22.8346C84.8195 21.9701 86.3722 23.2355 86.215 24.7761C87.2601 25.4131 88.1978 24.9183 88.8562 23.66C89.0069 24.6034 89.8017 25.2013 89.9083 26.1525C90.0519 27.3554 89.0495 28.2434 88.849 29.4228C88.65 30.5688 89.1732 31.9864 88.5199 32.8268Z" fill="#78E75A"/>
<path d="M10.5877 34.4072C8.5615 35.0129 6.44292 35.0754 4.39543 34.5806C3.99446 34.4861 3.53662 34.297 3.39301 33.7943C3.17831 33.0315 3.85157 32.3156 3.88 31.5066C3.92266 30.4053 2.87759 29.9027 2.06143 29.7292C2.92095 28.6913 3.17831 26.8677 2.66288 25.4764C2.40553 24.7925 1.98323 24.2109 1.86166 23.4638C1.69672 22.4258 2.29107 21.3096 3.05674 21.0892C3.34467 21.4056 2.73469 21.9957 2.5989 22.3945C1.80265 24.7733 4.0293 26.8172 3.22879 28.928C3.1648 29.1007 3.07096 29.2813 3.11433 29.4619C3.17831 29.7136 3.44349 29.8081 3.64397 29.9496C4.05916 30.256 4.20917 30.8617 4.19495 31.4198C4.16651 32.1613 3.89138 33.0493 4.05205 33.5029C4.15869 33.7858 4.4452 33.9436 4.71748 33.9671C5.63459 34.0453 5.5962 33.3145 9.84332 33.9671C10.213 34.0211 10.4412 34.0858 10.5877 34.4072Z" fill="#5EC363"/>
<path d="M7.55372 33.5541C8.18147 33.9657 8.94501 34.1271 9.49243 34.6582C10.079 35.2262 10.3093 36.1064 10.7302 36.8301C11.1518 37.5538 12.0035 38.1602 12.6852 37.7415C12.9675 37.5687 13.1509 37.2581 13.3301 36.963C15.2617 33.7951 16.6892 34.8786 17.4819 34.8708C18.1772 34.8636 18.7794 34.3745 19.4249 34.0894C20.5766 33.5804 21.9587 33.7532 22.9774 34.5338C23.9934 35.3108 24.255 36.0573 26.3558 35.5724C28.2718 35.1302 30.534 34.4122 31.9814 35.8611C32.1705 36.0495 32.344 36.2763 32.585 36.3687C33.6087 36.7625 35.1771 34.2202 37.1634 34.3745C38.3692 34.4684 39.341 35.539 40.5268 35.7935C41.8499 36.0772 43.1431 35.3115 44.4192 34.8324C45.6946 34.3532 47.366 34.2871 48.1246 35.5106C48.3201 35.827 48.4303 36.1988 48.6244 36.5166C49.3012 37.6278 51.0323 37.6434 51.7262 36.545C51.8989 36.272 52.0113 35.9521 52.2132 35.704C52.8601 34.907 54.046 35.1871 54.9254 35.6428C55.8048 36.0985 56.7866 36.6815 57.6909 36.2898C58.077 36.122 58.3912 35.7914 58.7815 35.635C60.0107 35.1423 61.3039 36.5429 62.5893 36.2763C63.0819 36.1739 63.5313 35.8284 64.0325 35.8405C64.4021 35.849 64.7434 36.0509 65.106 36.1312C65.514 36.2215 65.9363 36.154 66.3465 36.0765C69.1903 35.539 71.9601 34.5281 74.5308 33.0891C75.1557 32.7394 75.8048 32.3249 76.1162 31.6346C76.648 30.4551 75.9058 28.9693 74.8465 28.3543C73.7872 27.7401 72.5288 27.7621 71.3302 27.797C51.7568 28.365 32.1677 28.2818 12.5992 27.5481C10.77 27.4799 7.85302 26.7128 6.74325 28.7269C5.90293 30.2518 6.05009 32.5702 7.55372 33.5541Z" fill="#EDCC94"/>
<path d="M7.55372 32.9775C8.18147 33.3885 8.94501 33.5498 9.49243 34.0809C10.079 34.6489 10.3093 35.5298 10.7302 36.2528C11.1518 36.9765 12.0035 37.583 12.6852 37.1642C12.9675 36.9915 13.1509 36.6808 13.3301 36.3858C15.2617 33.2178 16.6892 34.3013 17.4819 34.2935C18.1772 34.2864 18.7794 33.7972 19.4249 33.5129C20.5766 33.0038 21.9587 33.1759 22.9774 33.9565C23.9934 34.7335 24.255 35.4807 26.3558 34.9959C28.2718 34.5537 30.534 33.8349 31.9814 35.2838C32.1705 35.4729 32.344 35.699 32.585 35.7914C33.6087 36.186 35.1771 33.643 37.1634 33.798C38.3692 33.8918 39.341 34.9618 40.5268 35.2163C41.8499 35.4999 43.1431 34.7343 44.4192 34.2551C45.6946 33.7759 47.366 33.7098 48.1246 34.934C48.3201 35.2497 48.4303 35.6222 48.6244 35.94C49.3012 37.0505 51.0323 37.0661 51.7262 35.9684C51.8989 35.6947 52.0113 35.3755 52.2132 35.1267C52.8601 34.3304 54.046 34.6098 54.9254 35.0656C55.8048 35.5213 56.7866 36.1042 57.6909 35.7125C58.077 35.5447 58.3912 35.2141 58.7815 35.0577C60.0107 34.5651 61.3039 35.9656 62.5893 35.699C63.0819 35.5966 63.5313 35.2511 64.0325 35.2632C64.4021 35.2717 64.7434 35.4743 65.106 35.5547C65.514 35.6443 65.9363 35.576 66.3465 35.4992C69.1903 34.9618 71.9601 33.9508 74.5308 32.5119C75.1557 32.1628 75.8048 31.7476 76.1162 31.0573C76.648 29.8786 75.9058 28.392 74.8465 27.7778C73.7872 27.1635 72.5288 27.1848 71.3302 27.2197C51.7568 27.7877 32.1677 27.7045 12.5992 26.9709C10.77 26.9026 7.85302 26.1355 6.74325 28.1496C5.90293 29.6745 6.05009 31.9929 7.55372 32.9775Z" fill="#FFDE9B"/>
<path opacity="0.3" d="M2.81104 25.9762C2.81104 25.9762 2.85014 27.5644 4.68577 28.291C6.5214 29.0176 8.37054 30.6996 23.4303 31.8812C38.49 33.0628 45.2339 33.2633 63.3819 32.7841C81.5292 32.3049 88.598 30.0925 89.1213 27.9078L2.81104 25.9762Z" fill="#111D33"/>
<path d="M89.2866 27.371C89.1785 34.8003 2.86328 33.7787 2.97774 26.3331C2.20709 24.4825 1.90423 22.708 1.98954 20.8219C2.35496 14.0133 8.51876 8.16442 17.9678 4.41425C50.5748 8.72037 90.1568 10.6776 89.647 25.7209C89.6307 26.2079 89.3875 26.8563 89.2859 27.3703L89.2866 27.371Z" fill="#F3A250"/>
<path d="M89.6469 25.7217C71.3098 18.446 48.8357 24.5977 30.5015 17.1954C25.8982 15.3378 21.5522 12.4962 19.3583 8.4147C18.5656 7.22957 18.1248 5.85391 17.9648 4.41498C41.2593 -4.84423 75.9707 1.21578 86.7207 15.5624C88.9836 18.5775 90.2022 22.039 89.6469 25.7217Z" fill="#FFB961"/>
<path d="M86.7208 15.5624C84.2858 16.5293 81.5046 16.5286 78.8393 16.3885C68.2621 15.8397 57.8007 13.4922 48.1824 9.49959C43.2614 7.4521 39.9839 5.39892 39.1621 0.11739C52.6023 -0.565817 68.8948 2.06535 79.952 9.40503C82.7658 11.2719 85.0593 13.3443 86.7208 15.5624Z" fill="#FFD475"/>
<path d="M79.952 9.40509C78.5678 10.1103 77.0088 10.2419 75.5009 10.2667C68.356 10.3997 61.1542 8.7297 54.3925 5.36485C51.8104 4.07948 49.9328 2.77421 48.7285 0.178589C61.3639 0.960616 72.4837 4.44775 79.952 9.40509Z" fill="#FFD475"/>
<path d="M89.4671 26.6566C89.4188 26.8969 89.3534 27.1372 89.2894 27.3682C89.1756 34.8025 2.86469 33.7794 2.97773 26.3374C2.36277 24.8515 2.01441 23.3308 1.98242 21.7661C7.15589 25.9456 25.884 34.5266 89.4671 26.6566Z" fill="#EA9344"/>
<path d="M68.9992 38.2519C67.7466 37.536 66.1719 38.0002 65.2839 39.3602C65.0052 39.7847 64.7543 40.3115 64.3462 40.4608C63.6018 40.7437 62.7288 39.6041 62.106 40.2091C61.5543 40.7359 61.8693 42.0021 61.4328 42.6782C61.1825 43.055 60.7744 43.1417 60.4019 43.1815C59.3639 43.2832 58.3047 43.1815 57.288 42.8744C55.7339 42.4087 56.1861 41.2911 56.0858 40.7124C55.9351 39.7456 54.9761 39.5252 54.2317 39.5181C53.1582 39.5017 51.9766 39.5408 51.196 40.5077C50.3948 39.3133 49.049 39.1477 47.8461 39.1875C46.651 39.2266 45.3628 39.3602 44.3241 38.5505C44.5175 38.2284 44.6753 37.8744 44.804 37.4969C45.997 37.703 46.8963 38.3073 47.8895 38.4566C48.4618 38.5419 49.0632 38.4716 49.6142 38.6763C50.1154 38.8647 50.5384 39.2579 51.046 39.4228C52.1721 39.7804 53.2385 38.9138 56.4939 38.9984C56.8728 39.5017 56.7086 40.2638 56.8942 40.893C57.0875 41.5222 57.6321 41.9544 58.2115 42.1435C58.7916 42.3319 59.4073 42.3163 60.0159 42.2928C60.7567 42.2701 60.8306 41.9992 60.8889 41.4042C61.0844 39.6268 62.416 38.886 63.3445 39.4235C63.444 39.4861 63.5449 39.5564 63.6516 39.5728C63.9744 39.6275 64.1819 39.2422 64.3533 38.9436C64.8189 38.126 65.6564 37.5914 66.5295 37.5438C67.1665 37.5047 67.8824 37.7094 68.412 37.3085C68.6196 37.5992 68.8272 37.9213 68.9992 38.2519ZM68.9921 42.1514C67.7139 41.5968 67.5703 39.3645 68.7419 38.5185C69.3142 40.1501 68.6011 40.6179 68.7134 41.3409C68.7675 41.6302 68.9921 41.9096 68.9921 42.1514ZM42.0406 41.4596C41.2749 42.9846 39.0632 42.0959 39.0632 40.2645C39.0774 39.2465 39.2907 38.5789 38.2542 38.3777C37.4743 38.2206 36.6724 38.0628 35.9131 38.3301C35.1545 38.5974 34.4457 39.3993 34.3817 40.4373L29.5708 37.489C28.9843 37.1272 28.3331 36.766 27.7174 37.0255C26.9653 37.3398 26.5785 38.5114 26.6439 39.5493C26.715 40.5944 27.1302 41.53 27.5312 42.4265C27.5241 42.4336 27.5169 42.4336 27.5098 42.4336C26.7605 41.8115 26.4904 40.8105 26.2493 39.887C26.0311 39.0062 26.0055 38.6642 26.5359 37.7564C27.3058 36.4881 27.78 36.4155 28.7483 36.6871C32.662 37.7244 32.7032 38.6784 33.5442 39.1398C34.3405 39.5572 34.1492 38.7147 36.3574 37.8666C37.2852 37.4869 37.4423 37.8516 37.8674 38.0315C38.3132 38.2185 39.1329 37.9903 39.5573 39.5643C39.6768 40.0143 39.8495 41.1461 40.2156 41.4674C40.473 41.7028 40.8953 41.5613 41.0965 41.2705C41.6894 40.3861 40.7524 39.2273 41.6404 38.1573C41.447 39.1477 41.6404 40.4295 42.0406 41.4596ZM19.8069 40.4217C19.1201 40.3747 18.4326 40.893 18.1106 41.6949C17.4238 41.8051 16.7008 41.8997 16.056 41.5535C15.419 41.2001 14.9114 40.2404 15.1396 39.368C15.3401 38.5896 16.0496 37.9448 16.3069 37.2921C16.3922 37.3398 16.4569 37.4343 16.4932 37.5758C16.6283 38.1808 16.0631 38.7702 15.7986 39.2188C15.4908 39.7612 15.3763 40.5475 15.8057 40.9797C16.0418 41.2236 16.3922 41.2861 16.715 41.3096C18.262 41.4433 17.9122 40.2503 18.5976 39.9261C19.0625 39.7306 19.0156 39.8693 19.0767 37.9526C19.091 37.5438 19.2381 37.3291 19.6135 37.5047C19.5993 38.4716 19.836 39.447 19.8069 40.4217ZM82.6143 32.4805C79.873 32.4094 80.2384 34.4484 79.873 35.4451C79.4791 36.5456 78.2265 36.884 77.5319 36.0743C77.2745 35.7757 77.0954 35.3584 76.8451 35.052C75.9643 33.9671 74.2538 34.8159 74.1244 36.3956C70.628 36.3956 70.746 36.3452 70.5526 36.4753C70.6095 36.3885 70.7026 36.294 70.8249 36.2072C71.3887 35.8063 72.057 36.1525 72.6861 36.0579C73.7668 35.893 74.3753 34.501 75.4204 34.1555C76.0218 33.9593 76.7228 34.1633 77.1529 34.6745C77.4785 35.0555 77.8731 36.0828 78.5698 35.9641C78.7916 35.9321 78.985 35.7672 79.1286 35.571C79.7223 34.7847 79.708 33.5732 80.3593 32.8424C80.9323 32.2139 81.8344 32.1734 82.6143 32.4805ZM88.6345 32.654C88.3352 33.1801 87.866 33.2512 87.2603 33.2512L83.8457 33.2753C83.4952 33.2753 83.0153 33.0471 83.0082 32.6618C83.1532 32.7151 83.4035 32.9369 83.6594 33.0237C83.968 33.1289 84.3092 33.0941 85.542 33.0706C86.4121 33.0706 86.5003 32.9334 87.1743 32.5047C87.4466 32.3319 87.7544 32.1819 88.0693 32.2217C88.3054 32.253 88.5343 32.418 88.6345 32.654ZM25.355 39.1633C24.9061 38.9575 24.4143 38.8623 23.921 38.8856C23.4277 38.909 22.9472 39.0503 22.5198 39.2977C21.8046 38.8412 22.0477 37.4343 21.8686 36.3885C22.871 37.1322 21.7406 38.4403 22.9421 38.4403C23.8343 38.4403 24.9469 38.3934 25.355 39.1633ZM25.9991 42.45C25.0372 41.8634 24.8431 40.2126 25.3692 39.2031C25.6415 39.7612 25.4119 40.4842 25.5413 41.1134C25.6337 41.5776 25.9131 41.9942 25.9991 42.45Z" fill="#5EC363"/>
<path opacity="0.4" d="M17.3798 37.8132C17.2276 38.564 16.5814 39.1483 16.5693 39.9176C16.5515 40.9669 17.8724 40.8382 18.2784 39.6616C18.4632 39.1263 18.4462 38.5377 18.476 37.9661C18.5585 36.3807 19.1159 36.2634 19.5069 35.8261C19.6796 35.6321 19.8133 35.3598 19.7557 35.0953C19.4116 34.9474 19.0419 35.1842 18.6893 35.3086C18.1063 35.5169 17.4871 35.4138 16.8871 35.3967C16.7399 35.3925 15.7183 35.4088 15.9031 35.8375C15.9565 35.9619 16.4157 35.9868 16.5373 36.0437C17.1366 36.3281 17.5234 37.1073 17.3798 37.8132ZM23.3729 37.2281C23.5023 37.4897 23.7696 37.6497 24.0398 37.6746C24.8097 37.7464 25.1503 36.9956 25.7261 36.8918C25.9408 36.8527 26.1683 36.911 26.3766 36.8392C26.624 36.7539 26.8195 36.3274 26.4406 36.2072C26.0873 36.0956 25.714 36.2221 25.3543 36.3011C24.3746 36.5143 24.2708 35.9868 24.0618 35.8368C23.899 35.7202 22.7715 35.4529 22.7622 35.8226C22.7601 35.925 23.1227 36.2947 23.1746 36.4447C23.2634 36.6992 23.2528 36.985 23.3729 37.2281ZM29.6377 36.4262C30.7055 36.5876 31.7307 37.0767 32.5667 37.8239C32.9791 38.1921 33.5862 38.8832 34.2829 38.7069C34.8687 38.5576 35.7368 37.4066 36.4527 37.1122C37.0186 36.879 37.652 37.0148 38.2329 37.1997C38.4881 37.2814 38.7469 37.3753 38.9538 37.558C39.4507 37.9973 39.9064 39.2607 40.0514 39.978C40.0863 40.15 40.1154 40.3299 40.2057 40.4764C40.4225 40.8311 40.879 40.7828 40.8711 40.0491C40.8612 39.0908 40.6579 37.8296 41.2785 36.9466C41.3254 36.8798 41.3795 36.8108 41.3866 36.7262C41.4008 36.5463 41.2103 36.4397 41.0517 36.3942C39.7265 36.0117 39.1123 36.4589 38.6445 36.0416C38.5044 35.9171 38.4191 35.7337 38.2961 35.5887C37.8127 35.0143 36.5828 35.0683 36.0069 35.3285C35.4602 35.5766 35.0642 36.107 34.5602 36.4468C34.2027 36.6871 33.7872 36.827 33.3571 36.8519C32.927 36.8768 32.4981 36.7857 32.1153 36.5883C31.6567 36.3473 30.788 35.5361 29.2616 35.6598C29.0689 35.6754 28.5094 35.7024 28.6161 36.0679C28.7064 36.3764 29.4123 36.3928 29.6377 36.4262ZM44.0113 35.5069C44.1891 35.2723 44.4621 35.1479 44.7344 35.0797C45.692 34.8394 47.1153 35.2674 47.4217 35.492C47.7381 35.7238 48.1113 36.4553 48.2705 36.8129C48.5379 37.4151 48.6495 37.612 49.3426 37.6646C51.7868 37.8495 51.6738 37.4869 52.2859 36.6459C52.8831 35.8247 53.6473 35.7643 54.0888 36.1333C54.3213 36.3274 54.4656 36.6437 54.7315 36.7781C55.0031 36.9153 55.2569 36.9558 55.5505 36.894C55.8448 36.8321 56.1562 36.7497 56.4356 36.867C56.715 36.9843 56.9048 37.4051 56.7072 37.6511C56.5743 37.8168 56.346 37.8217 56.1456 37.8324C55.0287 37.8879 56.2806 38.9564 54.4791 38.5448C54.0547 38.4481 53.2336 38.3514 52.8795 38.4466C52.7103 38.4929 52.5582 38.5917 52.3968 38.6656C51.3468 39.1455 50.1716 38.5121 49.1578 38.3215C48.4134 38.1815 46.8871 38.2355 46.4719 37.0689C46.4193 36.9217 46.393 36.7653 46.3439 36.6167C46.1989 36.1752 45.8477 35.8219 45.4339 35.7024C44.9704 35.5681 44.4535 35.7096 44.0113 35.5069ZM57.3143 39.363C57.3158 39.7853 57.421 40.2247 57.6876 40.529C57.8319 40.6925 57.9435 40.7622 58.7348 41.3181C58.8891 41.4269 59.0448 41.5364 59.2182 41.6004C59.7486 41.7966 60.3927 41.4759 60.6081 40.9079C60.7823 40.4486 60.6259 40.4778 61.1249 39.56C61.3553 39.1355 61.4925 38.9983 61.9816 38.9983C62.7701 38.9983 63.0551 39.1917 63.3879 39.0573C63.7568 38.908 63.8976 38.4339 64.1123 38.0727C64.5246 37.376 65.0628 37.3241 65.2 37.1798C65.3578 37.0134 65.2818 36.6992 65.1069 36.5541C64.9313 36.4105 64.6995 36.3892 64.4813 36.3736C63.5343 36.306 63.5599 36.5413 63.1205 36.7433C62.2326 37.152 60.5619 36.375 59.4777 36.3096C58.9346 36.2762 58.3914 36.37 57.8539 36.4631C57.5617 36.5129 57.0221 36.5243 57.271 36.9572C57.78 37.8438 57.3094 38.2575 57.3143 39.363ZM68.7078 36.7319C68.7575 36.6978 68.8073 36.6594 68.8663 36.6558C68.9609 36.6494 69.0405 36.739 69.0654 36.8357C69.091 36.9316 69.076 37.0333 69.0675 37.1328C69.0554 37.2821 69.0554 37.6845 69.145 37.8025C69.2424 37.9305 69.445 37.8715 69.5595 37.7585C69.9121 37.4101 69.8325 36.8079 69.9825 36.3231C70.1559 35.765 70.6884 35.3541 71.2458 35.3477C71.4982 35.3448 71.7449 35.4166 71.9958 35.4472C72.667 35.529 73.862 35.2738 74.3668 34.8714C74.6633 34.6368 74.8808 34.2564 74.8424 33.8675C74.8325 33.7659 74.8033 33.709 74.6825 33.6663C74.2225 33.5042 73.7646 33.8633 73.4099 34.0694C72.2241 34.7569 70.837 34.6979 70.4951 34.8628C70.1531 35.0278 69.841 35.7309 68.5627 35.802C68.2336 35.8205 67.9023 35.7863 67.5738 35.8141C65.6159 35.9769 67.3932 37.6518 68.7078 36.7319ZM77.2333 34.0673C77.598 34.3303 77.5959 34.9446 77.9151 35.2716C78.39 35.76 79.1237 35.2375 79.2886 34.8422C79.3476 34.7 79.3362 34.7135 79.5964 32.8978C79.6348 32.6277 79.5538 32.5658 79.3753 32.5509C78.963 32.5153 78.5464 32.5231 78.2705 32.8395C78.0985 33.0379 78.0814 33.1786 77.5198 33.1857C75.8598 33.2071 75.8875 33.1545 75.5747 33.4381C75.4887 33.5156 75.2249 33.7033 75.2164 33.8362C75.2071 33.9948 75.4261 33.9841 75.5199 33.977C76.0652 33.9365 76.8928 33.8213 77.2333 34.0673ZM83.5898 32.6831C84.1336 32.7471 84.6803 32.8104 85.2263 32.7727C86.6908 32.6717 86.838 32.0546 87.3321 31.9487C87.6435 31.8826 88.0103 32.0859 88.2727 31.8506C88.498 31.648 88.4739 31.1944 88.4447 30.76C88.4362 30.637 88.4163 30.5709 88.3096 30.5382C87.7743 30.3747 87.2006 30.9307 86.4079 31.5357C85.6884 32.0845 85.5356 31.9857 83.5073 31.9565C83.4397 31.9558 83.2826 31.921 83.2222 31.9658C83.1454 32.0212 83.1987 32.0234 83.2478 32.1001C83.395 32.3284 83.2165 32.6397 83.5898 32.6831Z" fill="#F1F6FA"/>
<path opacity="0.5" d="M8.13753 32.5502C9.00487 33.1858 10.3656 32.9441 10.9429 33.9849C11.3126 34.6518 11.1121 35.7089 11.7413 36.1803C12.1102 36.4575 12.6292 36.3537 13.0003 36.0807C13.2591 35.8902 13.2612 35.7544 13.2918 35.4381C13.4304 34.0169 14.5807 33.0152 15.837 33.1304C16.127 33.1574 16.5066 33.1915 16.6204 32.8965C16.6915 32.7095 16.5898 32.4841 16.4356 32.3725C16.2806 32.2609 16.0879 32.236 15.9038 32.2197C13.761 32.0369 11.0602 32.7763 9.26436 31.0566C8.84207 30.652 7.98895 30.0513 7.51404 30.7466C7.11379 31.3331 7.69462 32.2253 8.13753 32.5502ZM48.7041 35.2632C49.3219 36.3616 51.3453 36.9388 51.6495 34.3318C51.3986 34.2451 51.1505 34.4435 50.9173 34.5764C50.6781 34.7119 50.4086 34.7848 50.1337 34.7885C49.8589 34.7923 49.5875 34.7266 49.3447 34.5977C48.6665 34.233 48.22 34.4029 48.7041 35.2632ZM59.9269 34.366C60.7801 34.511 62.0349 35.32 64.1321 34.8729C64.6724 34.7577 65.2071 34.5657 65.7566 34.5878C66.3844 34.6127 66.9922 34.9169 67.6185 34.8636C68.1823 34.8153 68.6892 34.4847 69.1726 34.1619C69.2423 34.115 69.317 34.0624 69.3447 33.9785C69.4179 33.7574 69.1364 33.6088 68.9238 33.5839C68.1124 33.4891 67.291 33.5285 66.4924 33.7005C65.3763 33.9401 65.362 34.0866 63.2463 34.0389C61.3325 33.9963 59.4179 34.0119 57.5048 34.0873C57.1692 34.1001 55.5391 33.9451 55.4431 34.5501C55.362 35.0591 56.9567 34.7442 57.2467 34.6866C58.1283 34.511 59.0234 34.211 59.9269 34.366ZM24.7194 34.5067C25.4683 34.6431 26.2393 34.591 26.9631 34.3553C27.92 34.0432 29.2935 33.1225 30.399 33.8164C30.8341 34.0894 31.1213 34.575 31.5223 34.9041C33.3138 36.38 35.7282 33.6067 34.0198 33.5761C27.069 33.4531 27.047 33.4624 26.2024 33.3984C25.576 33.35 24.8964 33.1105 24.2764 33.1261C23.9722 33.1332 23.3828 33.3337 23.4333 33.7766C23.4845 34.2231 24.4051 34.4491 24.7194 34.5067Z" fill="#F1F6FA"/>
<path opacity="0.4" d="M38.3481 82.6107C39.5396 82.8225 40.7461 81.3111 41.9525 80.7345C42.7061 80.3748 43.5429 80.2916 44.3633 80.2411C51.3333 79.8117 54.3498 81.3054 57.2988 81.4028C58.6453 81.4476 60.0415 81.1923 61.1648 80.3755C62.0535 79.73 61.5487 78.9572 60.5534 79.1193C60.1197 79.1903 59.5652 79.2536 59.3505 78.8335C59.2851 78.7055 59.2688 78.5562 59.2417 78.4126C59.1038 77.6661 58.6289 76.9886 57.982 76.7135C57.335 76.4383 56.5359 76.604 56.0681 77.1663C55.9181 77.3469 55.8015 77.5623 55.6345 77.7237C55.1709 78.1687 54.4451 78.077 53.8955 77.7735C53.346 77.4699 52.8874 76.9914 52.3386 76.6836C51.7912 76.3751 51.0696 76.2705 50.5968 76.7035C50.3551 76.9246 50.2186 77.2495 50.0487 77.5396C48.968 79.3894 46.5992 79.8195 44.9114 78.4019C44.6441 78.1773 44.3982 77.9107 44.0868 77.7735C43.6204 77.5687 43.0467 77.7095 42.7054 78.1133C42.3386 78.547 42.1971 79.2614 41.6852 79.4477C41.4357 79.5387 41.4357 79.5117 38.454 79.1669C37.8625 79.0986 37.0521 78.8399 36.6397 79.4797C35.9665 80.5219 37.4011 82.4429 38.3481 82.6107ZM7.08761 75.4565C7.15942 75.9954 7.2817 76.6139 7.72319 76.8613C8.02605 77.0305 8.58058 77.0085 8.72916 76.899C8.89623 76.7753 9.18487 76.1205 9.23819 75.8113C9.33274 75.266 9.13297 74.7143 9.12017 74.1605C9.11591 73.987 9.13013 73.8086 9.08107 73.6429C8.96448 73.2448 8.4455 73.0763 8.14975 73.3401C8.01752 73.4581 7.90448 73.6515 7.73385 73.6387C7.59024 73.6266 7.49711 73.4666 7.45161 73.3166C7.3855 73.0984 7.21914 72.6064 6.96747 72.9164C6.71153 73.2306 6.89922 74.0489 7.08761 75.4565Z" fill="#F1F6FA"/>
<path opacity="0.5" d="M60.5994 75.9115C60.7203 76.4255 61.0068 76.9189 61.4468 77.1364C61.707 77.2658 61.9985 77.29 62.2815 77.3262C65.7537 77.767 65.0953 80.1927 66.7732 81.1667C67.4884 81.5819 68.419 81.4113 69.0474 80.8503C70.0378 79.9666 70.2589 78.2426 69.8778 77.5139C69.7072 77.1869 69.405 76.9672 69.2038 76.6608C68.9671 76.3018 68.8526 75.8063 68.4915 75.6086C67.826 75.246 67.1549 76.1319 66.7596 76.4283C64.5813 78.0635 62.5914 74.459 61.0615 74.4448C60.3115 74.437 60.4572 75.3093 60.5994 75.9122V75.9115ZM35.5895 78.0706C35.8859 77.8225 36.1497 77.5132 36.4938 77.3547C37.5658 76.8627 39.887 77.8843 41.648 77.2459C42.312 77.0056 42.8907 76.5492 43.4574 76.0985C43.7176 75.8923 44.0069 75.6179 43.9749 75.2667C43.7275 75.0491 43.3749 75.0249 43.0692 75.1159C42.7635 75.2077 42.4919 75.3989 42.2232 75.5837C41.0203 76.4084 40.5902 76.4667 39.5671 76.4596C37.2864 76.4447 36.402 76.3587 35.6257 76.7134C35.0484 76.9772 34.5678 77.4848 33.96 77.6447C33.1872 77.8466 32.4215 77.4613 31.6651 77.3412C31.5798 77.3277 31.1817 77.2345 31.1262 77.3234C31.0423 77.4563 31.2904 77.6028 31.3608 77.6561C31.6829 77.9035 32.0142 78.141 32.3668 78.3322C33.5512 78.9749 34.6581 78.8491 35.5895 78.0706ZM11.0181 79.2884C11.4056 80.0818 11.6992 80.2979 12.5573 80.5027C13.2071 80.6577 14.4413 80.8795 14.9987 80.7188C15.347 80.6179 17.6675 79.3019 17.8922 78.7161C18.0144 78.4005 17.7891 78.1076 17.4599 78.2718C17.0988 78.4516 17.0568 78.8811 15.5432 78.9863C14.4719 79.0609 13.1097 79.1128 12.1933 78.7303C11.6708 78.5114 11.5094 78.249 11.2307 77.6867C10.8937 77.0049 10.5511 76.3075 10.4288 75.5432C10.3932 75.3178 10.3051 73.3976 9.97236 73.5398C9.81524 73.6066 9.94606 74.4754 9.95601 74.6517C10.0541 76.3252 10.2774 77.7706 11.0181 79.2891V79.2884ZM24.5678 79.5401C25.192 80.0946 25.4174 80.0982 25.9854 79.9325C26.9665 79.646 27.4052 79.415 27.8801 78.3457C27.9441 78.2007 27.8886 78.1353 27.7678 78.1467C27.2139 78.1964 26.9146 78.9472 26.3779 79.1022C26.0814 79.1875 25.9072 79.1164 24.2835 78.7239C24.191 78.7019 23.832 78.5512 23.7808 78.7161C23.7382 78.8562 24.0794 79.105 24.5678 79.5401Z" fill="#F1F6FA"/>
<path d="M46.8687 27.4258C47.082 28.1701 47.1766 29.7647 46.7799 29.9467C46.3817 30.128 45.6466 28.8256 45.4326 28.0805C45.2194 27.3376 46.6554 26.6842 46.8687 27.4258ZM41.0504 21.424C41.2822 22.1492 41.4173 23.7168 41.027 23.9144C40.6353 24.1114 39.8689 22.8608 39.6371 22.1357C39.406 21.4127 40.8187 20.7024 41.0504 21.4248V21.424ZM21.1578 23.8853C21.8126 23.7374 23.1242 23.8519 23.1783 24.3488C23.2309 24.8465 22.0031 25.5389 21.3476 25.6889C20.6928 25.8382 20.5044 24.0339 21.1578 23.8853ZM9.29657 20.8169C8.86005 20.2425 8.25647 18.8519 8.55577 18.5085C8.8565 18.1665 9.94565 18.999 10.3836 19.5714C10.8208 20.1429 9.73379 21.3913 9.29657 20.8169ZM36.0711 27.8708C36.7088 28.3066 37.7311 29.5628 37.4652 30.0726C37.1979 30.5816 35.7419 30.1472 35.1028 29.7121C34.4658 29.277 35.4355 27.4371 36.0711 27.8708ZM27.1467 28.0229C27.773 27.7236 29.0982 27.5246 29.2368 27.9959C29.3733 28.4694 28.2693 29.4363 27.6422 29.7377C27.0152 30.0399 26.5211 28.323 27.1467 28.0229ZM24.2987 10.6562C24.4985 11.3778 24.5689 12.9213 24.1743 13.0969C23.779 13.2711 23.0723 12.0091 22.8719 11.2868C22.6728 10.5681 24.0989 9.93819 24.2987 10.6562ZM31.123 7.70586C30.5656 8.12744 29.3129 8.61657 29.1025 8.20991C28.8935 7.80184 29.8049 6.6551 30.3608 6.23351C30.9154 5.81406 31.6782 7.28499 31.123 7.70586ZM40.9147 16.4134C40.5478 15.7835 40.1177 14.3389 40.4639 14.0581C40.8123 13.7787 41.8047 14.7676 42.173 15.3946C42.5413 16.0209 41.2822 17.0411 40.9147 16.4134ZM23.7136 16.943C24.3392 16.6686 25.6523 16.5122 25.7782 16.9772C25.9026 17.4442 24.79 18.3578 24.1643 18.6358C23.5387 18.9123 23.0887 17.2182 23.7136 16.943ZM36.9867 7.53381C37.1886 8.24901 37.2654 9.77894 36.8737 9.95241C36.482 10.1252 35.7725 8.87392 35.5706 8.15801C35.3694 7.44495 36.7848 6.82146 36.9867 7.53381ZM76.2196 12.0511C76.841 12.243 77.9529 12.9945 77.8377 13.463C77.7211 13.9322 76.4194 13.9393 75.7973 13.7488C75.176 13.5576 75.5997 11.8606 76.2196 12.0511ZM72.0301 26.7027C72.1723 25.9307 72.773 24.5266 73.1776 24.6353C73.5821 24.7462 73.6382 26.3302 73.4989 27.1023C73.3588 27.8751 71.8893 27.4748 72.0301 26.7027ZM54.6883 23.7388C55.2201 23.2682 56.4443 22.6838 56.6846 23.0869C56.9242 23.4922 56.0881 24.7334 55.5563 25.2062C55.0253 25.679 54.1565 24.2095 54.6883 23.7388ZM47.837 17.6931C48.4783 17.5487 49.7743 17.6625 49.8411 18.1509C49.9073 18.6407 48.7157 19.3204 48.0738 19.4668C47.4332 19.6133 47.1965 17.8381 47.837 17.6931ZM71.7543 17.7933C71.2161 18.2227 69.9869 18.7218 69.7587 18.3087C69.5312 17.8943 70.3914 16.7283 70.9274 16.2996C71.4628 15.8724 72.2896 17.3646 71.7543 17.7933ZM62.7375 23.2597C62.4922 22.3049 62.4318 20.3107 62.9437 20.128C63.4555 19.9474 64.3485 21.6444 64.5966 22.5971C64.8454 23.5497 62.9842 24.2137 62.7375 23.2597ZM60.2656 31.4944C59.6385 31.2278 58.5394 30.3292 58.6816 29.8557C58.8259 29.383 60.1554 29.5145 60.781 29.7775C61.4066 30.0413 60.8919 31.7589 60.2656 31.4944ZM55.1739 17.0191C54.8063 16.3892 54.3677 14.9361 54.7061 14.646C55.0459 14.3581 56.0334 15.3406 56.4024 15.9683C56.7713 16.5961 55.5421 17.6483 55.1739 17.0191ZM63.661 9.6332C64.0904 10.1614 64.6847 11.4816 64.389 11.8478C64.0925 12.2132 63.0169 11.4823 62.5875 10.9541C62.1588 10.4273 63.233 9.10782 63.661 9.6332ZM50.8286 3.84691C50.2087 4.17536 48.8856 4.47253 48.7385 4.05308C48.5913 3.63221 49.6748 2.6568 50.2933 2.32835C50.9097 2.00132 51.4464 3.51917 50.8286 3.84691ZM52.0806 11.2605C51.6825 10.6605 51.1635 9.23437 51.472 8.90592C51.7813 8.57889 52.8015 9.47182 53.1996 10.069C53.5977 10.6662 52.478 11.8591 52.0806 11.2605ZM56.3824 7.12005C55.8507 6.76032 54.9961 5.71169 55.2144 5.27589C55.4326 4.84079 56.6384 5.18275 57.1694 5.53964C57.7005 5.89653 56.9135 7.47765 56.3824 7.12005ZM41.9256 8.99763C42.3977 8.41466 43.5323 7.55301 43.8067 7.88004C44.0819 8.2092 43.3923 9.60548 42.9223 10.1906C42.4517 10.7735 41.455 9.57988 41.9256 8.99763ZM42.3486 1.93592C42.4339 2.6952 42.2768 4.2166 41.8758 4.27489C41.4749 4.33177 40.985 2.90137 40.8997 2.14209C40.8144 1.38637 42.2626 1.18019 42.3486 1.93592Z" fill="#DD8536"/>
<path d="M46.5591 26.9778C46.7724 27.7222 46.8662 29.3154 46.4695 29.4974C46.0721 29.678 45.337 28.377 45.1237 27.6326C44.9112 26.8904 46.3465 26.2378 46.5598 26.9786L46.5591 26.9778ZM40.7451 20.9818C40.9768 21.7063 41.1112 23.2725 40.7209 23.4701C40.3299 23.6663 39.5635 22.4172 39.3317 21.6928C39.1014 20.9704 40.514 20.2609 40.7451 20.9818ZM20.8595 23.4395C21.5143 23.2916 22.826 23.4061 22.8786 23.9031C22.9319 24.4007 21.7041 25.0917 21.0486 25.2417C20.3946 25.391 20.2062 23.5881 20.8595 23.4395ZM8.99476 20.3733C8.55824 19.7988 7.95537 18.4097 8.25539 18.0663C8.5554 17.725 9.64384 18.5568 10.0818 19.1284C10.5183 19.7 9.43198 20.9463 8.99476 20.3733Z" fill="#FEEDBD"/>
<path d="M17.9316 11.3103C17.4943 10.7352 16.8907 9.34462 17.19 9.00195C17.4908 8.65999 18.5799 9.49249 19.0179 10.0641C19.4551 10.6364 18.3688 11.8841 17.9316 11.3103Z" fill="#DD8536"/>
<path d="M17.629 10.8667C17.1925 10.2916 16.5896 8.90242 16.8897 8.55975C17.1897 8.2185 18.2788 9.05029 18.7161 9.62188C19.1526 10.1935 18.0663 11.4405 17.629 10.8667Z" fill="#FEEDBD"/>
<path d="M33.741 19.3282C33.303 18.753 32.6994 17.3631 32.9995 17.0198C33.3002 16.6778 34.3893 17.5103 34.8266 18.0826C35.2645 18.6542 34.1782 19.9019 33.741 19.3282Z" fill="#DD8536"/>
<path d="M33.4391 18.8846C33.0026 18.3102 32.3997 16.921 32.6997 16.5776C32.9997 16.2364 34.0882 17.0682 34.5261 17.6398C34.9626 18.2114 33.8756 19.4576 33.4384 18.8839L33.4391 18.8846Z" fill="#FEEDBD"/>
<path d="M34.5567 5.9869C34.1194 5.41104 33.5158 4.02117 33.8159 3.67779C34.1159 3.33583 35.2057 4.16833 35.643 4.74063C36.0802 5.31222 34.9939 6.56062 34.5567 5.9869Z" fill="#DD8536"/>
<path d="M34.2545 5.54323C33.818 4.96737 33.2151 3.57892 33.5152 3.23625C33.8152 2.89429 34.9043 3.72608 35.3423 4.29767C35.7788 4.86926 34.6917 6.11553 34.2545 5.54252V5.54323Z" fill="#FEEDBD"/>
<path d="M17.4133 20.0072C16.9768 19.4321 16.3732 18.0422 16.6725 17.6988C16.9732 17.3569 18.0623 18.1894 18.5003 18.7617C18.9375 19.3333 17.8505 20.5817 17.4133 20.0072Z" fill="#DD8536"/>
<path d="M17.1125 19.5636C16.6753 18.9891 16.0724 17.6 16.3718 17.2566C16.6725 16.9153 17.7609 17.7471 18.1989 18.3187C18.6354 18.8903 17.5498 20.1366 17.1125 19.5636ZM35.766 27.4222C36.4037 27.858 37.4254 29.1128 37.1595 29.6219C36.8914 30.1309 35.4362 29.6972 34.7977 29.2621C34.1615 28.8277 35.1305 26.99 35.766 27.4222ZM26.8452 27.5737C27.4716 27.2751 28.796 27.076 28.934 27.5474C29.0705 28.0201 27.9671 28.9856 27.34 29.2877C26.7137 29.5884 26.2196 27.873 26.8452 27.5737ZM24.0001 10.2226C24.1998 10.9435 24.2695 12.4855 23.875 12.6611C23.4804 12.8353 22.7737 11.5734 22.5739 10.8532C22.3749 10.1344 23.8003 9.50527 24.0001 10.2226ZM30.8265 7.27507C30.2691 7.69665 29.0171 8.18507 28.8074 7.77841C28.5977 7.37105 29.5091 6.22573 30.0658 5.80486C30.6203 5.38541 31.381 6.85491 30.8265 7.27507ZM40.6118 15.9755C40.2449 15.3463 39.8155 13.9031 40.1625 13.6223C40.5094 13.3436 41.5019 14.3318 41.8701 14.9581C42.2377 15.5838 40.9793 16.6039 40.6118 15.9755ZM23.4171 16.5037C24.0427 16.2293 25.3551 16.0729 25.481 16.5385C25.6054 17.0049 24.4928 17.9178 23.8671 18.195C23.2415 18.4709 22.7922 16.7795 23.4171 16.5037ZM36.6881 7.10373C36.89 7.81822 36.9654 9.34673 36.5744 9.52091C36.1826 9.69296 35.4738 8.44242 35.2719 7.72722C35.0715 7.01487 36.4862 6.39209 36.6881 7.10373ZM75.9054 11.6196C76.526 11.8115 77.6372 12.5623 77.5213 13.0301C77.4047 13.4993 76.1037 13.5064 75.4809 13.3159C74.861 13.1246 75.2854 11.4291 75.9054 11.6196ZM71.7116 26.2577C71.8538 25.4871 72.4552 24.0837 72.859 24.1925C73.2635 24.3034 73.319 25.8852 73.1797 26.6573C73.0396 27.4286 71.5708 27.0291 71.7116 26.2577ZM54.3776 23.2953C54.9094 22.826 56.1336 22.2417 56.3732 22.644C56.6128 23.0486 55.776 24.2891 55.2449 24.7619C54.7139 25.234 53.8465 23.7659 54.3776 23.2953ZM47.5306 17.2552C48.1718 17.1108 49.4672 17.2246 49.534 17.7123C49.6001 18.2014 48.4093 18.8804 47.7673 19.0275C47.1268 19.1733 46.8907 17.4009 47.5306 17.2552Z" fill="#FEEDBD"/>
<path d="M68.7449 7.76205C69.3862 7.61773 70.6822 7.73148 70.7498 8.2199C70.8152 8.70902 69.6244 9.38867 68.9824 9.53512C68.3411 9.68229 68.1051 7.9078 68.7449 7.76205Z" fill="#DD8536"/>
<path d="M68.439 7.32407C69.0796 7.17904 70.3756 7.29279 70.4424 7.7812C70.5079 8.27032 69.317 8.94855 68.6758 9.09571C68.0345 9.24146 67.7992 7.4691 68.439 7.32407ZM71.4385 17.3568C70.901 17.7855 69.6718 18.2838 69.4436 17.8708C69.2168 17.457 70.0763 16.2925 70.6131 15.8638C71.1484 15.4372 71.9745 16.9281 71.4385 17.3568Z" fill="#FEEDBD"/>
<path d="M79.433 23.1972C78.8948 23.6266 77.6656 24.1256 77.4374 23.7119C77.2099 23.2981 78.0701 22.1322 78.6069 21.7028C79.1422 21.2762 79.9683 22.7692 79.433 23.1972Z" fill="#DD8536"/>
<path d="M79.1177 22.7599C78.5795 23.1893 77.3503 23.6877 77.1228 23.2747C76.8953 22.8609 77.7556 21.6964 78.2923 21.2677C78.8276 20.8411 79.653 22.332 79.117 22.7606L79.1177 22.7599ZM62.4235 22.8175C62.1783 21.8635 62.1186 19.8707 62.6297 19.6887C63.1423 19.5081 64.0345 21.203 64.2826 22.1556C64.53 23.1076 62.6688 23.7716 62.4235 22.8175ZM59.9495 31.0445C59.3232 30.7779 58.2248 29.8799 58.3677 29.4072C58.5113 28.9351 59.84 29.0659 60.4656 29.329C61.0905 29.5927 60.5758 31.3082 59.9495 31.0445Z" fill="#FEEDBD"/>
<path d="M61.802 18.4211C61.1749 18.1545 60.0758 17.2559 60.2187 16.7824C60.3623 16.3096 61.6918 16.4411 62.3181 16.7042C62.943 16.9679 62.4283 18.6855 61.802 18.4211Z" fill="#DD8536"/>
<path d="M61.4866 17.9704C60.8595 17.7045 59.7611 16.8066 59.904 16.3338C60.0483 15.8618 61.3771 15.9926 62.0027 16.2556C62.6269 16.5194 62.1122 18.2349 61.4866 17.9704ZM54.8649 16.5819C54.4974 15.952 54.0594 14.5003 54.3985 14.211C54.7377 13.923 55.7244 14.9048 56.0934 15.5319C56.4617 16.1589 55.2332 17.2104 54.8649 16.5819ZM63.3513 9.20315C63.7807 9.73066 64.3744 11.0502 64.0786 11.4156C63.7815 11.781 62.7072 11.0502 62.2778 10.5226C61.8491 9.99655 62.9234 8.67848 63.3513 9.20315ZM50.7891 3.29031C50.1692 3.61805 48.8476 3.91522 48.6997 3.49577C48.5532 3.07631 49.636 2.10162 50.2538 1.77388C50.8702 1.44685 51.4062 2.96256 50.7891 3.29031ZM51.7752 10.8276C51.3778 10.2276 50.8588 8.80218 51.1673 8.47444C51.4773 8.14812 52.4968 9.04034 52.8949 9.63682C53.2916 10.234 52.1726 11.4255 51.7752 10.8276ZM56.0763 6.69142C55.5446 6.33239 54.6915 5.28376 54.909 4.84867C55.128 4.415 56.333 4.75625 56.8641 5.11243C57.3944 5.46932 56.6074 7.04902 56.0763 6.69142ZM41.6245 8.56615C42.0958 7.9846 43.2312 7.12295 43.5056 7.44998C43.78 7.77914 43.0904 9.174 42.6198 9.75767C42.1491 10.3414 41.1538 9.1484 41.6245 8.56615ZM42.0489 1.51155C42.1342 2.27012 41.9764 3.79009 41.5761 3.84768C41.1752 3.90455 40.686 2.47558 40.6007 1.71772C40.5161 0.961996 41.9636 0.756536 42.0489 1.51155Z" fill="#FEEDBD"/>
</svg>
