<svg width="102" height="97" viewBox="0 0 102 97" fill="none" xmlns="http://www.w3.org/2000/svg">
<path d="M95.0485 70.3304V74.0226C95.0485 84.7038 80.5661 93.6804 60.9526 96.2427C33.1784 99.8835 3.88623 89.5739 3.88623 74.0234V70.3312L95.0485 70.3304Z" fill="#EA9344"/>
<path d="M92.5844 66.9553C93.8296 66.9553 94.84 67.9294 94.84 69.1311V70.2949C94.84 79.9561 80.3576 88.0757 60.7441 90.393C32.5011 93.742 3.67773 84.1535 3.67773 70.2957V66.9553H92.5844Z" fill="#FFB961"/>
<path d="M94.2377 70.5739C94.1436 70.8048 93.9064 70.9123 93.8029 71.1392C93.6131 71.5487 93.961 72.0816 93.81 72.5196C93.7301 72.7544 93.523 72.8975 93.4226 73.1205C93.1316 73.764 93.8511 74.8377 92.1529 75.0061C85.1575 75.7153 85.8232 75.7777 83.5431 75.1215C83.1684 75.2528 82.7976 75.3959 82.4236 75.5073C79.2208 76.4505 75.9042 74.8788 72.7212 76.0054C71.6689 76.3746 70.6261 77.0395 69.558 76.9202C69.0401 76.8601 68.5389 76.6174 68.0281 76.4584C65.3393 75.6267 62.5966 77.1194 59.8714 76.9921C57.634 76.8846 55.4724 75.4164 53.2951 76.3786C49.4709 78.0784 45.4522 74.8551 41.5513 75.8181C40.0816 76.1802 38.6522 77.1352 37.169 77.2064C35.6929 77.2775 34.25 76.4743 32.7835 76.128C30.3421 75.5477 27.8635 76.2394 25.4023 76.0568C22.9743 75.8773 20.5527 74.8472 18.1374 75.3168C16.6542 75.6093 14.6571 76.7968 12.1422 74.4456C10.9341 74.6432 9.88577 74.7665 8.42472 74.4337C8.15433 74.3736 7.87366 74.2898 7.65625 74.0874C7.10519 73.5782 7.17555 72.571 7.33605 71.7598C7.40957 71.3938 7.48943 71.0001 7.37242 70.6498C7.189 70.0806 6.60394 69.8893 6.09637 69.826C5.5888 69.7628 5.01798 69.7106 4.6875 69.2489C4.20602 68.5729 4.56337 67.5625 4.64718 66.6825C4.71043 65.9868 4.57998 65.2824 4.59342 64.5779C4.61002 63.8774 4.82111 63.1019 5.34213 62.7793C5.86314 62.4575 6.52804 62.6726 7.04827 62.3539C7.47599 62.0954 7.71317 61.5301 8.11085 61.2123C8.72199 60.7269 9.56399 60.9174 10.255 60.6747C10.8298 59.3623 11.9121 58.5108 11.7745 56.8956C14.9623 60.998 19.4166 56.8916 23.221 57.9455C24.5002 58.2957 25.7162 59.2065 26.9891 59.6002C28.3149 60.0106 29.6708 59.8556 31.0101 59.6959C60.0517 56.3058 59.6247 56.2156 61.485 56.4496C63.762 56.7359 66.0548 58.3194 68.3159 57.6909C73.4019 59.6319 74.1293 60.0011 75.2021 60.0066C76.4387 60.0106 77.6507 59.3425 78.8864 59.3425C81.191 59.3378 83.4158 61.6376 85.7007 61.0731C86.4715 60.8818 87.24 60.3608 88.0085 60.6035C88.4591 60.7458 88.8663 61.1443 89.241 61.6376C89.7889 61.5412 90.9432 61.4716 91.3385 61.829C91.839 62.2859 91.6255 63.3564 92.1102 63.8379C92.3806 64.1123 92.7877 64.1004 93.0818 64.3392C93.4692 64.672 93.8867 65.767 93.6463 66.9055C93.5831 67.2162 93.4724 67.534 93.5198 67.8487C93.5625 68.1467 93.7365 68.3863 93.8732 68.6361C94.1887 69.2172 94.3832 70.2174 94.2377 70.5739Z" fill="#AA6256"/>
<path d="M4.64691 66.6825C4.6311 66.1251 4.66273 65.3606 4.95367 65.5132C5.49603 65.7986 6.15461 65.703 6.61079 66.0698C7.1458 66.4951 7.52905 67.0819 7.70342 67.7427C7.96906 68.7879 8.05129 68.6757 9.88709 68.6757C11.4699 68.6772 10.4563 67.6123 13.0946 67.6898C17.186 67.8099 17.3157 68.8441 18.3055 69.9422C20.0528 71.8808 23.0357 71.8555 25.5285 71.6784C28.1044 71.4942 28.0111 71.1621 29.4231 70.8751C30.8304 70.5905 32.3721 70.9273 33.49 71.7654C33.5706 71.8262 33.6639 71.8934 33.7675 71.8776C33.9043 71.8563 33.9612 71.7116 34.0284 71.6001C34.1826 71.3463 34.5202 71.1993 34.8309 71.2523C36.8722 71.597 39.1982 70.8491 40.9842 71.8215C41.3961 72.046 41.7709 72.3275 42.1962 72.5307C43.7379 73.266 45.6014 72.8501 47.2751 72.424C54.2151 70.6601 61.5456 68.9919 68.5307 70.5976C68.8659 70.6743 69.2573 70.7486 69.5269 70.5502C70.1467 70.094 69.3427 68.9959 70.6653 68.8053C71.709 68.6551 72.8126 68.8939 73.6744 69.4576C74.2674 69.845 74.741 70.3739 75.3363 70.7589C75.9316 71.1439 76.7373 71.3716 77.3863 71.0673C77.8884 70.8317 78.1738 70.3415 78.5209 69.9327C79.3194 68.9903 80.5875 68.3997 81.8857 68.3673C81.4588 67.5846 82.1846 66.6051 83.0914 66.341C84.9193 65.8081 86.8753 67.2739 88.6976 66.7055C89.4329 66.4762 90.0851 65.9204 90.8576 65.982C91.547 66.0366 93.0057 66.152 93.4539 65.6666C94.0904 66.0113 93.5939 67.2375 93.3195 67.8692C93.0468 68.5017 92.4712 68.9737 91.9154 69.4212C89.2716 71.5511 88.1719 72.2516 83.3246 73.3063C65.4584 77.1937 49.1805 78.6208 30.3963 75.5998C26.2354 74.931 20.8284 75.0938 16.6365 73.9917C14.3058 73.379 12.1364 72.2761 9.7598 71.8334C7.82359 71.4728 4.85247 71.525 3.5116 69.6537C2.87911 68.7705 4.60738 68.5887 4.64691 66.6825Z" fill="#111D33" fill-opacity="0.188235"/>
<path d="M5.73193 77.2807C6.96953 77.7651 8.3298 77.8399 9.61305 77.4942C10.4487 77.2673 11.2891 76.8609 12.1383 77.0246C12.9874 77.189 13.7155 78.3164 13.1708 79.0296L14.5607 78.9766C14.5884 80.2518 13.7701 81.6085 14.3583 82.7193C15.0366 84.0033 16.829 83.672 18.1271 83.1676L20.1495 82.3802C20.8974 82.0892 20.7528 81.9928 20.8611 79.0114C21.3165 78.5702 21.9545 79.3371 22.0494 79.9862C22.1442 80.6353 22.2771 81.501 22.8898 81.5627C23.414 81.6149 23.8488 80.9507 24.3635 81.067C25.6087 81.346 23.8527 84.2903 28.2715 84.1519C29.0147 84.1282 29.9452 83.9574 30.1381 83.1921C30.3958 82.1762 29.0708 80.9547 29.7863 80.2289C30.2607 79.7474 31.0141 80.2131 31.5517 80.6116C32.8653 81.5906 34.4497 82.1389 36.0875 82.1809C36.4535 82.1888 36.8346 82.1659 37.1564 81.9809C37.7114 81.6631 37.992 80.9239 38.5795 80.6819C39.1614 80.4432 39.8239 80.7982 40.2437 81.2899C40.6635 81.7817 40.9284 82.4015 41.3205 82.9186C42.0242 83.8475 43.2061 84.4049 44.2956 84.1306C45.3858 83.8578 46.25 82.6466 46.0389 81.4741C45.9796 81.1405 45.842 80.8203 45.8428 80.4803C45.8428 79.7055 46.7236 79.0999 47.3861 79.4193L47.4731 81.3405C49.8599 81.2828 52.3875 81.263 54.4431 82.5557C54.7854 82.7707 55.1286 83.0277 55.5247 83.0648C56.1334 83.1226 56.6615 82.6569 57.2237 82.3984C58.1416 81.9762 59.2729 82.1375 60.0556 82.8016C61.0724 83.6633 61.1388 84.7852 65.0539 84.7733C66.0295 84.7702 67.149 84.6967 67.7459 83.8744C68.0835 83.4088 68.2519 82.7154 68.7824 82.5541C69.3675 82.3762 69.9881 83.0079 70.5605 82.7873C71.0602 82.5944 71.1993 81.875 71.6563 81.5848C72.42 81.1002 73.2415 82.0829 73.6976 82.8972C74.1538 83.71 75.1666 84.571 75.7928 83.8989C76.4332 83.9598 77.1953 83.9566 77.5969 83.4214C78.012 82.868 77.9883 82.0916 78.0397 81.3856C78.0927 80.6788 78.3346 79.8644 78.9663 79.6447C79.7174 79.383 80.5965 80.1293 81.2875 79.7198C81.5856 79.5427 81.7556 79.1908 82.0275 78.9718C82.5098 78.5844 83.2063 78.6935 83.7463 78.9821C84.2863 79.2707 84.7456 79.7126 85.2912 79.9894C86.9175 80.8132 89.1256 79.7285 89.5929 77.8737C89.7202 77.3677 89.7558 76.7882 90.1171 76.4332C90.884 75.6797 92.1039 76.6814 93.1332 76.5043C94.078 76.3415 94.6164 75.1429 94.4409 74.1404C94.2646 73.1363 93.576 72.3283 92.8502 71.6642C88.7216 67.8883 86.4368 71.1582 83.2688 72.4849C77.7566 74.795 72.0579 70.1842 66.3758 70.6878C63.46 70.9471 60.7561 72.5141 57.8435 72.7964C53.8367 73.1838 50.022 71.125 46.0855 70.2419C42.1981 69.3691 43.3927 71.8856 38.9068 69.9889C29.4036 70.9535 28.6526 69.777 25.1106 69.2276C23.7713 69.0196 21.4611 68.9255 20.2231 69.4853C19.5202 69.8031 18.9185 70.3787 18.1738 70.5566C17.1065 70.8127 15.9522 70.2024 14.9188 70.5842C14.2848 70.8191 13.8136 71.3883 13.2222 71.7251C12.358 72.2161 9.93324 72.4121 7.94881 75.1271C7.27679 76.0458 6.77317 76.9281 5.73193 77.2807Z" fill="#111D33" fill-opacity="0.12549"/>
<path d="M98.2048 68.2851C98.3732 69.0228 99.2745 69.4884 99.3971 70.234C99.5512 71.1709 98.4278 71.8706 98.1953 72.7932C97.8902 74.002 99.0879 75.7762 96.4078 75.7865L92.5512 75.8023C92.1037 75.8038 91.4696 75.5825 91.6293 75.1967C88.032 75.0045 88.5317 76.6182 88.0716 77.4981C87.6209 78.3631 86.2073 78.6279 85.4246 77.9938C85.1321 77.7575 84.936 77.4357 84.6498 77.1922C83.66 76.3478 81.7293 77.0111 81.5822 78.246C77.7659 78.2397 77.7454 78.2049 77.5216 78.3204C77.0931 78.5417 76.38 80.1562 76.822 81.7832C76.9105 82.1106 77.0085 82.5264 76.7152 82.7272C76.1879 83.0893 74.7442 82.5525 74.6067 81.4472C74.5118 80.6898 75.1142 79.9119 75.923 79.7474C74.4999 79.1173 72.642 79.4675 71.6023 80.5618C71.2877 80.8938 71.0078 81.3049 70.5477 81.4243C69.7041 81.6425 68.7229 80.7531 68.0153 81.229C67.3987 81.6417 67.7536 82.6268 67.2563 83.1581C66.9796 83.4538 66.5179 83.5218 66.0949 83.5511C64.9201 83.6317 63.7318 83.5511 62.5822 83.3139C60.8326 82.951 61.3386 82.1034 61.2271 81.622C61.0508 80.863 59.974 80.6906 59.1296 80.6835C57.9232 80.6732 56.5886 80.7056 55.7031 81.4599C53.812 79.511 50.2669 81.1816 47.9551 79.93C48.3931 79.4162 48.6857 78.7995 48.7964 78.1543C47.9717 78.3125 47.0412 78.2808 46.2174 78.439C44.516 78.7647 44.5745 80.7823 45.3714 82.2038C44.5081 83.3993 42.0153 82.7035 42.0177 81.2678C42.0184 80.8566 42.1631 80.3831 41.8659 80.0763C41.6785 79.8826 41.3757 79.832 41.0974 79.7933C40.223 79.6699 39.3185 79.5482 38.4631 79.7561C37.6068 79.9641 36.8067 80.5918 36.7316 81.4038C30.5901 78.7979 30.1419 78.4627 29.2074 78.7354C28.3614 78.9821 27.9242 79.8992 28.0017 80.7135C28.0792 81.5279 28.5448 82.2608 28.9994 82.9636C28.2563 83.3352 27.2443 83.1684 26.6861 82.5826C26.1279 81.9975 26.0813 81.0519 26.5786 80.4218C25.5207 80.0819 24.3782 80.1151 23.3418 80.5159C22.2721 80.032 23.1205 78.2437 22.1931 77.5558C21.4309 76.9898 20.2711 77.8128 20.1074 78.7006C19.9438 79.5885 20.3201 80.4898 20.2837 81.3903C19.5089 81.3563 18.7326 81.7619 18.3657 82.3912C17.5901 82.4727 16.775 82.5493 16.0524 82.2758C15.3306 82.0015 14.7582 81.2488 15.0143 80.5697C15.3479 79.6842 16.8817 79.0129 16.3101 78.2374C15.3693 78.5536 14.2008 77.9915 13.9454 77.1012C13.864 76.819 13.8584 76.5059 13.6687 76.2719C13.2805 75.7959 12.478 75.9762 11.8677 76.1731C8.97074 77.0997 5.8949 77.3238 2.89424 76.8269C2.44043 76.751 1.91941 76.6055 1.75813 76.2078C1.51778 75.6133 2.27519 75.0551 2.31077 74.4211C2.3582 73.5601 1.18177 73.164 0.255175 73.0312C1.23 72.2176 1.52094 70.7898 0.93431 69.7067C0.644947 69.1722 0.165836 68.7129 0.0314318 68.1286C-0.176499 67.2257 0.678152 66.2493 1.68144 66.2446C2.59855 66.2406 3.34805 66.8968 4.21614 67.168C5.08502 67.44 6.39348 66.8842 6.07882 66.0912C7.61814 66.3276 8.67203 68.0171 8.11702 69.3596C8.97167 70.4229 10.7687 70.0632 12.0938 69.5517C13.4189 69.0402 15.1234 68.5413 16.1386 69.4766C16.6129 69.9138 16.7758 70.5502 17.0501 71.1139C18.1728 73.4194 20.445 73.7174 22.937 74.3792C25.1041 74.9563 27.7171 75.4481 29.3892 74.0534C29.9324 73.6004 30.3032 72.9909 30.8566 72.5481C31.41 72.1054 32.286 71.8666 32.8624 72.2833C33.2118 72.7102 33.0355 73.4115 32.5177 73.6526C33.2917 74.006 34.136 74.3697 34.9844 74.2195C35.8327 74.0692 36.5458 73.1363 36.0802 72.4667C35.7639 72.0097 35.1053 71.9061 34.5574 71.7077C34.0095 71.51 33.4537 70.9764 33.7178 70.4925C33.8941 70.1684 34.3377 70.0719 34.7258 70.011C36.281 69.7683 38.2781 69.7146 38.9951 71.008C39.2007 71.378 39.2584 71.8136 39.5122 72.1568C40.3503 73.2857 42.4019 72.5916 43.6495 73.3348C43.4796 73.9145 43.1733 74.4451 42.7561 74.882C45.0125 75.4046 48.0271 75.6315 49.0501 73.7079C49.2146 73.3988 49.3134 73.0462 49.5798 72.8043C49.8921 72.5212 50.361 72.4564 50.7958 72.4058C51.4734 72.3267 52.215 72.2603 52.7905 72.6003C53.3653 72.9395 53.5337 73.8621 52.9297 74.1554C53.2254 75.1453 54.9441 74.633 55.5102 73.7475C56.0771 72.862 56.5206 71.6413 57.6306 71.5369C58.8569 71.4215 59.404 73.3901 58.2679 73.8305C61.4098 74.1127 64.3793 71.9947 67.518 72.3054C68.6328 72.4161 69.7618 72.8312 70.8418 72.5552C71.9225 72.2785 72.6222 70.7684 71.66 70.2379C72.2649 69.6173 73.3314 69.4268 74.1441 69.7944C74.9569 70.1613 75.4455 71.0546 75.2826 71.8737C76.5753 72.0698 77.9865 72.2477 79.1258 71.6508C79.9828 71.2025 80.5323 70.3874 81.3047 69.8229C82.0771 69.2584 83.354 69.0323 83.9548 69.7517C84.1367 69.9707 84.2316 70.2514 84.4514 70.4395C85.0601 70.9558 86.178 69.9873 85.6539 69.3975C85.3376 69.0402 84.7526 69.0157 84.3415 68.7524C83.4006 68.1515 84.343 66.4596 85.423 66.8122C86.416 67.1364 86.4967 68.3681 86.5307 69.3382C86.5654 70.3075 87.1236 71.5638 88.1633 71.4096C89.0804 71.2736 89.3136 70.1913 89.4994 69.354C89.6852 68.516 90.5304 67.5238 91.3241 67.9673L91.5487 69.4505L92.563 67.6408C93.6509 66.9593 95.4021 67.9547 95.2274 69.1556C96.407 69.6537 97.4648 69.2655 98.2048 68.2851Z" fill="#78E75A"/>
<path d="M84.8214 62.9809C77.6743 67.5032 56.2891 79.2454 54.8509 80.1941C53.7188 80.9413 52.687 82.2102 51.3722 82.0639C50.8378 82.0046 50.3531 81.7081 49.8883 81.4132C39.8949 75.0978 30.697 67.24 20.2324 61.9104C23.0288 61.4147 25.8734 61.3697 28.7062 61.3475C43.3934 61.2313 58.0845 61.6875 72.7417 62.7161C75.6416 62.9193 78.812 63.275 80.8589 65.5307" fill="#111D33" fill-opacity="0.188235"/>
<path d="M94.4686 61.5389C94.1429 61.5792 79.4612 63.4861 50.7494 80.0866C50.7494 80.0866 31.0632 61.5381 2.02637 60.5047C2.02637 60.5047 2.58691 60.0446 3.64159 59.2856C11.8782 53.3805 50.407 29.2305 92.6407 60.1632C93.41 60.7206 94.4647 61.5436 94.4686 61.5389Z" fill="#F9A83D"/>
<path d="M94.4684 61.5333C89.7555 61.5641 73.903 63.7352 50.8535 77.0578C50.8535 77.0578 31.1736 61.2495 3.01123 59.7465C11.2478 53.8414 52.2347 30.5998 94.4684 61.5333Z" fill="#FEBC1F"/>
<path d="M72.3414 63.396C76.1891 63.396 79.3082 62.471 79.3082 61.3301C79.3082 60.1891 76.1891 59.2642 72.3414 59.2642C68.4937 59.2642 65.3745 60.1891 65.3745 61.3301C65.3745 62.471 68.4937 63.396 72.3414 63.396Z" fill="#F9A83D"/>
<path d="M72.4664 63.3952C75.7534 63.3952 78.4181 62.6051 78.4181 61.6306C78.4181 60.656 75.7534 59.8659 72.4664 59.8659C69.1793 59.8659 66.5146 60.656 66.5146 61.6306C66.5146 62.6051 69.1793 63.3952 72.4664 63.3952Z" fill="#FFD06C"/>
<path d="M50.7286 72.1923C54.5763 72.1923 57.6955 71.2674 57.6955 70.1264C57.6955 68.9855 54.5763 68.0605 50.7286 68.0605C46.8809 68.0605 43.7617 68.9855 43.7617 70.1264C43.7617 71.2674 46.8809 72.1923 50.7286 72.1923Z" fill="#F9A83D"/>
<path d="M50.8536 72.1923C54.1406 72.1923 56.8053 71.4023 56.8053 70.4277C56.8053 69.4531 54.1406 68.663 50.8536 68.663C47.5665 68.663 44.9019 69.4531 44.9019 70.4277C44.9019 71.4023 47.5665 72.1923 50.8536 72.1923Z" fill="#FFD06C"/>
<path opacity="0.36" d="M82.9443 66.7434C82.0264 67.1965 80.6468 67.5815 79.7028 67.1648C80.6215 66.8304 82.0154 66.4556 82.9443 66.7434ZM79.7036 68.8504C78.7786 69.3074 77.4029 69.6869 76.4629 69.2726C77.3808 68.9382 78.7746 68.5634 79.7036 68.8504ZM90.5721 65.6666C89.655 66.1196 88.2754 66.5047 87.3314 66.088C88.2501 65.7536 89.6432 65.3788 90.5721 65.6666Z" fill="white"/>
<path opacity="0.3" d="M24.6521 71.4436C23.3705 72.0516 22.1079 71.5559 21.9521 70.9123C22.5554 71.2159 23.8132 71.0705 24.6521 71.4436ZM24.6521 67.4376C24.7746 67.3522 24.8877 67.2953 25.0126 67.2874C25.264 67.2518 25.5581 67.4344 25.6372 67.7072C25.6736 67.81 25.6664 67.9112 25.6981 68.0606C25.4293 68.1286 25.196 67.9033 25.0893 67.844C25.0197 67.7697 24.8284 67.689 24.6521 67.4376Z" fill="white"/>
<path opacity="0.4" d="M12.0038 64.9116C11.735 64.9116 11.6504 65.027 10.0731 65.1187C9.97031 65.1234 9.87544 65.1203 9.81456 65.1527C9.74261 65.1701 9.70387 65.2318 9.72127 65.1764L9.40107 65.3583C8.93303 65.1883 8.49107 64.9258 8.14795 64.555L9.54654 64.8681L9.22713 65.0499C9.32517 64.7313 9.6683 64.5716 9.99561 64.574C10.2383 64.5661 10.4897 64.5518 10.6993 64.5858C11.0202 64.6175 11.7429 64.7218 12.0038 64.9116Z" fill="white"/>
<path opacity="0.3" d="M19.4708 66.4445C19.2218 66.3576 19.1348 66.4872 18.6699 66.5766C17.9797 66.7165 17.514 66.511 17.3164 66.443C17.1575 66.3908 17.0318 66.2777 16.9709 66.2445C16.8223 66.1536 16.4609 66.1844 16.3669 65.948C16.3313 65.854 16.3653 65.801 16.3115 65.7385C16.3961 65.7385 16.4538 65.846 16.4894 65.8682C16.578 65.9133 16.8104 65.786 17.0863 65.8287C17.2998 65.8642 17.3907 65.9583 17.5133 65.9575C17.635 65.9789 17.7315 66.0279 17.8667 66.0405C18.7956 66.22 19.2605 66.0903 19.4708 66.4445Z" fill="white"/>
<path opacity="0.59" d="M23.8076 78.454C24.1713 78.9062 24.8093 78.9149 25.0291 78.688C25.1081 78.6058 25.1461 78.4888 25.2054 78.3892C25.4576 77.967 26.1557 78.0089 26.3621 78.4579C28.3702 76.5123 30.5254 78.5489 37.1689 78.3734C38.4892 78.3378 38.8846 78.1457 39.9519 77.2032C40.0744 77.0949 40.2041 76.9771 40.2499 76.8135C40.3132 76.5842 40.1851 76.3328 40.0009 76.1976C39.8159 76.0624 39.5874 76.0181 39.3652 75.9857C37.0827 75.6529 36.4305 76.2174 35.6367 76.4933C33.2554 77.3226 30.8258 75.8845 28.4129 75.7936C27.0111 75.7398 25.6386 76.1225 24.2432 76.1889C23.7246 76.2126 23.1751 76.132 23.2621 76.8064C23.3237 77.2886 23.5048 78.0769 23.8076 78.454ZM39.355 73.9491C39.8594 74.2147 40.5693 74.2321 40.7963 74.7816C40.9196 75.082 40.6824 75.2481 40.382 75.2631C39.5929 75.3002 38.8087 74.8251 38.0394 75.0196C37.6385 75.1208 37.2954 75.3943 36.9072 75.5422C36.519 75.6908 36.0992 75.7082 35.6865 75.724C35.3355 75.7375 34.8959 75.6924 34.771 75.3414C34.416 74.3436 36.3949 74.4084 36.863 74.1001C37.7089 73.5411 37.1484 72.5062 36.9452 71.7259C37.9927 71.733 38.407 73.4494 39.355 73.9491ZM43.0463 80.5657C43.2013 80.8978 43.4345 80.8859 43.6314 80.6582C43.8828 80.3673 43.9294 79.9356 43.9041 79.5395C43.8709 79.0201 43.8883 78.9023 44.3437 78.575C44.6189 78.3765 44.8924 78.1457 45.0331 77.8247C45.1747 77.5037 45.1422 77.0712 44.879 76.8546C44.3595 76.4284 43.0028 76.9589 42.7783 77.5922C42.6431 77.9725 42.8091 78.5125 42.8234 78.9023C42.8439 79.4636 42.8052 80.0463 43.0463 80.5657Z" fill="#F1F6FA"/>
<path opacity="0.59" d="M69.2352 75.1666C69.8471 75.6845 69.836 76.8514 68.662 77.6318C68.1244 77.9899 67.5045 78.1899 66.9701 78.5536C66.4356 78.9173 65.9715 79.5269 66.0316 80.1997C66.064 80.5633 66.2158 81.0124 65.9431 81.2314C65.8387 81.3152 65.7003 81.3302 65.5707 81.3421C62.6968 81.603 64.3334 79.8581 60.6736 79.6921C60.4127 79.6802 60.1439 79.6739 59.8988 79.7688C59.1493 80.0589 59.6174 80.4503 56.428 80.3649C55.8865 80.3499 55.2492 80.2574 54.9947 79.7482C54.846 79.4494 54.88 79.0762 55.0144 78.7702C55.1488 78.4643 55.371 78.2129 55.5995 77.9788C56.6945 76.8546 58.4512 77.1724 59.7755 76.3763C60.8879 75.7074 60.9812 75.0061 62.8668 74.6512C65.0663 74.2361 67.1812 74.6219 67.446 74.784C67.6658 74.9184 67.8769 75.3801 68.3947 75.4204C68.6541 75.4402 69.1253 75.4173 69.2352 75.1666ZM71.354 74.9793C72.1683 74.6567 72.3494 74.1594 73.4088 72.4153C73.7464 72.4572 74.0342 72.8446 74.1172 73.1964C74.2674 73.8368 74.3117 74.2171 74.9537 74.3602C75.8059 74.55 76.6796 74.2614 77.5168 74.0092C78.3051 73.772 81.8288 72.8209 82.6337 72.9719C83.4211 73.1189 83.7437 73.9625 82.8985 74.8496C81.7822 76.0205 80.5164 75.8576 80.1337 76.8593C80.0025 77.2048 80.0104 77.3724 79.4981 77.4049C78.8118 77.4499 78.1232 77.4562 77.4362 77.4238C75.7783 77.3448 76.1372 78.1464 75.6668 78.6603C74.9687 79.4225 73.9156 78.2476 71.3382 78.4698C70.814 78.5149 70.599 78.4105 70.5752 77.9014C70.5381 77.091 70.9998 75.6979 71.354 74.9793ZM85.9637 75.6268C86.6255 75.9762 87.5766 75.6568 87.7853 74.9018C87.9126 74.4385 87.7971 73.84 88.1585 73.549C88.3047 73.4304 88.4953 73.4012 88.6771 73.3751C90.5516 73.1047 90.6765 73.4146 91.7115 74.0218C92.2559 74.3426 92.866 74.5356 93.4959 74.5863C94.3592 74.6535 94.8083 74.4282 95.4835 73.9167C96.3278 73.2771 97.1706 72.443 97.294 71.3472C97.3121 71.174 97.2536 71.0942 97.041 71.1234C95.3095 71.3606 93.5963 71.7765 91.8522 71.8453C91.3375 71.8658 91.3762 71.6421 91.2592 71.45C91.1209 71.2231 90.8054 71.1986 90.573 71.3061C89.9294 71.6033 89.7998 72.5663 87.0619 72.4272C86.3875 72.3932 84.7485 71.982 84.8237 73.1031C84.8814 73.9689 85.1834 75.2141 85.9637 75.6268ZM4.01603 70.2356C3.35587 70.8467 2.72338 71.7354 2.96847 72.6304C3.31476 72.8462 3.66816 73.0691 3.91879 73.402C4.16941 73.7356 4.29828 74.2076 4.13621 74.5982C3.99943 74.9255 3.2776 75.7137 4.30461 75.9011C5.46589 76.1057 6.66161 75.8646 7.65285 75.2259C8.0276 74.984 8.38021 74.6851 8.79923 74.55C9.80173 74.2258 12.2052 74.7579 13.0717 74.0187C13.5223 73.6344 13.6694 72.9648 13.6449 72.3505C13.6315 72.0153 13.5144 71.9354 13.2433 71.9473C11.3545 72.0224 9.51474 72.7734 7.62676 72.6786C7.2354 72.6588 7.16504 72.5054 7.12393 72.1117C7.02747 71.1993 6.73099 69.8039 6.0906 69.1311C5.32212 68.3231 4.7094 69.592 4.01603 70.2356Z" fill="#F1F6FA"/>
<path d="M85.5644 59.8556C85.0695 59.8849 84.5287 59.9331 84.173 60.2778C83.8077 60.6312 83.7397 61.2028 83.4092 61.5887C82.4352 62.724 80.6579 61.3538 79.1629 61.361C77.7295 61.3689 76.659 62.7011 75.2849 63.1098C73.1376 63.7478 70.5594 62.0662 68.7039 63.3217C67.816 63.9225 67.348 65.0847 66.3463 65.4666C65.5129 65.7844 64.5911 65.4548 63.7056 65.3567C62.8193 65.2587 61.6967 65.5971 61.5702 66.4794C60.2435 65.9513 58.6876 67.6447 59.3256 68.9224C55.337 68.8486 51.382 68.1765 47.5929 66.9284C47.0118 66.7363 46.4118 66.5292 45.8038 66.5964C45.3168 66.6517 44.8598 66.881 44.3704 66.9111C42.7457 67.0115 41.3187 65.8943 40.0189 64.914C39.4117 64.4554 38.9065 64.8531 38.5373 65.1978C36.9221 66.7023 33.6529 66.4106 31.7333 65.1717C28.9883 63.4007 22.7393 62.2385 20.3018 63.2758C19.1325 63.7739 19.0029 61.2503 16.9654 62.2085C15.064 63.1035 12.742 60.0644 10.688 60.5047C12.2716 58.5148 15.2688 58.6334 17.8035 58.8516C29.0333 59.8169 40.158 58.8476 43.6407 58.0791C45.1642 57.7431 46.6608 57.2 48.2199 57.1604C50.1601 57.1122 50.5364 57.6989 59.173 58.121C73.5305 58.8231 75.0596 58.9591 77.7295 58.7883C81.4588 58.5511 86.208 56.7541 89.8496 57.9218C90.4054 58.0997 92.1747 58.7203 91.7217 59.4414C91.3161 60.0849 86.4191 59.805 85.5644 59.8556Z" fill="#F34B58"/>
<path opacity="0.3" d="M55.7309 62.656C60.7924 62.1294 70.4007 64.9013 80.6312 61.9523C82.2377 61.4898 83.9043 60.8202 84.8665 59.4524C63.8955 56.5153 66.9196 56.8205 51.9288 56.7999C43.1625 56.7881 34.28 56.3208 25.739 58.2942C23.8708 58.7266 21.9306 59.352 21.004 61.0692C20.555 61.901 20.619 62.2702 21.5527 62.4654C26.9819 63.6023 32.966 63.853 38.4465 63.8632C53.7275 63.8909 51.3074 63.1169 55.7309 62.656Z" fill="#111D33"/>
<path d="M39.0497 53.4864C33.5234 54.1086 27.4752 53.469 25.569 52.0617C23.6629 50.6544 26.6079 49.0029 32.1351 48.3814C37.6638 47.7592 43.7112 48.398 45.6173 49.8053C47.5235 51.2126 44.5785 52.865 39.0497 53.4864ZM32.3904 48.5704C27.2744 49.146 24.5483 50.675 26.3138 51.9779C28.0784 53.2809 33.6767 53.873 38.7936 53.2975C43.912 52.7211 46.638 51.1921 44.8734 49.8899C43.108 48.5862 37.5096 47.9948 32.3904 48.5704Z" fill="#BC0090"/>
<path d="M37.3742 52.3306C35.2854 52.5646 33.2258 52.1662 31.5632 50.9296C31.1758 50.6672 30.9663 50.4268 31.3592 50.2442C32.0344 49.9113 33.5168 50.2134 34.1192 50.4735C34.7818 50.7486 34.5936 51.0324 35.3399 51.2617C36.0752 51.4957 36.9591 51.5028 37.7655 51.8222C38.4202 52.0942 38.0762 52.2515 37.3742 52.3306Z" fill="#F9EAF8"/>
<path d="M37.3734 52.3559C35.2633 52.5931 32.8551 52.1875 30.93 51.0119C30.4176 50.7019 30.1204 50.4197 30.6817 50.1556C31.7728 49.6465 34.5533 49.9264 35.0823 50.8142C35.5092 51.4894 36.7085 51.3202 37.8589 51.8056C38.5436 52.1061 38.1174 52.2721 37.3734 52.3559ZM37.7656 51.8222C36.9607 51.5028 36.0539 51.4886 35.34 51.2617C34.4071 50.9747 34.9423 50.5533 33.1579 50.2015C31.9451 49.9485 30.9853 50.2062 31.1679 50.5541C31.3261 50.8703 32.3847 51.4831 32.844 51.691C34.2078 52.3219 35.7946 52.4777 37.2778 52.3393C38.0273 52.2674 38.4574 52.11 37.7656 51.8222Z" fill="#BC0090"/>
<path d="M40.2562 54.3774C32.8007 55.2163 24.6448 54.3537 22.0729 52.4555C19.5018 50.5564 23.4723 48.3293 30.9277 47.4904C38.3856 46.6508 46.5423 47.5142 49.1134 49.4116C51.6845 51.3107 47.714 53.5394 40.2562 54.3774ZM32.135 48.3815C26.6086 49.0029 23.6628 50.6545 25.569 52.0617C27.4751 53.469 33.5225 54.1086 39.0489 53.4864C44.5784 52.8642 47.5243 51.2134 45.6173 49.8053C43.7111 48.3981 37.6638 47.7592 32.135 48.3815Z" fill="white"/>
<path d="M37.757 52.5322C34.2964 52.9212 30.5118 52.5211 29.3188 51.6396C28.1249 50.7588 29.9671 49.7247 33.4276 49.3357C36.8897 48.946 40.6743 49.3468 41.8673 50.2275C43.0612 51.1091 41.2198 52.1424 37.757 52.5322ZM35.0823 50.8142C34.5534 49.9263 31.7744 49.6464 30.6818 50.1556C30.1228 50.4189 30.4153 50.7003 30.93 51.0126C32.8567 52.1883 35.2705 52.5923 37.3735 52.3559C38.1167 52.2721 38.5436 52.1068 37.8589 51.8056C36.7173 51.3241 35.5077 51.4854 35.0823 50.8142ZM39.7944 50.6576C39.4421 50.4463 39.071 50.2679 38.6859 50.1248C36.3299 49.2361 32.8536 49.7848 35.6104 50.3224C35.914 50.3825 36.2295 50.441 36.4461 50.5209C37.0122 50.7248 36.5513 51.0466 37.8423 51.3415C38.5041 51.4909 39.1105 51.4878 39.5437 51.4024C39.8299 51.347 40.3162 51.2 40.1596 50.9517C40.094 50.8474 39.9469 50.7517 39.7944 50.6576Z" fill="white"/>
<path d="M41.922 55.6069C31.8054 56.7453 20.7328 55.5752 17.2423 52.9986C13.7517 50.422 19.1445 47.3987 29.262 46.2603C39.3802 45.1218 50.4535 46.2919 53.9449 48.8693C57.4346 51.4459 52.0411 54.4684 41.922 55.6069ZM29.5181 46.45C19.8094 47.5426 14.6356 50.4426 17.9847 52.9156C21.3337 55.3879 31.9572 56.5105 41.6659 55.4179C51.3746 54.3253 56.5507 51.4253 53.2017 48.9523C49.8526 46.4793 39.2276 45.3574 29.5181 46.45Z" fill="#BC0090"/>
<path d="M64.6811 50.2394L64.7823 54.5371C64.8598 57.717 57.2691 60.8731 45.1791 62.233C26.7302 64.3123 6.7206 61.2044 6.60755 55.9278L6.50635 51.6301C6.52295 52.4349 7.03922 53.2469 8.09627 54.028C13.327 57.8886 29.9148 59.6437 45.0779 57.9352C57.1679 56.5753 64.7539 53.4208 64.6811 50.2394Z" fill="#9E0088"/>
<path d="M45.0766 57.936C29.9167 59.6422 13.3273 57.8894 8.09737 54.028C2.86748 50.1667 10.9483 45.6381 26.1075 43.9319C41.2698 42.2258 57.8585 43.9786 63.0891 47.8399C68.319 51.7005 60.2382 56.2299 45.0766 57.936ZM26.3645 44.1209C11.614 45.7812 3.75138 50.1872 8.83897 53.9434C13.9273 57.7004 30.07 59.4066 44.8197 57.7463C59.5709 56.086 67.432 51.6791 62.3436 47.9229C57.2552 44.1659 41.1149 42.4598 26.3629 44.1201" fill="#BC0090"/>
<path d="M41.6656 55.4179C31.9569 56.5105 21.3334 55.3879 17.9844 52.9156C14.6354 50.4426 19.8091 47.5426 29.5178 46.45C39.2265 45.3574 49.8524 46.4793 53.2014 48.9523C56.5504 51.4245 51.3751 54.3253 41.6656 55.4179ZM30.6713 47.3023C22.8087 48.187 18.6153 50.5367 21.3287 52.5401C24.0413 54.5427 32.6487 55.4519 40.5121 54.5672C48.3771 53.6817 52.5705 51.332 49.8571 49.3294C47.1445 47.326 38.5371 46.4168 30.6713 47.3023Z" fill="white"/>
<path d="M38.0122 52.7211C34.1445 53.1559 29.9084 52.7093 28.5739 51.7234C27.2385 50.7383 29.3028 49.5816 33.1713 49.146C37.0413 48.7111 41.2774 49.1578 42.612 50.1437C43.9473 51.1296 41.8822 52.2863 38.0122 52.7211ZM33.4266 49.3357C29.9669 49.7247 28.1248 50.7588 29.3186 51.6396C30.5125 52.5211 34.2963 52.9211 37.7568 52.5322C41.2189 52.1424 43.061 51.1091 41.868 50.2275C40.6742 49.3468 36.8887 48.9467 33.4266 49.3357Z" fill="#BC0090"/>
<path d="M62.3444 47.9237C57.2561 44.1667 41.1157 42.4606 26.3637 44.1208C11.6148 45.7811 3.75143 50.1872 8.8398 53.9442C13.9282 57.7012 30.0709 59.4073 44.8205 57.747C59.5718 56.0868 67.4328 51.6799 62.3444 47.9237ZM43.3041 56.6275C30.9777 58.0143 17.4907 56.588 13.2388 53.4493C8.98686 50.3105 15.5545 46.6279 27.8809 45.2404C40.2089 43.8528 53.6967 45.2791 57.9478 48.4186C62.2005 51.5573 55.6321 55.24 43.3041 56.6275Z" fill="white"/>
<path d="M57.2063 48.5017C53.0951 45.4673 40.0556 44.0885 28.1371 45.4301C16.2218 46.771 9.87081 50.3319 13.9812 53.3663C18.0916 56.4007 31.1311 57.7787 43.0472 56.4378C54.9649 55.0969 61.3167 51.536 57.2063 48.5017ZM41.9222 55.6069C31.8055 56.7454 20.733 55.5753 17.2425 52.9987C13.7519 50.4213 19.1447 47.3987 29.2621 46.2603C39.3804 45.1218 50.4537 46.2919 53.945 48.8693C57.4348 51.4459 52.0412 54.4684 41.9222 55.6069Z" fill="white"/>
<path d="M40.1597 50.9525C39.9897 50.679 39.0078 50.2457 38.686 50.1248C36.3284 49.2361 32.8536 49.7848 35.6105 50.3224C35.9141 50.3825 36.2296 50.441 36.4462 50.5208C37.0123 50.7248 36.5513 51.0466 37.8424 51.3415C39.0236 51.6079 40.4166 51.3573 40.1589 50.9525H40.1597ZM37.2281 50.7738C36.8383 50.426 36.4399 50.4078 35.7299 50.2821C32.9311 49.8219 36.4462 49.2369 38.3231 50.1951C38.6631 50.3691 38.9232 50.5541 39.1611 50.7406C40.1937 51.4878 37.8369 51.3542 37.2281 50.7738Z" fill="#BC0090"/>
<path d="M38.7938 53.2975C33.6769 53.8731 28.0786 53.2817 26.314 51.978C24.5485 50.675 27.2746 49.146 32.3906 48.5704C37.5098 47.9941 43.1082 48.5862 44.8728 49.8892C46.6382 51.1921 43.9122 52.7211 38.7938 53.2975ZM33.1717 49.1468C29.3033 49.5816 27.239 50.7383 28.5743 51.7242C29.9097 52.7093 34.145 53.1568 38.0134 52.7211C41.8835 52.2863 43.9478 51.1296 42.6124 50.1437C41.2779 49.1578 37.0418 48.7112 33.1717 49.1468Z" fill="white"/>
<path d="M40.5122 54.5664C32.6488 55.4519 24.0414 54.5427 21.3288 52.5393C18.6154 50.5359 22.8088 48.1862 30.6715 47.3015C38.5373 46.416 47.1447 47.3252 49.858 49.3286C52.5706 51.3312 48.3772 53.6809 40.5122 54.5664ZM30.9276 47.4904C23.4722 48.3293 19.5017 50.5564 22.0728 52.4555C24.6446 54.3537 32.8014 55.2163 40.2561 54.3767C47.7131 53.5386 51.6843 51.3107 49.1133 49.4116C46.5422 47.5126 38.3847 46.6508 30.9276 47.4904Z" fill="#BC0090"/>
<path d="M43.3037 56.6276C30.9781 58.0143 17.4903 56.588 13.2384 53.4493C8.98645 50.3106 15.5541 46.6279 27.8805 45.2404C40.2085 43.8529 53.6963 45.2791 57.9474 48.4186C62.2001 51.5574 55.6317 55.24 43.3037 56.6276ZM28.1366 45.4301C16.2213 46.771 9.87036 50.3319 13.9807 53.3663C18.0911 56.4007 31.1307 57.7787 43.0468 56.4378C54.9645 55.0969 61.3162 51.536 57.2058 48.5017C53.0947 45.4673 40.0551 44.0885 28.1366 45.4301Z" fill="#BC0090"/>
<path d="M39.1603 50.7407C38.9001 50.5317 38.6199 50.349 38.3238 50.1951C36.4674 49.248 32.9121 49.8188 35.7298 50.2821C36.435 50.407 36.8446 50.4307 37.228 50.7739C37.8526 51.37 40.1817 51.4799 39.1603 50.7407Z" fill="#F9EAF8"/>
<path d="M65.8711 52.2792C60.3234 51.8878 54.4918 50.1643 52.8719 48.4345C51.2519 46.7046 54.4484 45.6151 59.9961 46.0049C65.5462 46.3955 71.3777 48.1198 72.9977 49.8496C74.6169 51.5795 71.4212 52.669 65.8711 52.2792ZM60.2135 46.2373C55.0777 45.876 52.12 46.8856 53.6198 48.4866C55.1188 50.0884 60.5179 51.6854 65.6529 52.0468C70.7919 52.4081 73.7488 51.3985 72.2498 49.7967C70.7508 48.1957 65.3517 46.5987 60.2135 46.2373Z" fill="#BC0090"/>
<path d="M60.9029 49.8821C60.1791 49.5056 59.5259 49.0068 58.9723 48.4076C58.6394 48.0787 58.4766 47.8051 58.8956 47.696C59.6056 47.4952 60.9931 48.0376 61.5694 48.4218C61.805 48.5752 61.93 48.7191 62.0304 48.8827C62.5751 49.705 63.8606 49.7524 64.9106 50.4086C66.2546 51.2822 62.6273 50.7707 60.9029 49.8821Z" fill="#F9EAF8"/>
<path d="M65.0911 50.8545C64.4333 50.966 62.8536 50.6616 61.9365 50.3809C59.79 49.72 58.0681 48.2937 57.9068 47.8763C57.5589 46.9086 61.9547 47.5837 62.4544 48.9317C62.7525 49.6733 63.9621 49.7247 65.0057 50.4102C65.1322 50.4956 65.4397 50.7952 65.0911 50.8545ZM64.9108 50.4094C64.1763 49.95 63.2877 49.7714 62.626 49.4188C61.9326 49.0567 62.1706 48.8131 61.5697 48.4218C60.3071 47.5798 58.4918 47.4493 58.6523 47.9664C58.7504 48.3064 59.6801 49.1001 60.0936 49.3887C61.3626 50.2853 63.011 50.7375 64.4341 50.8379C65.1369 50.8877 65.5061 50.796 64.9108 50.4094Z" fill="#BC0090"/>
<path d="M66.8967 53.3742C59.4128 52.8476 51.5477 50.5209 49.3633 48.1878C47.178 45.8547 51.4877 44.3841 58.9708 44.9099C66.4571 45.4364 74.3221 47.7632 76.5066 50.0963C78.6918 52.4294 74.3822 53.9007 66.8967 53.3742ZM59.9962 46.0049C54.4485 45.6151 51.2521 46.7046 52.8728 48.4344C54.4936 50.1643 60.3235 51.8894 65.8713 52.2792C71.4214 52.6689 74.617 51.5795 72.9978 49.8496C71.3779 48.1198 65.5463 46.3946 59.9962 46.0049Z" fill="white"/>
<path d="M64.7732 51.1059C61.3 50.8616 57.6497 49.7817 56.6362 48.6993C55.6226 47.6162 57.6213 46.9339 61.0952 47.1782C64.57 47.4225 68.2194 48.5017 69.2338 49.5848C70.2473 50.6679 68.2487 51.3502 64.7732 51.1059ZM62.4543 48.9318C61.9491 47.5695 57.5651 46.9268 57.9067 47.8763C58.068 48.2937 59.3061 49.1389 59.7219 49.3911C61.1893 50.279 62.9318 50.7581 64.4284 50.8632C65.1669 50.9154 65.6278 50.8324 65.0056 50.4102C63.9699 49.7303 62.7508 49.6686 62.4543 48.9318ZM67.1165 49.6322C66.369 48.9781 65.491 48.4903 64.5407 48.2012C63.539 47.8929 61.4716 47.598 62.3381 48.1823C63.0923 48.6788 63.9312 48.7009 64.1494 49.233C64.4 49.9485 66.3757 50.4782 67.179 50.2687C67.6122 50.1604 67.4415 49.9248 67.1165 49.6322Z" fill="white"/>
<path d="M68.312 54.885C58.1558 54.1711 47.4793 51.0134 44.5138 47.847C41.5482 44.6798 47.3995 42.6843 57.5557 43.3982C67.7135 44.1122 78.3907 47.2706 81.3563 50.437C84.3218 53.6042 78.4705 55.5997 68.312 54.885ZM57.7731 43.6315C48.0272 42.946 42.4131 44.8601 45.2585 47.8992C48.1047 50.9375 58.3479 53.9671 68.0938 54.6526C77.8404 55.338 83.4561 53.424 80.6107 50.3849C77.7653 47.3458 67.519 44.3161 57.7731 43.6315Z" fill="#BC0090"/>
<path d="M91.6675 53.7316L90.9876 57.9771C90.4871 61.1182 82.4506 62.8457 70.3139 61.9911C51.7938 60.6921 32.6792 54.0091 33.5251 48.7997L34.2043 44.5549C34.0746 45.3495 34.4351 46.2413 35.3333 47.2011C39.7773 51.9464 55.7722 56.679 70.9938 57.7463C83.1297 58.6001 91.1623 56.8735 91.6675 53.7316Z" fill="#C600A1"/>
<path d="M70.9921 57.7471C55.7736 56.6774 39.7772 51.9463 35.3339 47.2011C30.8907 42.4558 39.6586 39.4665 54.8763 40.5362C70.0955 41.6067 86.0928 46.3377 90.536 51.083C94.9792 55.8282 86.2113 58.8167 70.9921 57.7471ZM55.0929 40.7687C40.2871 39.7282 31.7556 42.6369 36.0787 47.2533C40.4025 51.8704 55.9681 56.4742 70.7739 57.5154C85.582 58.5558 94.1127 55.6472 89.7881 51.03C85.4658 46.4128 69.901 41.8099 55.0929 40.7687Z" fill="#BC0090"/>
<path d="M68.0944 54.6526C58.3478 53.9671 48.1038 50.9375 45.2584 47.8992C42.413 44.8601 48.0271 42.946 57.7738 43.6315C67.5196 44.3161 77.7652 47.3465 80.6106 50.3849C83.4568 53.424 77.8403 55.338 68.0944 54.6526ZM58.7533 44.6774C50.8607 44.1224 46.3107 45.6736 48.6153 48.1348C50.9207 50.5967 59.2206 53.0508 67.1141 53.6058C75.0091 54.1616 79.5591 52.6104 77.2544 50.1493C74.949 47.6873 66.6492 45.2332 58.7541 44.6782" fill="white"/>
<path d="M64.9907 51.3384C61.108 51.0656 57.0229 49.8575 55.8891 48.6463C54.7546 47.4351 56.9944 46.6722 60.8779 46.9457C64.7622 47.2185 68.8473 48.4265 69.981 49.6377C71.1155 50.849 68.8757 51.6119 64.9907 51.3384ZM61.0945 47.1782C57.6214 46.9331 55.6227 47.6162 56.6363 48.6993C57.6506 49.7824 61.3001 50.8616 64.7732 51.1059C68.2488 51.351 70.2474 50.6679 69.2339 49.5848C68.2195 48.5016 64.57 47.4225 61.0945 47.1782Z" fill="#BC0090"/>
<path d="M89.7887 51.03C85.4649 46.4128 69.9017 41.8099 55.0935 40.7686C40.287 39.7282 31.7555 42.6369 36.0793 47.2532C40.4024 51.8704 55.968 56.4741 70.7737 57.5154C85.5819 58.5558 94.1134 55.6472 89.7887 51.03ZM69.4858 56.1389C57.1128 55.2693 44.1072 51.4221 40.4941 47.5639C36.881 43.7058 44.0084 41.2746 56.3814 42.1451C68.7569 43.0148 81.7632 46.8619 85.3755 50.7201C88.9878 54.5783 81.8613 57.0094 69.4858 56.1389Z" fill="white"/>
<path d="M84.6302 50.6679C81.138 46.9378 68.5641 43.2196 56.5998 42.3784C44.6379 41.5372 37.7469 43.8869 41.2398 47.6162C44.7319 51.3463 57.3058 55.0645 69.267 55.9057C81.2313 56.7469 88.1231 54.3972 84.6302 50.6679ZM68.3119 54.885C58.1557 54.1711 47.4793 51.0134 44.5137 47.847C41.5482 44.6806 47.3995 42.6843 57.5557 43.3982C67.7134 44.1122 78.3907 47.2707 81.3562 50.4371C84.3218 53.6043 78.4705 55.5998 68.3119 54.885Z" fill="white"/>
<path d="M66.5007 50.3113C66.8462 50.3359 67.5506 50.3066 67.4226 49.988C67.3079 49.697 66.1101 48.6835 64.5408 48.2012C63.5391 47.8929 61.4716 47.598 62.3381 48.1822C63.0924 48.6787 63.9312 48.7009 64.1494 49.233C64.3629 49.8449 65.8034 50.2623 66.5007 50.3113ZM64.5716 49.2812C64.1099 48.6843 63.1469 48.6258 62.4354 48.183C61.5823 47.6407 63.4679 47.9063 64.4491 48.2281C65.2476 48.5001 65.8445 48.8795 66.4786 49.5982C67.3672 50.5303 65.0634 49.9595 64.5716 49.2812Z" fill="#BC0090"/>
<path d="M65.654 52.0459C60.5182 51.6854 55.1191 50.0884 53.6201 48.4866C52.1203 46.8856 55.078 45.876 60.2138 46.2373C65.3528 46.5986 70.751 48.1957 72.25 49.7966C73.7498 51.3984 70.7922 52.4072 65.654 52.0459ZM60.8771 46.9465C56.9944 46.6729 54.7546 47.4367 55.8883 48.6471C57.0229 49.8583 61.108 51.0664 64.9907 51.3391C68.8757 51.6127 71.1155 50.849 69.981 49.6385C68.8465 48.4273 64.7622 47.2193 60.8771 46.9465Z" fill="white"/>
<path d="M67.1139 53.6058C59.2204 53.0508 50.9205 50.5968 48.6151 48.1348C46.3105 45.6736 50.8605 44.1225 58.7531 44.6775C66.649 45.2333 74.9488 47.6873 77.2534 50.1485C79.5589 52.6105 75.0089 54.1616 67.1139 53.6058ZM58.9706 44.9099C51.4874 44.3842 47.1778 45.8547 49.363 48.1878C51.5475 50.5209 59.4125 52.8477 66.8964 53.3742C74.3819 53.9 78.6916 52.4294 76.5063 50.0963C74.3219 47.7632 66.4569 45.4365 58.9706 44.9099Z" fill="#BC0090"/>
<path d="M69.486 56.139C57.1129 55.2693 44.1074 51.4222 40.4943 47.564C36.8812 43.7058 44.0085 41.2747 56.3816 42.1451C68.757 43.0148 81.7634 46.8619 85.3757 50.7201C88.988 54.5783 81.8614 57.0094 69.486 56.139ZM56.5998 42.3784C44.6379 41.5371 37.7477 43.8868 41.2398 47.6162C44.7319 51.3463 57.3058 55.0645 69.267 55.9057C81.2313 56.7469 88.1231 54.3972 84.6302 50.6679C81.138 46.9378 68.5641 43.2196 56.5998 42.3784Z" fill="#BC0090"/>
<path d="M66.4784 49.5982C65.8459 48.8811 65.249 48.5009 64.4489 48.2281C63.4685 47.9071 61.5829 47.6407 62.4352 48.183C63.1356 48.6194 64.1113 48.6866 64.5714 49.282C65.0798 49.9825 67.3472 50.509 66.4784 49.5982Z" fill="#F9EAF8"/>
<path d="M39.2191 37.6845C38.838 37.724 38.4435 37.7714 38.1146 37.754C37.3936 37.7224 35.8226 37.1674 35.5451 36.4258C35.3949 36.0353 35.5562 35.5838 35.3735 35.2004C35.2028 34.8588 34.7743 34.5829 34.4438 34.2833C33.9204 33.8113 33.6516 33.2744 33.3844 32.7392C33.3409 32.6601 33.2998 32.5771 33.3638 32.4807C33.4547 32.3384 33.7536 32.1961 34.1094 32.0877C34.8272 31.8695 35.5451 31.8553 36.2835 31.8347C38.3415 31.7747 40.5094 31.6039 42.5349 31.5738C48.7357 31.4837 47.8201 32.7518 49.803 33.31C51.0395 33.6595 54.1616 33.6302 54.6605 34.8533C54.8281 35.2786 54.583 35.9127 53.6904 36.4242C52.1274 37.3208 50.8071 36.4045 39.2191 37.6845ZM20.6239 45.3495C19.3969 45.7226 18.7422 44.7636 18.2639 44.4671C17.9414 44.2695 17.6156 44.0687 17.546 43.8054C17.4883 43.599 17.5911 43.3658 17.6322 43.1413C17.8702 41.9467 16.5586 41.7055 16.3736 41.1062C16.2763 40.7908 16.6013 40.3591 17.4567 40.0587C18.1256 39.8254 18.5082 39.8089 18.7628 39.3827C19.3178 38.4601 19.0767 38.2015 19.5107 37.894C20.11 37.4702 21.8541 37.2172 22.6447 36.8029C23.6709 36.2574 22.9878 35.67 24.4078 35.2383C24.9567 35.079 25.5302 35.0222 26.0997 35.0707C26.627 35.1261 26.9583 35.2834 27.2603 35.4399C29.2273 36.4614 30.6757 37.6623 31.5533 38.9977C32.5266 40.4761 30.652 41.0738 28.8763 41.7134C20.1472 44.8664 21.8636 44.9723 20.6239 45.3495ZM32.5819 45.6024C31.562 45.7614 30.5121 45.9029 29.6092 45.8918C25.1581 45.8349 32.8104 42.4661 33.9062 41.3695C34.5007 40.7766 34.6897 40.3473 36.1736 39.8958C37.1738 39.5922 38.4016 39.4159 39.4167 39.3898C40.8802 39.3535 42.04 39.5519 43.2607 39.6942C46.7188 40.0974 49.3105 39.7946 49.2543 40.4572C49.1816 41.3086 41.666 44.1999 32.5819 45.6024Z" fill="#DF3260"/>
<path d="M59.046 35.0478C59.1188 35.606 58.8618 36.2211 58.5005 36.8385C55.7381 41.5466 48.6202 43.7145 43.4457 45.2862C33.2397 48.3862 29.4202 48.2115 24.4299 48.0605C17.2243 47.8431 13.472 47.5592 10.708 45.0767C10.1878 44.6118 9.74034 44.1256 9.52529 43.5864C8.80267 41.7625 10.8511 39.4017 14.5386 37.2813C17.3927 35.6416 21.156 34.1481 25.2593 32.9013C33.9465 30.263 39.2863 29.7689 48.1 30.4741C51.3597 30.7342 52.5654 30.901 55.2487 32.1012C57.0679 32.9139 58.8776 33.7884 59.046 35.0478ZM52.2926 33.7093C51.4704 33.5717 50.5027 33.5077 49.803 33.31C48.7958 33.0262 48.459 32.4941 47.6185 32.1407C45.2704 31.1422 39.5559 31.7391 36.2835 31.834C35.5451 31.8553 34.8288 31.8695 34.1094 32.0878C33.7536 32.1961 33.4547 32.3384 33.3638 32.4807C33.3006 32.5771 33.3409 32.661 33.3836 32.7392C33.6516 33.2745 33.9212 33.8113 34.443 34.2833C34.7743 34.5829 35.2028 34.8589 35.3735 35.2004C35.7214 35.9293 34.7806 36.8243 37.4133 37.6244C38.7842 38.0395 40.1631 37.2726 49.4638 36.9137C50.577 36.8702 52.027 36.9975 53.1117 36.6686C53.9577 36.4108 54.9578 35.6091 54.6613 34.8533C54.4352 34.3015 53.5268 33.9141 52.2926 33.7093ZM27.2603 35.4407C26.9583 35.2826 26.627 35.1269 26.0989 35.0707C25.5294 35.0222 24.9559 35.079 24.407 35.2383C22.7301 35.7483 24.0061 36.4535 21.8406 37.1105C20.9789 37.3722 19.9827 37.5604 19.5107 37.894C19.0775 38.2008 19.3273 38.4451 18.7628 39.3827C18.5114 39.8033 18.1517 39.8176 17.4559 40.0587C16.6021 40.3591 16.2763 40.7908 16.3728 41.1063C16.5554 41.6976 17.8686 41.9562 17.6322 43.1405C17.512 43.7967 17.3278 43.8924 18.2639 44.4672C18.7438 44.7644 19.3961 45.7226 20.6239 45.3495C21.9134 44.9581 19.9044 44.9542 28.8763 41.7135C30.637 41.0794 32.5226 40.469 31.5525 38.9985C30.6757 37.6624 29.2273 36.4614 27.2603 35.4407ZM36.1744 39.8958C34.7158 40.3386 34.5062 40.771 33.9062 41.3695C32.8104 42.4661 25.1581 45.8349 29.6084 45.8918C30.5121 45.9029 31.562 45.7614 32.5819 45.6025C41.7198 44.1912 49.1824 41.2952 49.2543 40.4572C49.3105 39.7883 46.7702 40.103 43.2607 39.6942C42.04 39.5519 40.8809 39.3535 39.4167 39.3898C38.4016 39.4159 37.1738 39.5922 36.1744 39.8958Z" fill="#FA5F7F"/>
<path d="M44.6715 44.9115C40.1524 46.8185 35.3898 48.0629 32.0036 48.538C28.1928 49.0338 22.0237 48.674 18.798 48.3016C15.7945 47.9364 12.7063 47.3395 10.7124 45.0807C13.0708 46.9117 16.0372 47.073 18.8881 47.2565C31.9364 47.7949 32.8392 47.4185 44.6715 44.9115Z" fill="#FE90A9"/>
<path opacity="0.3" d="M11.3073 51.7155C11.9643 52.4199 12.9067 52.7741 13.8238 53.0706C20.0111 55.0692 26.6024 55.4938 33.1036 55.3539C34.9023 55.3143 36.8393 55.1839 38.2331 54.0454C31.8284 49.5516 23.2961 52.1677 15.9829 50.7628C14.8144 50.5382 13.6522 50.2117 12.4623 50.2204C11.7192 50.2252 11.1009 50.1967 10.3981 49.9706C10.2755 50.4307 11.0021 51.3881 11.3073 51.7155Z" fill="#111D33"/>
<path d="M10.1333 49.1823L9.39648 43.0788C9.49452 43.89 10.0922 44.5264 10.7081 45.0767C11.528 45.8128 12.5439 46.5069 14.1054 46.9876C16.7033 47.7845 20.5971 47.9442 24.4308 48.0605C29.6614 48.2186 33.6999 48.368 44.6688 44.9075C49.2994 43.4465 55.8378 41.3766 58.5006 36.8385C58.8619 36.2211 59.1188 35.606 59.0461 35.0486L59.7829 41.1521C59.8557 41.7095 59.5987 42.3238 59.2374 42.9421C58.031 44.9984 55.4227 47.2746 50.8957 49.1167C49.1998 49.8077 47.3008 50.4133 45.4057 51.011C35.0076 54.2913 31.0442 54.3419 25.1668 54.164C17.9612 53.9466 14.2089 53.662 11.445 51.1794C10.8314 50.6315 10.2314 49.9927 10.1333 49.1823Z" fill="#C93160"/>
<path d="M40.2623 41.3142C40.0117 41.0414 39.9397 40.3789 40.4599 40.2223C40.9636 40.0721 41.8648 40.484 42.1155 40.76C42.3661 41.0335 40.5145 41.5941 40.2623 41.3142ZM39.8875 43.5192C39.6369 43.2464 39.565 42.5831 40.0852 42.4266C40.5888 42.2771 41.4901 42.6891 41.7407 42.965C41.9914 43.2385 40.1397 43.7999 39.8875 43.5192ZM45.353 41.545C45.1024 41.2715 45.0305 40.609 45.5499 40.4524C46.0543 40.303 46.9548 40.7149 47.2062 40.9908C47.4568 41.2636 45.6044 41.8257 45.353 41.545ZM19.9689 44.2924C19.7182 44.0189 19.6471 43.3563 20.1665 43.1998C20.6701 43.0496 21.5714 43.4615 21.8228 43.7382C22.0735 44.011 20.2211 44.5731 19.9689 44.2924ZM17.5907 41.8289C17.3401 41.5561 17.2681 40.8936 17.7876 40.7362C18.292 40.5868 19.1925 40.9987 19.4439 41.2747C19.6945 41.5482 17.8421 42.1087 17.5907 41.8289ZM32.6353 44.8008C32.3846 44.528 32.3127 43.8655 32.8329 43.7082C33.3365 43.5587 34.2378 43.9706 34.4884 44.2474C34.7391 44.5201 32.8875 45.0807 32.6353 44.8008ZM36.0151 42.5175C35.7645 42.2439 35.6925 41.5814 36.2128 41.4249C36.7164 41.2754 37.6177 41.6866 37.8683 41.9633C38.1189 42.236 36.2673 42.7982 36.0151 42.5175ZM40.5263 34.692C40.6212 34.3347 40.3777 33.714 39.8448 33.8168C39.3286 33.9188 38.7222 34.7023 38.6281 35.0628C38.5332 35.421 40.4338 35.0573 40.5271 34.6928L40.5263 34.692ZM41.883 36.4709C41.9779 36.1127 41.7328 35.4921 41.2007 35.5949C40.6845 35.6969 40.0781 36.4804 39.984 36.8417C39.8891 37.1998 41.7897 36.8362 41.883 36.4709ZM44.8462 33.7844C44.9411 33.4263 44.6968 32.8064 44.1647 32.9084C43.6485 33.0112 43.0421 33.7939 42.9472 34.1552C42.8523 34.5133 44.753 34.1497 44.8462 33.7844Z" fill="#FFD475"/>
<path d="M69.7682 37.9319C69.3665 37.8355 68.9491 37.7406 68.6218 37.6054C67.9102 37.3161 66.5179 36.1879 66.5148 35.334C66.5092 34.8834 66.8413 34.4833 66.7994 34.0287C66.7551 33.62 66.4239 33.1859 66.2009 32.7629C65.8483 32.0957 65.7764 31.4545 65.706 30.8149C65.6925 30.72 65.6823 30.6204 65.7827 30.5453C65.9289 30.4338 66.2847 30.3966 66.6863 30.4148C67.4959 30.452 68.228 30.6947 68.987 30.9398C71.0964 31.6197 73.3591 32.2269 75.4258 32.9258C81.6914 35.0446 80.3987 36.0606 82.146 37.3018C83.2607 38.0956 86.4469 39.1961 86.4927 40.6145C86.503 41.1063 86.0168 41.6613 84.9194 41.8597C83.0378 42.1997 81.7522 40.7434 69.7682 37.9319ZM47.3069 38.8483C46.5289 38.5115 46.2648 37.6513 45.9676 37.275C45.7146 36.9587 45.4592 36.6369 45.4877 36.3452C45.5067 36.1143 45.6988 35.9151 45.8245 35.7016C46.5123 34.5805 45.2742 33.854 45.3114 33.1851C45.3311 32.8293 45.8237 32.5091 46.8033 32.5115C47.5701 32.5163 47.9655 32.6356 48.3829 32.2957C49.3198 31.5367 49.1324 31.2125 49.7001 31.0544C50.3033 30.8852 51.373 31.0528 52.3565 31.0979C54.8438 31.211 53.7504 30.0337 55.6628 30.1215C56.2851 30.15 56.9832 30.3389 57.4417 30.5595C57.9564 30.8062 58.2331 31.0845 58.4814 31.3525C60.0926 33.0966 61.111 34.8359 61.4991 36.5073C61.9316 38.3518 59.8207 38.2885 57.7651 38.2988C55.9577 38.3091 51.6173 38.3652 49.8226 38.6546C49.2549 38.7439 48.311 39.2831 47.3069 38.8483ZM71.0703 44.9154C67.2121 44.7391 59.608 43.7864 56.9397 42.8013C52.4466 41.1434 61.4731 40.4769 62.9958 39.7598C63.4622 39.5408 63.8093 39.272 64.5058 39.1463C65.8657 38.8989 67.9956 39.2989 69.3286 39.733C70.8268 40.2231 71.9289 40.8422 73.1132 41.4249C76.5239 43.1049 79.2128 43.701 78.906 44.3557C78.5345 45.1463 71.9921 44.9581 71.0703 44.9154Z" fill="#DF3260"/>
<path d="M90.8681 42.3902C90.7321 42.9824 90.2412 43.5137 89.6427 44.011C85.0706 47.7964 77.0886 47.4343 71.2017 47.1655C59.669 46.6382 55.8678 45.0839 50.8727 43.1389C43.7097 40.3513 39.9559 38.7052 38.075 35.1743C37.7224 34.5165 37.4505 33.8619 37.4346 33.2373C37.3872 31.1264 40.3504 29.4685 44.8869 28.6439C48.3973 28.0066 52.7741 27.8454 57.4047 28.0565C67.2502 28.5071 72.843 29.9405 81.4836 33.8113C84.6776 35.2415 85.8485 35.8487 88.1231 38.034C89.6632 39.5132 91.1701 41.0525 90.8681 42.3902ZM84.5211 38.6024C83.7384 38.166 82.7818 37.7541 82.1453 37.3019C80.4186 36.074 81.6852 35.0431 75.4251 32.9258C73.3592 32.2269 71.0965 31.6197 68.9872 30.9398C68.225 30.6939 67.4961 30.452 66.6865 30.4148C66.2848 30.3967 65.9291 30.4338 65.7828 30.5453C65.6816 30.6204 65.6927 30.7192 65.7061 30.8157C65.7765 31.4545 65.8484 32.0965 66.201 32.763C66.424 33.1859 66.7553 33.62 66.8003 34.0279C66.881 34.9063 65.586 35.4605 67.9586 37.222C69.1848 38.1288 70.9344 37.8703 80.4487 40.8351C81.5942 41.1925 83.0166 41.8431 84.2412 41.8993C85.1868 41.942 86.5111 41.4929 86.4929 40.6153C86.4723 39.9741 85.6952 39.2539 84.5211 38.6024ZM58.4815 31.3525C58.2333 31.0837 57.9565 30.807 57.4419 30.5595C56.8809 30.3052 56.2779 30.1568 55.663 30.1215C53.7703 30.0346 54.8012 31.2094 52.3574 31.0979C52.0981 31.0861 51.8277 31.0647 51.5589 31.0442C48.7862 30.8196 49.7247 31.2094 48.383 32.2957C47.9688 32.6325 47.5956 32.5163 46.8034 32.5115C45.823 32.5092 45.3313 32.8302 45.3115 33.1851C45.2917 33.5401 45.6388 33.9307 45.8309 34.3078C46.4168 35.4242 45.5266 35.874 45.4878 36.3452C45.4594 36.637 45.7147 36.9579 45.9677 37.275C46.265 37.6513 46.529 38.5115 47.307 38.8483C48.3127 39.2839 49.0614 38.7748 49.8227 38.6538C51.6174 38.3652 55.9571 38.3099 57.7652 38.2988C59.7844 38.2885 61.9317 38.3502 61.4993 36.5073C61.1119 34.8359 60.0928 33.0966 58.4815 31.3525ZM65.85 39.0807C64.2024 39.0048 63.826 39.3693 62.9959 39.7599C61.4732 40.4777 52.4468 41.1434 56.9398 42.8014C59.5947 43.7817 67.0407 44.7312 71.0704 44.9155C72.012 44.9589 78.5354 45.1447 78.9054 44.3557C79.2137 43.6995 76.5043 43.0955 73.1134 41.4249C71.929 40.8422 70.8269 40.2232 69.3287 39.733C68.2891 39.3946 66.9782 39.1321 65.85 39.0807Z" fill="#FA5F7F"/>
<path d="M72.5859 47.2264C66.8761 47.4896 61.8724 47.0097 58.4364 46.3108C53.9078 45.3415 44.6165 41.6067 41.0239 38.8949C39.7542 37.913 38.6632 36.6496 38.0781 35.1814C38.9359 36.5057 40.0626 37.5904 41.3971 38.3518C43.6148 39.7013 47.4658 41.1798 49.9144 42.0787C56.7745 44.6561 57.8284 45.4578 72.5859 47.2264Z" fill="#FE90A9"/>
<path opacity="0.3" d="M48.4011 50.0386C48.2533 50.4537 48.3157 50.2568 48.6913 50.4845C51.6458 52.2737 55.1759 52.7828 58.5976 53.2509C66.401 54.3182 74.3087 55.3721 82.1262 54.4194C83.7786 54.2178 85.4713 53.9086 86.8731 53.0105C88.2756 52.1116 89.3319 50.4956 89.1184 48.844C69.0748 50.4189 55.7981 48.6621 52.1929 48.6542C51.4505 48.6542 51.052 49.1634 50.346 49.4188C50.097 49.5089 48.4343 49.9429 48.4011 50.0386Z" fill="#111D33"/>
<path d="M35.9505 39.1345L37.4946 32.676C37.2906 33.5298 37.6527 34.3868 38.0749 35.1743C38.6299 36.2163 39.4 37.2852 40.8025 38.3352C43.1388 40.0785 47.0286 41.6423 50.8725 43.1381C55.9459 45.1139 59.6546 46.6366 71.2015 47.1647C77.0892 47.4335 85.0704 47.7956 89.6425 44.0102C90.241 43.5129 90.732 42.9816 90.868 42.3894L89.3239 48.8471C89.1879 49.4393 88.697 49.9706 88.0985 50.4679C86.103 52.1203 82.6029 53.4912 77.3193 53.7315C75.3404 53.8225 73.1868 53.7537 71.0402 53.6786C59.2443 53.2651 55.213 51.887 49.3293 49.5958C42.1663 46.8081 38.4117 45.1621 36.5308 41.6312C36.1094 40.8454 35.7466 39.9852 35.9505 39.1329V39.1345Z" fill="#DF3260"/>
<path d="M79.2058 35.8724C79.5537 35.7443 79.9206 35.1877 79.53 34.8106C79.1497 34.4469 78.1599 34.4019 77.8104 34.5331C77.4625 34.6612 78.854 36.006 79.2058 35.8724ZM70.8594 35.2613C70.7566 34.9055 70.9866 34.2793 71.5219 34.3702C72.0397 34.4604 72.6635 35.2296 72.7655 35.5886C72.8683 35.9443 70.9606 35.6242 70.8594 35.2613ZM75.9224 36.0479C76.1667 35.7696 76.2229 35.1055 75.7011 34.96C75.1927 34.8217 74.3017 35.2534 74.0566 35.5356C73.8115 35.8139 75.6766 36.3333 75.9224 36.0479Z" fill="#FFD475"/>
<path opacity="0.3" d="M11.172 39.699C7.2063 42.27 66.6808 49.2804 89.709 39.6658L11.172 39.699Z" fill="#111D33"/>
<path d="M101.198 29.7879C101.198 33.4856 100.15 34.8201 97.5438 36.3578C91.6577 39.9449 83.4678 41.462 73.9196 42.1001C66.8697 42.5744 59.0758 42.5744 50.9175 42.5744C31.9824 42.5744 14.9803 43.1777 4.72839 36.7974C3.62944 36.108 2.82064 35.1846 2.48147 34.1505C1.75712 32.0147 1.59537 29.7282 2.01185 27.5117C4.43507 13.8966 26.2172 0 51.4844 0C69.7001 0 85.7242 7.06174 94.383 15.8897C98.7076 20.3045 101.198 25.1573 101.198 29.7879Z" fill="#EA9344"/>
<path d="M94.3749 21.201C93.978 23.1483 92.5217 24.2315 90.995 25.1327C85.1089 28.719 76.919 30.2361 67.3708 30.8742C60.3201 31.3485 52.5263 31.3485 44.3687 31.3485C27.6331 31.3485 12.4011 31.8229 2.01172 27.5117C2.60231 24.184 4.38909 20.8042 7.13014 17.5974C15.2481 8.11958 31.9878 0 51.4834 0C70.0217 0 85.9486 7.28232 94.382 15.8897C94.7407 17.6423 94.7388 19.4496 94.3749 21.201Z" fill="#FFB961"/>
<path d="M87.7285 10.4321C87.0754 11.2986 86.269 11.8378 85.246 12.4411C79.3606 16.0281 71.1707 17.5452 61.6225 18.1833C54.5726 18.6576 46.7788 18.6576 38.6212 18.6576C27.0348 18.6576 16.1686 18.8814 7.13037 17.5974C15.2484 8.11958 31.988 0 51.4837 0C65.7297 0 78.6412 4.3199 87.7285 10.4321Z" fill="#FFD475"/>
<path d="M53.7897 33.8904C53.5272 34.7624 53.4031 36.6306 53.8814 36.8473C54.3605 37.0623 55.2571 35.5412 55.5196 34.6691C55.7812 33.7994 54.0522 33.0223 53.7897 33.8904ZM60.853 26.895C60.5684 27.7434 60.396 29.5807 60.8665 29.8156C61.3377 30.0488 62.2714 28.5877 62.556 27.7394C62.839 26.8935 61.1376 26.0507 60.853 26.895ZM84.8615 29.9247C84.0717 29.7476 82.4865 29.8725 82.4185 30.4544C82.3521 31.0378 83.8306 31.8585 84.622 32.0395C85.4118 32.219 85.6498 30.1033 84.8615 29.9247ZM71.5105 28.4684C72.041 27.7971 72.7786 26.1716 72.4197 25.7668C72.0584 25.3636 70.7372 26.3321 70.2052 27.0002C69.6739 27.6675 70.9792 29.138 71.5105 28.4684ZM77.6037 34.7339C76.8487 34.3782 75.2493 34.1355 75.0801 34.6873C74.9117 35.2407 76.2391 36.3832 76.9949 36.7421C77.7492 37.0995 78.3572 35.0897 77.6037 34.7339Z" fill="#DD8536"/>
<path opacity="0.58" d="M70.739 15.0849C70.4931 15.9285 70.399 17.7382 70.8734 17.9469C71.3501 18.154 72.2119 16.6788 72.4578 15.8344C72.7028 14.9916 70.9848 14.2445 70.739 15.0849ZM72.9274 10.8812C73.5978 11.3793 75.1071 11.962 75.364 11.4868C75.6194 11.0093 74.526 9.65893 73.8571 9.16084C73.1899 8.66434 72.2601 10.3831 72.9274 10.8812ZM61.0476 21.02C61.4951 20.2847 62.024 18.5928 61.6066 18.2624C61.1892 17.9319 59.9835 19.0846 59.5352 19.8167C59.0869 20.5488 60.6002 21.7537 61.0476 21.02Z" fill="#DBA660"/>
<path d="M81.8187 21.7663C81.0645 21.4398 79.4793 21.2469 79.3251 21.7916C79.1717 22.3379 80.5095 23.4179 81.2637 23.7476C82.0172 24.0765 82.5714 22.0944 81.8187 21.7663Z" fill="#DD8536"/>
<path opacity="0.58" d="M65.8465 10.6361C65.5982 11.4741 65.4962 13.2673 65.9682 13.4744C66.441 13.6792 67.3044 12.2165 67.5534 11.3793C67.8009 10.5436 66.0947 9.8028 65.8465 10.6361Z" fill="#DBA660"/>
<path d="M18.4375 15.6493C17.6864 15.8699 16.3392 16.7428 16.4752 17.2938C16.6135 17.8441 18.1853 17.863 18.9379 17.6433C19.689 17.4235 19.1878 15.4295 18.4375 15.6493ZM23.4073 32.861C23.2412 31.9541 22.5234 30.3033 22.0348 30.4282C21.5446 30.5547 21.4671 32.4119 21.6315 33.3187C21.7952 34.2248 23.5725 33.767 23.4073 32.861ZM12.2588 29.0075C12.3561 28.9142 12.4494 28.8217 12.5443 28.7292C13.0107 28.7664 13.512 28.8873 13.8424 29.0376C14.5674 29.3672 13.8954 31.3596 13.1688 31.0283C12.8597 30.886 12.4549 30.6077 12.1055 30.293C12.2604 28.8707 12.1545 29.1071 12.2588 29.0075Z" fill="#D88A4A"/>
<path d="M44.369 29.5104C43.7286 28.9554 42.2549 28.2612 41.9624 28.7316C41.6699 29.2044 42.6724 30.667 43.3112 31.2252C43.95 31.7826 45.0078 30.0662 44.369 29.5104Z" fill="#DD8536"/>
<path opacity="0.58" d="M52.6806 22.4716C51.9074 22.2976 50.3404 22.4218 50.2574 22.9934C50.1743 23.5674 51.6093 24.3722 52.3833 24.5493C53.1565 24.7256 53.453 22.6471 52.6806 22.4716Z" fill="#DBA660"/>
<path d="M23.7958 22.4154C24.4433 22.9222 25.9249 23.5167 26.2024 23.0337C26.4792 22.5498 25.449 21.1757 24.8031 20.6697C24.1595 20.1645 23.1515 21.9086 23.7958 22.4154Z" fill="#D88A4A"/>
<path d="M34.6507 28.8913C34.9535 27.7726 35.0381 25.4348 34.4214 25.2166C33.8047 25.0007 32.7153 26.9844 32.4093 28.0999C32.1041 29.2147 34.3471 30.0093 34.6507 28.8913ZM37.5855 38.5645C38.3444 38.2561 39.6774 37.211 39.5082 36.6544C39.3367 36.0994 37.7309 36.2432 36.9727 36.5476C36.2169 36.8528 36.8273 38.8697 37.5855 38.5637V38.5645Z" fill="#DD8536"/>
<path opacity="0.58" d="M43.8235 21.6279C44.2726 20.8911 44.811 19.1897 44.4039 18.8482C43.9959 18.5082 42.7965 19.653 42.3467 20.3867C41.8976 21.1196 43.3737 22.3632 43.8235 21.6279Z" fill="#DBA660"/>
<path d="M33.6195 12.9052C33.0977 13.5219 32.372 15.0651 32.7261 15.496C33.0827 15.9269 34.3856 15.0778 34.9082 14.4619C35.4292 13.8468 34.1405 12.2932 33.6195 12.9052ZM49.1527 6.21265C49.8998 6.60242 51.4953 6.96057 51.6763 6.4696C51.8558 5.97705 50.5536 4.82513 49.8089 4.43615C49.0657 4.04875 48.4095 5.82367 49.1527 6.21265ZM49.7528 15.9696C50.2358 15.2683 50.8723 13.5993 50.5015 13.2127C50.1299 12.8269 48.8918 13.8666 48.4071 14.5647C47.9233 15.2612 49.2689 16.6677 49.7528 15.9696ZM42.4254 10.0107C43.0697 9.59252 44.1078 8.36944 43.8477 7.85633C43.5868 7.3456 42.1281 7.73774 41.4838 8.15202C40.841 8.5663 41.7818 10.4266 42.4254 10.01V10.0107ZM59.8726 12.3178C59.3065 11.6307 57.9419 10.6116 57.6075 10.9935C57.2738 11.3769 58.0977 13.019 58.6622 13.7084C59.2267 14.3963 60.4379 13.0048 59.8726 12.3178ZM59.4061 4.03372C59.2978 4.92316 59.4789 6.70836 59.9619 6.77952C60.4466 6.8483 61.0466 5.17537 61.1542 4.28593C61.2617 3.40045 59.5144 3.14824 59.4061 4.03372Z" fill="#D88A4A"/>
<path d="M54.1653 33.3678C53.9036 34.239 53.7802 36.1064 54.2578 36.3223C54.7369 36.5373 55.6334 35.0178 55.8951 34.1457C56.156 33.2768 54.4278 32.5013 54.1653 33.3678ZM61.2239 26.3788C60.9392 27.2263 60.7677 29.0621 61.2381 29.2961C61.7093 29.5301 62.6422 28.0707 62.926 27.2223C63.2091 26.3764 61.5077 25.5352 61.2239 26.3788ZM85.2244 29.4044C84.4338 29.2265 82.8502 29.3515 82.7823 29.9334C82.7158 30.516 84.1943 31.3359 84.9849 31.5169C85.7747 31.6964 86.0127 29.5839 85.2244 29.4044ZM71.8773 27.9505C72.4078 27.2801 73.1447 25.6554 72.785 25.2506C72.4237 24.8474 71.1041 25.8158 70.572 26.4823C70.0415 27.1496 71.3468 28.6194 71.8773 27.9505ZM77.9706 34.2098C77.2156 33.854 75.6169 33.6113 75.4485 34.1631C75.2801 34.7166 76.6076 35.8566 77.3618 36.2156C78.1169 36.5729 78.724 34.5655 77.9706 34.2098ZM71.1018 14.5781C70.8567 15.4217 70.7626 17.229 71.2377 17.4377C71.7137 17.6449 72.5739 16.1712 72.8198 15.3268C73.0648 14.4856 71.3468 13.7377 71.1018 14.5781ZM73.2878 10.3784C73.9582 10.8765 75.4675 11.4583 75.7237 10.9832C75.979 10.5064 74.8856 9.15687 74.2168 8.65879C73.5495 8.16386 72.6197 9.88107 73.2878 10.3784ZM61.4168 20.5085C61.8635 19.774 62.3908 18.0845 61.9741 17.7532C61.5559 17.4235 60.3518 18.5754 59.9035 19.3067C59.456 20.0381 60.9693 21.2422 61.4168 20.5085ZM82.179 21.2532C81.4256 20.9267 79.8412 20.7346 79.6862 21.2785C79.5336 21.8241 80.8706 22.9032 81.6248 23.2329C82.379 23.561 82.9317 21.5805 82.179 21.2532ZM66.2095 10.1341C65.962 10.9713 65.8616 12.7629 66.332 12.9692C66.8048 13.1748 67.6681 11.7121 67.9164 10.8757C68.1631 10.0416 66.4577 9.30155 66.2095 10.1341ZM18.821 15.145C18.0699 15.3663 16.7235 16.2384 16.8603 16.7879C16.9978 17.3389 18.5688 17.3571 19.3214 17.1373C20.0725 16.9183 19.5705 14.9268 18.821 15.145ZM23.7947 32.3416C23.6279 31.4355 22.91 29.7863 22.4214 29.9112C21.932 30.0377 21.8554 31.8925 22.0182 32.7985C22.1835 33.7046 23.96 33.246 23.7947 32.3416ZM12.6495 28.4921L12.9341 28.2146C13.4006 28.2517 13.9018 28.3727 14.2315 28.5213C14.9565 28.8518 14.286 30.8418 13.5595 30.5113C13.2503 30.369 12.8455 30.0915 12.4961 29.776C12.6511 28.3561 12.5451 28.5917 12.6495 28.4921ZM44.7467 28.9925C44.1063 28.4375 42.6326 27.7434 42.3401 28.2146C42.0492 28.6873 43.0517 30.1484 43.6897 30.7058C44.3285 31.2632 45.3855 29.5483 44.7467 28.9925ZM53.0529 21.96C52.2797 21.7861 50.7143 21.9094 50.6305 22.4818C50.5482 23.0542 51.9824 23.8591 52.7564 24.0354C53.5296 24.2117 53.8245 22.1348 53.0529 21.96ZM24.179 21.9055C24.8257 22.4115 26.3073 23.0052 26.5848 22.5222C26.8615 22.0399 25.8305 20.6674 25.1854 20.1606C24.5411 19.6562 23.5346 21.3995 24.179 21.9055ZM35.0317 28.3751C35.3337 27.2571 35.4191 24.9209 34.8024 24.7035C34.1849 24.4884 33.0971 26.4697 32.7919 27.5837C32.4867 28.6984 34.7289 29.4914 35.0325 28.3743L35.0317 28.3751ZM37.9688 38.0387C38.7278 37.7312 40.06 36.6868 39.89 36.131C39.7192 35.5759 38.1135 35.7198 37.3561 36.0242C36.6003 36.3286 37.2114 38.3439 37.9688 38.0387ZM44.1988 21.1172C44.6471 20.382 45.1847 18.6822 44.7776 18.3398C44.3696 17.9999 43.171 19.1447 42.722 19.8768C42.2737 20.6097 43.7505 21.8517 44.1988 21.1172ZM33.996 12.4031C33.4742 13.0182 32.7492 14.5615 33.1042 14.9916C33.46 15.4225 34.7621 14.5734 35.2847 13.9583C35.8049 13.344 34.5162 11.7904 33.996 12.4031ZM49.2034 5.56038C49.9497 5.94936 51.5444 6.30751 51.7255 5.81654C51.9049 5.32478 50.6044 4.17444 49.8596 3.78625C49.1164 3.39885 48.4602 5.17219 49.2034 5.56038ZM50.1237 15.4636C50.6059 14.7631 51.2424 13.0957 50.8716 12.7091C50.5 12.3241 49.2627 13.3629 48.7788 14.0595C48.295 14.756 49.6406 16.1625 50.1237 15.4636ZM42.7979 9.51107C43.4414 9.09283 44.4787 7.87055 44.2186 7.35823C43.9577 6.8475 42.4998 7.23964 41.8562 7.65313C41.2135 8.06741 42.1551 9.92614 42.7979 9.51107ZM60.2388 11.8141C59.6727 11.1279 58.3081 10.1096 57.9744 10.4914C57.6408 10.8749 58.4646 12.5154 59.0291 13.2032C59.5944 13.8911 60.804 12.4996 60.2388 11.8141ZM59.7699 3.538C59.6624 4.42664 59.8434 6.21026 60.3265 6.28142C60.8104 6.3502 61.4096 4.67885 61.5172 3.7902C61.6247 2.90472 59.8782 2.6533 59.7699 3.5372V3.538Z" fill="#FEEDBD"/>
</svg>
